<svg width="1900" height="400" viewBox="0 0 1900 400" fill="none" xmlns="http://www.w3.org/2000/svg">
<g clip-path="url(#clip0_8_1722)">
<rect width="1900" height="400" fill="url(#paint0_linear_8_1722)"/>
<path d="M239.114 110.311L232.367 113.817L239.886 112.689L246.633 109.182L239.114 110.311Z" fill="#F9F0F0"/>
<path d="M238.311 111.886L241.818 118.633L240.689 111.114L237.182 104.367L238.311 111.886Z" fill="#F9F0F0"/>
<path d="M301.009 206.358L293.649 204.45L299.992 208.642L307.352 210.551L301.009 206.358Z" fill="#F9F0F0"/>
<path d="M299.358 206.992L297.45 214.352L301.642 208.009L303.551 200.649L299.358 206.992Z" fill="#F9F0F0"/>
<path d="M511.155 127.298L504.29 130.567L511.844 129.702L518.709 126.433L511.155 127.298Z" fill="#F9F0F0"/>
<path d="M510.298 128.845L513.567 135.71L512.701 128.156L509.432 121.291L510.298 128.845Z" fill="#F9F0F0"/>
<path d="M455.262 62.273L448.138 64.9311L455.739 64.7271L462.862 62.069L455.262 62.273Z" fill="#F9F0F0"/>
<path d="M454.273 63.7384L456.931 70.8621L456.727 63.2614L454.069 56.1377L454.273 63.7384Z" fill="#F9F0F0"/>
<path d="M691.674 182.262L684.073 182.456L691.326 184.738L698.927 184.544L691.674 182.262Z" fill="#F9F0F0"/>
<path d="M690.262 183.326L690.456 190.927L692.738 183.674L692.544 176.073L690.262 183.326Z" fill="#F9F0F0"/>
<path d="M866.968 283.341L859.546 281.69L866.032 285.659L873.454 287.31L866.968 283.341Z" fill="#F9F0F0"/>
<path d="M865.341 284.032L863.69 291.454L867.659 284.968L869.31 277.546L865.341 284.032Z" fill="#F9F0F0"/>
<path d="M964.114 76.311L957.367 79.8175L964.886 78.6887L971.633 75.1822L964.114 76.311Z" fill="#F9F0F0"/>
<path d="M963.311 77.8861L966.818 84.6328L965.689 77.1136L962.182 70.3669L963.311 77.8861Z" fill="#F9F0F0"/>
<path d="M1360.35 43.2593L1353.06 45.414L1360.65 45.7407L1367.94 43.586L1360.35 43.2593Z" fill="#F9F0F0"/>
<path d="M1359.26 44.6523L1361.41 51.9441L1361.74 44.3477L1359.59 37.0559L1359.26 44.6523Z" fill="#F9F0F0"/>
<path d="M1709.18 123.293L1702.26 126.441L1709.82 125.708L1716.74 122.559L1709.18 123.293Z" fill="#F9F0F0"/>
<path d="M1708.29 124.824L1711.44 131.745L1710.71 124.177L1707.56 117.256L1708.29 124.824Z" fill="#F9F0F0"/>
<path d="M1506.07 163.386L1498.82 161.095L1504.93 165.614L1512.18 167.905L1506.07 163.386Z" fill="#F9F0F0"/>
<path d="M1504.39 163.933L1502.1 171.183L1506.61 165.068L1508.9 157.818L1504.39 163.933Z" fill="#F9F0F0"/>
<path d="M1269.76 241.277L1262.16 240.941L1269.24 243.723L1276.84 244.059L1269.76 241.277Z" fill="#F9F0F0"/>
<path d="M1268.28 242.24L1267.94 249.836L1270.72 242.76L1271.06 235.164L1268.28 242.24Z" fill="#F9F0F0"/>
<path d="M1441.99 337.349L1434.6 335.57L1441.01 339.651L1448.4 341.431L1441.99 337.349Z" fill="#F9F0F0"/>
<path d="M1440.35 338.012L1438.57 345.404L1442.65 338.989L1444.43 331.596L1440.35 338.012Z" fill="#F9F0F0"/>
<path d="M1762.18 298.293L1755.26 301.441L1762.82 300.708L1769.74 297.559L1762.18 298.293Z" fill="#F9F0F0"/>
<path d="M1761.29 299.824L1764.44 306.745L1763.71 299.177L1760.56 292.256L1761.29 299.824Z" fill="#F9F0F0"/>
<path d="M1833.75 67.5018L1828.51 73.0137L1835.25 69.4984L1840.49 63.9864L1833.75 67.5018Z" fill="#F9F0F0"/>
<path d="M1833.5 69.2524L1839.01 74.4899L1835.5 67.7479L1829.99 62.5104L1833.5 69.2524Z" fill="#F9F0F0"/>
<path d="M371.928 341.325L364.452 339.935L371.073 343.675L378.548 345.065L371.928 341.325Z" fill="#F9F0F0"/>
<path d="M370.325 342.072L368.935 349.548L372.675 342.927L374.065 335.452L370.325 342.072Z" fill="#F9F0F0"/>
<path d="M119.587 278.253L112.018 278.977L119.413 280.747L126.982 280.023L119.587 278.253Z" fill="#F9F0F0"/>
<path d="M118.253 279.413L118.977 286.982L120.747 279.587L120.023 272.018L118.253 279.413Z" fill="#F9F0F0"/>
<path d="M164.781 55.2821L157.192 54.8129L164.219 57.718L171.808 58.1872L164.781 55.2821Z" fill="#F9F0F0"/>
<path d="M163.282 56.2188L162.813 63.8078L165.718 56.7812L166.187 49.1922L163.282 56.2188Z" fill="#F9F0F0"/>
<path d="M562.348 230.259L555.056 232.414L562.652 232.741L569.944 230.586L562.348 230.259Z" fill="#F9F0F0"/>
<path d="M561.259 231.652L563.414 238.944L563.741 231.348L561.586 224.056L561.259 231.652Z" fill="#F9F0F0"/>
<path d="M756.24 77.2773L749.164 80.0594L756.76 79.7227L763.836 76.9407L756.24 77.2773Z" fill="#F9F0F0"/>
<path d="M755.277 78.7598L758.059 85.8361L757.723 78.2401L754.941 71.1638L755.277 78.7598Z" fill="#F9F0F0"/>
<path d="M1218.46 134.251L1211 135.762L1218.54 136.749L1226 135.238L1218.46 134.251Z" fill="#F9F0F0"/>
<path d="M1217.25 135.544L1218.76 142.995L1219.75 135.456L1218.24 128.005L1217.25 135.544Z" fill="#F9F0F0"/>
<path d="M1053.39 366.255L1046.03 368.154L1053.61 368.745L1060.97 366.846L1053.39 366.255Z" fill="#F9F0F0"/>
<path d="M1052.25 367.609L1054.15 374.971L1054.75 367.391L1052.85 360.028L1052.25 367.609Z" fill="#F9F0F0"/>
<path d="M1658.12 219.417L1651 216.75L1656.87 221.583L1664 224.25L1658.12 219.417Z" fill="#F9F0F0"/>
<path d="M1656.42 219.875L1653.75 226.995L1658.58 221.125L1661.25 214.005L1656.42 219.875Z" fill="#F9F0F0"/>
<path d="M1166.28 41.2689L1159.11 43.8023L1166.72 43.7309L1173.89 41.1976L1166.28 41.2689Z" fill="#F9F0F0"/>
<path d="M1165.27 42.717L1167.8 49.886L1167.73 42.2828L1165.2 35.1139L1165.27 42.717Z" fill="#F9F0F0"/>
<g filter="url(#filter0_d_8_1722)">
<path d="M822.488 192.856L821.848 200.536C819.885 200.365 817.752 200.28 815.448 200.28C813.229 200.28 811.352 200.323 809.816 200.408C808.621 209.795 807.853 219.992 807.512 231H798.552C798.04 228.781 797.784 225.837 797.784 222.168C797.784 218.499 797.869 215.341 798.04 212.696C798.296 209.965 798.595 207.277 798.936 204.632C799.277 201.987 799.448 200.451 799.448 200.024C798.253 199.939 795.437 199.896 791 199.896C786.563 199.896 783.491 199.981 781.784 200.152C771.885 213.464 762.755 223.576 754.392 230.488C746.029 237.315 737.667 240.728 729.304 240.728C725.208 240.728 721.795 239.491 719.064 237.016C716.248 234.541 714.84 231.256 714.84 227.16C714.84 219.395 720.728 212.312 732.504 205.912C744.365 199.512 759.683 195.203 778.456 192.984C780.675 189.571 784.813 184.323 790.872 177.24C796.931 170.072 802.904 163.843 808.792 158.552C811.352 152.579 813.357 148.44 814.808 146.136C816.344 143.747 817.837 142.552 819.288 142.552C820.739 142.552 821.933 143.107 822.872 144.216C823.811 145.325 824.28 146.776 824.28 148.568C824.28 150.275 823.299 152.835 821.336 156.248C819.459 159.576 817.496 164.781 815.448 171.864C813.4 178.861 811.992 185.475 811.224 191.704C815.661 191.704 819.416 192.088 822.488 192.856ZM757.208 219.608C764.291 212.867 769.624 206.467 773.208 200.408C758.872 201.261 747.779 203.949 739.928 208.472C732.163 212.995 728.28 217.816 728.28 222.936C728.28 225.155 729.005 226.904 730.456 228.184C731.992 229.464 733.997 230.104 736.472 230.104C743.128 230.104 750.04 226.605 757.208 219.608ZM800.984 191.704C801.581 188.803 802.349 185.176 803.288 180.824C804.312 176.387 804.909 173.784 805.08 173.016C800.984 176.941 798.125 179.843 796.504 181.72C794.883 183.512 792.024 187.011 787.928 192.216C789.379 192.131 791.128 192.088 793.176 192.088C795.309 192.003 797.059 191.917 798.424 191.832C799.789 191.747 800.643 191.704 800.984 191.704ZM883.037 215.512L885.725 217.56C883.848 221.315 881.245 224.472 877.917 227.032C874.674 229.592 871.73 230.872 869.085 230.872C866.44 230.872 864.349 230.104 862.813 228.568C861.277 227.032 860.509 225.112 860.509 222.808C860.509 220.504 861.96 216.493 864.861 210.776C867.848 204.973 869.341 200.707 869.341 197.976C869.341 196.781 868.829 195.715 867.805 194.776C866.866 193.752 865.714 193.24 864.349 193.24C859.997 193.24 855.602 196.568 851.165 203.224C846.728 209.795 841.778 219.309 836.317 231.768L828.637 229.08C830.258 219.181 832.562 209.539 835.549 200.152C838.621 190.68 841.437 183.896 843.997 179.8L849.245 181.464C846.856 187.523 843.826 197.976 840.157 212.824C851.933 192.685 862.77 182.616 872.669 182.616C874.802 182.616 876.552 183.341 877.917 184.792C879.368 186.243 880.093 187.949 880.093 189.912C880.093 191.875 879.837 193.667 879.325 195.288C878.813 196.824 877.192 200.493 874.461 206.296C871.816 212.013 870.493 215.597 870.493 217.048C870.493 218.499 870.92 219.651 871.773 220.504C872.626 221.272 873.437 221.656 874.205 221.656C874.973 221.656 875.613 221.528 876.125 221.272C876.637 221.016 877.192 220.632 877.789 220.12C878.472 219.608 879.069 219.139 879.581 218.712C880.093 218.285 880.69 217.731 881.373 217.048C882.141 216.28 882.696 215.768 883.037 215.512ZM914.892 176.728C910.113 176.728 907.724 174.808 907.724 170.968C907.724 168.835 908.321 167.043 909.516 165.592C910.711 164.141 912.247 163.416 914.124 163.416C916.001 163.416 917.537 163.971 918.732 165.08C919.927 166.189 920.524 167.64 920.524 169.432C920.524 171.224 920.012 172.888 918.988 174.424C917.964 175.96 916.599 176.728 914.892 176.728ZM913.228 214.488L915.788 216.664C913.74 220.589 911.009 223.96 907.596 226.776C904.268 229.507 901.239 230.872 898.508 230.872C893.729 230.872 891.34 227.544 891.34 220.888C891.34 212.611 894.753 201.816 901.58 188.504C903.116 185.603 904.012 183.896 904.268 183.384L909.772 186.712C907.98 189.955 905.761 195.117 903.116 202.2C900.556 209.283 899.276 213.848 899.276 215.896C899.276 217.859 899.703 219.267 900.556 220.12C901.409 220.973 902.433 221.4 903.628 221.4C905.932 221.4 909.132 219.096 913.228 214.488ZM984.982 151.512L1015.32 152.408C1016.85 152.408 1018.77 152.067 1021.08 151.384C1023.47 150.616 1025.05 150.232 1025.81 150.232C1026.58 150.232 1027.18 150.488 1027.61 151C1028.12 151.427 1028.37 151.981 1028.37 152.664C1028.37 154.456 1027.56 155.992 1025.94 157.272C1024.32 158.467 1022.19 159.32 1019.54 159.832C1014.59 160.941 1010.2 161.496 1006.36 161.496C1001.15 165.08 996.075 175.405 991.126 192.472C999.574 192.472 1004.82 192.6 1006.87 192.856L1006.61 198.872C1005.33 198.957 1003.41 199 1000.85 199L989.206 198.616C984.427 213.208 977.985 224.813 969.878 233.432C961.771 242.051 953.195 246.36 944.15 246.36C938.603 246.36 934.123 244.696 930.71 241.368C927.297 238.04 925.59 233.645 925.59 228.184C925.59 219.395 930.838 211.416 941.334 204.248C951.83 196.995 964.758 193.155 980.118 192.728C985.323 176.344 991.425 165.933 998.422 161.496L977.814 160.728C969.195 160.728 962.753 161.837 958.486 164.056C954.305 166.275 952.214 169.219 952.214 172.888C952.214 174.851 953.025 176.515 954.646 177.88C956.267 179.16 957.889 179.8 959.51 179.8C961.131 179.8 962.326 179.757 963.094 179.672C963.947 179.501 964.971 179.203 966.166 178.776C967.446 178.264 968.342 177.923 968.854 177.752C970.646 177.155 972.822 176.216 975.382 174.936L978.07 178.264C971.585 184.749 964.502 187.992 956.822 187.992C953.409 187.992 950.593 186.925 948.374 184.792C946.155 182.659 945.046 179.971 945.046 176.728C945.046 169.645 948.673 163.672 955.926 158.808C963.179 153.944 972.865 151.512 984.982 151.512ZM967.062 223.064C971.67 215.896 975.339 207.875 978.07 199C967.489 199.853 958.145 203.224 950.038 209.112C942.017 215 938.006 221.315 938.006 228.056C938.006 230.701 938.902 232.877 940.694 234.584C942.571 236.291 945.003 237.144 947.99 237.144C950.977 237.144 954.219 235.864 957.718 233.304C961.217 230.829 964.331 227.416 967.062 223.064ZM1040.62 218.712L1043.31 220.888C1040.41 225.411 1037.89 228.696 1035.76 230.744C1033.71 232.707 1031.41 233.688 1028.85 233.688C1026.29 233.688 1024.2 232.664 1022.58 230.616C1020.95 228.568 1020.14 226.008 1020.14 222.936C1020.14 216.963 1024.07 204.12 1031.92 184.408C1039.77 164.611 1047.83 147.203 1056.11 132.184L1061.74 135.256C1053.38 151.469 1045.83 167.597 1039.09 183.64C1032.35 199.597 1028.98 211.075 1028.98 218.072C1028.98 222.083 1030.47 224.088 1033.46 224.088C1035.84 224.088 1038.23 222.296 1040.62 218.712ZM1091.89 192.984C1094.1 196.653 1095.21 200.707 1095.21 205.144C1095.21 212.056 1092.82 218.243 1088.05 223.704C1083.27 229.08 1077.63 231.768 1071.15 231.768C1066.2 231.768 1062.32 230.36 1059.5 227.544C1056.77 224.643 1055.41 220.675 1055.41 215.64C1055.41 207.533 1058.56 200.28 1064.88 193.88C1071.19 187.395 1078.27 184.152 1086.12 184.152C1087.58 184.152 1088.6 184.195 1089.2 184.28L1089.58 188.504C1082.75 188.504 1077.08 190.467 1072.56 194.392C1068.03 198.317 1065.77 203.352 1065.77 209.496C1065.77 213.165 1066.67 216.152 1068.46 218.456C1070.25 220.675 1072.86 221.784 1076.27 221.784C1079.77 221.784 1082.54 220.248 1084.59 217.176C1086.64 214.104 1087.66 210.52 1087.66 206.424C1087.66 202.243 1086.85 198.445 1085.23 195.032L1091.89 192.984ZM1170.48 181.208L1174.07 184.536L1166.39 193.88C1157.34 205.059 1150.64 216.152 1146.29 227.16C1145.18 229.464 1144.03 230.616 1142.84 230.616C1141.73 230.616 1140.79 230.488 1140.02 230.232C1139.34 229.891 1138.53 228.781 1137.59 226.904C1136.73 225.027 1136.14 222.765 1135.8 220.12C1135.45 217.475 1135.16 215.213 1134.9 213.336C1134.64 211.459 1134.47 210.093 1134.39 209.24C1134.3 208.301 1134.17 207.363 1134 206.424C1133.92 205.4 1133.83 204.632 1133.75 204.12C1133.66 203.608 1133.58 203.096 1133.49 202.584C1133.41 202.072 1133.28 201.603 1133.11 201.176C1132.94 200.664 1132.81 200.237 1132.72 199.896C1132.64 199.469 1132.43 198.787 1132.08 197.848C1131.83 196.909 1131.61 196.099 1131.44 195.416C1127.01 200.195 1123.21 205.827 1120.05 212.312C1118.86 214.787 1116.51 219.736 1113.01 227.16C1112.24 228.781 1111.18 229.592 1109.81 229.592C1108.53 229.592 1107.47 229.464 1106.61 229.208C1105.84 228.867 1105.03 227.843 1104.18 226.136C1103.33 224.429 1102.69 221.869 1102.26 218.456C1100.21 201.304 1098.25 189.613 1096.37 183.384C1098.85 182.701 1101.32 182.36 1103.8 182.36C1104.22 183.128 1104.78 185.475 1105.46 189.4C1106.91 196.995 1108.75 205.912 1110.96 216.152C1115.15 208.131 1119.75 200.749 1124.79 194.008C1129.91 187.181 1133.28 183.768 1134.9 183.768C1136.78 183.768 1138.06 185.091 1138.74 187.736C1139.51 190.296 1140.15 194.648 1140.66 200.792C1141.26 206.851 1142.03 211.928 1142.96 216.024C1150.99 202.285 1160.16 190.68 1170.48 181.208Z" fill="white"/>
</g>
<g clip-path="url(#clip1_8_1722)">
<g filter="url(#filter1_d_8_1722)">
<path d="M1224.49 61.5861C1232.42 38.9191 1254.62 22.0681 1284.55 21.7571C1311.78 21.4741 1334.34 40.3121 1342.64 67.6251C1350.94 94.9381 1356.44 159.384 1383.96 207.144C1411.49 254.905 1407.93 309.564 1375.55 341.978C1373.28 346.87 1365.51 353.547 1365.51 353.547L1351.91 351.077C1351.91 351.077 1368.42 322.783 1364.86 291.434C1361.3 308.982 1348.02 334.503 1339.92 340.524C1331.5 351.078 1316.2 352.373 1306.85 350.43C1322.12 318.697 1331.05 290.995 1313.47 234.902C1317.9 263 1322.27 327.393 1295.15 347.493H1283.35C1283.35 347.493 1315.99 273.686 1285.37 200.504L1224.49 61.5861Z" fill="#3F3230"/>
<path opacity="0.5" d="M1337.48 196.808C1343.83 211.858 1353.44 234.602 1354.42 259.258L1355.39 259.22C1354.4 234.386 1344.76 211.545 1338.38 196.431C1337.84 195.164 1337.35 193.983 1336.87 192.846C1339.23 177.278 1337.95 163.047 1334.26 151.541C1334.26 151.541 1327.81 184.696 1317.51 198.671C1307.22 212.647 1306.66 207.506 1302.81 212.748C1299.5 217.256 1296.87 220.297 1292.24 220.485C1296.46 235.912 1299.45 258.815 1298.32 276.329L1316.7 283.365C1317.08 273.312 1316.01 256.236 1315.32 249.399L1313.47 234.901C1318.39 231.752 1321.53 227.627 1321.53 227.627C1321.53 227.627 1334.91 267.775 1334.26 294.875L1338.06 297.042C1338.06 297.042 1337.86 250.856 1328.75 221.228C1330.54 216.988 1332.05 212.783 1333.3 208.633C1334.3 211.677 1335.39 214.752 1336.52 217.897C1343.24 236.695 1351.27 265.135 1346.08 300.167L1347.04 300.31C1352.26 265.038 1344.2 236.475 1337.43 217.571C1336.14 213.961 1334.89 210.444 1333.79 206.966C1334.98 202.8 1335.9 198.695 1336.58 194.674C1336.87 195.367 1337.17 196.071 1337.48 196.808Z" fill="#352727"/>
<path d="M1347.18 87.8931C1347.18 87.8931 1347.33 88.9021 1347.62 90.7921C1347.93 92.6691 1348.29 95.4881 1348.91 98.9531C1349.25 100.661 1349.63 102.552 1350.04 104.609C1350.26 105.638 1350.45 106.712 1350.7 107.823C1350.98 108.932 1351.27 110.082 1351.56 111.269C1352.68 116.037 1354.23 121.347 1356.08 127.093C1357.99 132.818 1360.22 138.976 1362.96 145.353C1363.64 146.949 1364.33 148.565 1365.03 150.202C1365.78 151.819 1366.54 153.457 1367.3 155.112C1367.69 155.94 1368.07 156.772 1368.46 157.609C1368.87 158.436 1369.28 159.267 1369.69 160.103C1370.52 161.774 1371.36 163.46 1372.2 165.162C1375.68 171.92 1379.44 178.839 1383.36 185.833C1387.29 192.828 1391.33 199.931 1395.23 207.137C1399.14 214.333 1402.83 221.696 1406 229.16C1409.14 236.63 1411.82 244.203 1413.5 251.78C1415.19 259.352 1415.98 266.837 1416.08 273.936C1416.01 275.709 1415.95 277.459 1415.89 279.18C1415.85 280.04 1415.84 280.897 1415.77 281.741C1415.68 282.584 1415.58 283.42 1415.49 284.248C1415.3 285.903 1415.11 287.531 1414.93 289.128C1414.63 290.706 1414.33 292.256 1414.05 293.773C1413.9 294.531 1413.76 295.281 1413.62 296.022C1413.55 296.393 1413.47 296.761 1413.4 297.128C1413.32 297.491 1413.22 297.848 1413.12 298.205C1412.74 299.631 1412.37 301.022 1412.01 302.38C1411.83 303.059 1411.65 303.728 1411.47 304.389C1411.31 305.052 1411.13 305.7 1410.89 306.324C1410.47 307.582 1410.05 308.804 1409.64 309.987C1409.24 311.169 1408.85 312.314 1408.47 313.42C1408.1 314.527 1407.62 315.546 1407.22 316.551C1406.4 318.547 1405.64 320.38 1404.95 322.036C1403.49 325.308 1402.19 327.807 1401.38 329.544C1400.55 331.27 1400.1 332.19 1400.1 332.19L1399.23 331.754C1399.23 331.754 1399.63 330.818 1400.38 329.063C1401.11 327.298 1402.29 324.758 1403.58 321.45C1404.18 319.78 1404.85 317.932 1405.57 315.919C1405.92 314.907 1406.35 313.882 1406.66 312.771C1406.98 311.666 1407.32 310.518 1407.66 309.335C1408 308.152 1408.36 306.934 1408.72 305.678C1408.92 305.055 1409.07 304.409 1409.2 303.751C1409.34 303.095 1409.49 302.43 1409.64 301.757C1409.93 300.412 1410.23 299.034 1410.53 297.622C1410.61 297.27 1410.69 296.916 1410.76 296.558C1410.81 296.198 1410.86 295.834 1410.91 295.469C1411.02 294.74 1411.12 294.002 1411.23 293.257C1411.44 291.769 1411.66 290.251 1411.87 288.704C1411.98 287.146 1412.08 285.562 1412.19 283.949C1412.25 283.144 1412.3 282.333 1412.36 281.516C1412.38 280.698 1412.35 279.871 1412.35 279.039C1412.33 277.38 1412.31 275.695 1412.3 273.987C1411.88 267.167 1410.78 260.055 1408.83 252.9C1406.88 245.741 1403.97 238.598 1400.59 231.527C1397.19 224.456 1393.27 217.462 1389.08 210.547C1384.9 203.627 1380.56 196.746 1376.29 189.905C1372.02 183.056 1367.88 176.21 1364.01 169.463C1363.06 167.758 1362.12 166.067 1361.2 164.391C1360.73 163.552 1360.27 162.717 1359.81 161.887C1359.37 161.042 1358.93 160.201 1358.5 159.365C1357.63 157.692 1356.77 156.036 1355.92 154.4C1355.12 152.735 1354.32 151.089 1353.54 149.466C1350.4 142.972 1347.76 136.635 1345.48 130.713C1343.27 124.769 1341.38 119.24 1339.97 114.256C1339.6 113.014 1339.24 111.813 1338.9 110.652C1338.57 109.475 1338.31 108.303 1338.03 107.196C1337.48 104.968 1336.97 102.924 1336.52 101.076C1336.27 100.13 1336.12 99.3171 1335.97 98.5371C1335.81 97.7571 1335.66 97.0261 1335.53 96.3461C1335.26 94.9861 1335.02 93.8281 1334.84 92.8901C1334.46 91.0141 1334.26 90.0131 1334.26 90.0131L1347.18 87.8931Z" fill="#3F3230"/>
<path opacity="0.1" d="M1375.17 214.034C1373.13 210.782 1374.73 239.468 1376.76 256.739C1378.78 274.01 1375.22 320.732 1381.7 315.343C1388.17 309.953 1408.48 267.071 1375.17 214.034Z" fill="white"/>
<path opacity="0.1" d="M1364.37 219.178C1368.96 223.009 1369.23 181.172 1361.94 175.525C1354.66 169.877 1348.1 205.577 1364.37 219.178Z" fill="white"/>
<path d="M1290.37 213.617C1282.45 223.98 1275.97 240.332 1273.87 250.695C1271.76 261.057 1269.55 274.98 1291.22 279.676V355.287H1194.37V279.028C1194.37 279.028 1204.11 276.439 1210.65 273.2C1217.2 269.962 1222.55 266.886 1224.49 256.2C1226.43 245.514 1226.1 213.617 1226.1 213.617H1290.37Z" fill="#FFE3D1"/>
<path d="M1194.37 303.301L1236.87 296.475C1228.86 287.246 1231.32 274.09 1249.62 262.102L1223.78 259.239C1221.43 267.501 1216.53 270.295 1210.65 273.201C1206.66 275.181 1201.46 276.916 1198.03 277.968L1194.37 282.498V303.301Z" fill="#F4D2C9"/>
<path d="M1226.1 213.617C1226.1 213.617 1226.43 245.513 1224.49 256.2C1224.11 258.284 1223.6 260.072 1222.98 261.635C1225.47 266.345 1228.83 269.71 1233.39 269.638C1242.72 269.491 1263.01 254.151 1281.15 229.433C1283.8 223.688 1286.95 218.094 1290.37 213.618L1226.1 213.617Z" fill="#F4D2C9"/>
<path d="M1225.12 251.304C1224.49 261.25 1226.22 267.769 1238.46 264.625C1253.7 260.709 1266.11 244.922 1279.14 234.072C1282.13 226.769 1286.03 219.295 1290.37 213.617H1226.1C1226.1 213.617 1226.35 238.039 1225.12 251.304Z" fill="#292B2E"/>
<path d="M1290.37 213.617C1282.45 223.98 1275.97 240.332 1273.87 250.695C1271.76 261.057 1269.55 274.98 1291.22 279.676V355.287H1194.37V279.028C1194.37 279.028 1204.11 276.439 1210.65 273.2C1217.2 269.962 1222.55 266.886 1224.49 256.2C1226.43 245.514 1226.1 213.617 1226.1 213.617H1290.37Z" stroke="#292B2E" stroke-width="3" stroke-miterlimit="10"/>
<path d="M1264.19 48.9781C1252.9 34.6691 1227.3 27.6261 1217.39 29.0831C1207.48 30.5411 1191.59 45.6241 1194.73 71.3421H1243.67L1264.19 48.9781Z" fill="#090D0F" stroke="#292B2E" stroke-width="3" stroke-miterlimit="10" stroke-linecap="round" stroke-linejoin="round"/>
<path d="M1270.72 49.0992C1282.89 39.5272 1323.45 34.0632 1340.94 50.0912C1348.32 56.8582 1340.57 87.0062 1321.8 101.207L1278.49 78.4422L1270.72 49.0992Z" fill="#090D0F" stroke="#292B2E" stroke-width="3" stroke-miterlimit="10" stroke-linecap="round" stroke-linejoin="round"/>
<path d="M1314.61 48.0751C1312.32 47.6381 1304.83 47.8681 1301.88 48.5491C1298.93 49.2311 1296.58 52.4831 1293.78 53.6151C1291.99 54.3441 1286 56.5321 1281.73 57.8881C1281.92 55.0761 1281.38 51.9711 1279.75 48.5991L1269.93 50.7301L1269.91 73.8291C1273.13 72.3131 1277.5 68.9781 1279.93 64.2211C1290.94 66.5231 1311.28 73.2931 1316.06 75.2001C1321.57 77.3971 1317.88 74.2621 1316.19 72.6561C1314.5 71.0521 1308.08 67.1881 1305.24 66.1661C1302.39 65.1431 1298.66 66.608 1295.69 66.048C1293.36 65.609 1284.62 63.6191 1280.74 62.3951C1281.04 61.5921 1281.29 60.7671 1281.47 59.8941C1292.4 55.9871 1311.11 51.2151 1315.87 50.2881C1321.69 49.1521 1316.9 48.5121 1314.61 48.0751Z" fill="#292B2E"/>
<path d="M1222.28 35.6762C1224.59 35.9542 1231.66 38.4472 1234.26 39.9902C1236.86 41.5352 1238.11 45.3452 1240.43 47.2742C1241.92 48.5132 1246.96 52.4182 1250.62 55.0062C1251.29 52.2702 1252.75 49.4742 1255.32 46.7552L1264.03 51.7682L1257.04 73.7842C1254.43 71.3612 1251.28 66.8582 1250.41 61.5852C1239.22 60.4382 1217.79 60.7142 1212.65 61.0792C1206.73 61.4992 1211.2 59.6322 1213.3 58.6152C1215.39 57.5982 1222.68 55.8672 1225.71 55.7572C1228.73 55.6482 1231.84 58.1772 1234.84 58.5432C1237.19 58.8302 1246.13 59.5902 1250.19 59.6022C1250.15 58.7462 1250.16 57.8822 1250.26 56.9982C1241.03 49.9572 1224.65 39.7302 1220.4 37.4002C1215.2 34.5502 1219.96 35.3962 1222.28 35.6762Z" fill="#292B2E"/>
<path d="M1261.75 47.7432C1260.38 46.0062 1258.79 44.3792 1257.05 42.8582C1256.98 42.8722 1245.74 45.0802 1240.25 53.5522L1252.9 57.3782L1261.75 47.7432Z" fill="#292B2E"/>
<path d="M1277.81 62.7742L1287.8 61.9082C1287.8 61.9082 1284.03 51.9122 1276.94 46.3462C1275.83 46.9702 1274.82 47.6172 1273.97 48.2852L1277.81 62.7742Z" fill="#292B2E"/>
<path d="M1276.54 55.8522C1275.56 62.6902 1268.37 68.2332 1260.49 68.2332C1252.61 68.2332 1247.02 62.6902 1248.01 55.8522C1248.99 49.0142 1256.18 43.4712 1264.06 43.4712C1271.94 43.4712 1277.53 49.0142 1276.54 55.8522Z" fill="black" stroke="#292B2E" stroke-width="3" stroke-miterlimit="10" stroke-linecap="round" stroke-linejoin="round"/>
<path d="M1172.94 168.784C1171.06 169.579 1168.1 171.683 1168.45 177.674C1168.79 183.665 1172.89 191.194 1172.94 192.044C1173 192.894 1172.08 197.912 1172.94 200.503C1173.81 203.094 1176.56 207.587 1180.85 208.255H1190.31V168.784H1172.94Z" fill="#FFE3D1"/>
<path d="M1168.45 177.674C1168.79 183.665 1172.89 191.194 1172.94 192.044C1172.96 192.272 1172.9 192.803 1172.83 193.5C1176.66 192.067 1182.33 191.289 1190.31 193.094V168.784H1172.94C1171.06 169.579 1168.1 171.684 1168.45 177.674Z" fill="#F4D2C9"/>
<path d="M1172.94 168.784C1171.06 169.579 1168.1 171.683 1168.45 177.674C1168.79 183.665 1172.89 191.194 1172.94 192.044C1173 192.894 1172.08 197.912 1172.94 200.503C1173.81 203.094 1176.56 207.587 1180.85 208.255H1190.31V168.784H1172.94Z" stroke="#292B2E" stroke-width="3" stroke-miterlimit="10"/>
<path d="M1180.23 190.465C1179.98 194.473 1176.26 204.641 1179.26 211.109C1186.78 227.38 1207.31 249.238 1226.25 249.238C1237.18 249.238 1278.59 240.981 1290.49 213.781C1290.49 213.781 1302.14 206.859 1307.24 192.166C1312.34 177.473 1332.14 136.551 1304.94 99.3932C1277.74 62.2362 1216.53 60.7792 1184.23 89.1932C1151.93 117.606 1167.48 170.551 1180.23 190.465Z" fill="#FFE3D1"/>
<path d="M1305.8 100.607L1274.2 75.9422C1244.64 63.9232 1207.16 69.0212 1184.23 89.1912C1153.55 116.182 1166.04 165.302 1178.29 187.226C1180.28 188.207 1181.99 189.027 1182.58 189.258C1184.34 189.942 1213.25 173.833 1219.25 173.75C1225.25 173.667 1229.75 177.116 1233.41 179.142C1237.08 181.167 1240.34 183.107 1255.91 180.406C1271.49 177.705 1290.58 186.987 1298.08 177.994C1303.04 172.041 1312.14 145.781 1317.72 128.703C1316 119.435 1312.35 109.914 1305.8 100.607Z" fill="#F4D2C9"/>
<path d="M1180.23 190.465C1179.98 194.473 1176.26 204.641 1179.26 211.109C1186.78 227.38 1207.31 249.238 1226.25 249.238C1237.18 249.238 1278.59 240.981 1290.49 213.781C1290.49 213.781 1302.14 206.859 1307.24 192.166C1312.34 177.473 1332.14 136.551 1304.94 99.3932C1277.74 62.2362 1216.53 60.7792 1184.23 89.1932C1151.93 117.606 1167.48 170.551 1180.23 190.465Z" stroke="#292B2E" stroke-width="3" stroke-miterlimit="10"/>
<path d="M1299.89 169.943L1316.77 196.118C1325.52 183.544 1337.29 154.886 1337.05 126.835C1336.81 98.7851 1316.58 73.8641 1292.24 59.6841C1264.11 43.2911 1200.59 41.2501 1176.12 86.0351L1272.33 112.264L1299.89 169.943Z" fill="#3F3230"/>
<path opacity="0.5" d="M1330.37 99.344C1330.01 105.854 1327.51 114.56 1321.67 123.168C1315.56 95.87 1289.21 77.656 1276.66 75.072L1314.21 132.101C1308.1 138.129 1299.97 143.677 1289.33 147.844L1299.89 169.943L1316.77 196.118C1325.52 183.544 1337.29 154.886 1337.05 126.835C1336.97 117.198 1334.52 107.932 1330.37 99.344Z" fill="#352727"/>
<path d="M1328.02 131.49C1331.26 123.95 1333.41 116.956 1334.83 111.179C1334.66 110.55 1334.48 109.923 1334.29 109.299C1332.89 115.32 1330.66 122.881 1327.13 131.107C1322.14 142.714 1313.81 157.184 1300.19 170.41L1300.73 171.244C1314.54 157.876 1322.98 143.231 1328.02 131.49Z" fill="#292B2E"/>
<path d="M1337.02 125.719C1336.98 124.458 1336.91 123.204 1336.8 121.957C1333.71 137.678 1326.65 164.599 1311.77 188.362L1312.35 189.258C1326.38 166.986 1333.56 141.907 1337.02 125.719Z" fill="#292B2E"/>
<path d="M1187.48 193.316C1187.48 193.316 1187.4 193.423 1187.27 193.586C1187.15 193.745 1186.98 193.963 1186.82 194.205C1186.51 194.666 1186.2 195.125 1186.2 195.125C1186.15 195.203 1186.17 195.307 1186.26 195.352C1186.32 195.388 1186.39 195.384 1186.45 195.352L1186.47 195.339C1186.47 195.339 1186.95 195.062 1187.42 194.786C1187.65 194.649 1187.89 194.523 1188.09 194.428C1188.28 194.332 1188.4 194.269 1188.4 194.269C1188.75 194.097 1188.88 193.7 1188.69 193.382C1188.5 193.066 1188.07 192.947 1187.72 193.118C1187.63 193.168 1187.54 193.239 1187.48 193.316Z" fill="#1D1E21"/>
<path d="M1189.81 194.344C1189.81 194.344 1189.72 194.451 1189.6 194.612C1189.47 194.77 1189.3 194.987 1189.14 195.227C1188.82 195.686 1188.51 196.143 1188.51 196.143C1188.45 196.222 1188.48 196.324 1188.56 196.372C1188.62 196.408 1188.7 196.405 1188.75 196.373L1188.78 196.36C1188.78 196.36 1189.26 196.087 1189.73 195.814C1189.96 195.68 1190.21 195.556 1190.4 195.461C1190.59 195.367 1190.72 195.305 1190.72 195.305C1191.06 195.135 1191.2 194.739 1191.01 194.42C1190.83 194.102 1190.4 193.981 1190.05 194.15C1189.96 194.197 1189.87 194.268 1189.81 194.344Z" fill="#1D1E21"/>
<path d="M1186.02 191.967C1186.02 191.967 1185.89 192.025 1185.7 192.115C1185.51 192.203 1185.25 192.324 1184.99 192.47C1184.48 192.746 1183.97 193.021 1183.97 193.021C1183.89 193.069 1183.86 193.17 1183.91 193.248C1183.94 193.305 1184.01 193.333 1184.08 193.328L1184.11 193.326C1184.11 193.326 1184.67 193.284 1185.23 193.241C1185.49 193.216 1185.78 193.21 1186 193.208C1186.21 193.203 1186.36 193.2 1186.36 193.2C1186.75 193.195 1187.06 192.897 1187.06 192.536C1187.05 192.176 1186.73 191.888 1186.33 191.893C1186.23 191.895 1186.11 191.922 1186.02 191.967Z" fill="#1D1E21"/>
<path d="M1178.59 175.524L1181.5 185.41C1183.2 188.649 1187.34 195.676 1194.35 196.238C1201.36 196.802 1205.24 192.817 1205.91 190.468C1206.58 188.12 1206.78 174.55 1201.72 168.767C1196.66 162.983 1183.99 159.888 1178.59 175.524Z" fill="white"/>
<path d="M1192.55 178.149C1198.92 177.78 1203.07 183.511 1205.18 191.935C1205.54 191.417 1205.78 190.913 1205.91 190.468C1206.58 188.12 1206.78 174.55 1201.72 168.767C1196.66 162.983 1183.99 159.887 1178.59 175.524L1181.5 185.41C1181.5 185.41 1184.83 178.597 1192.55 178.149Z" fill="#D1D1D1"/>
<path d="M1195.95 167.145C1191.57 167.145 1187.88 171.257 1186.7 176.887C1186.44 178.112 1186.3 179.406 1186.3 180.748C1186.3 188.26 1190.62 194.351 1195.95 194.351C1199.93 194.351 1203.35 190.944 1204.82 186.083C1205.32 184.444 1205.59 182.642 1205.59 180.748C1205.59 173.235 1201.28 167.145 1195.95 167.145Z" fill="#292B2E"/>
<path opacity="0.4" d="M1205.59 180.748C1205.59 173.235 1201.28 167.144 1195.95 167.144C1191.57 167.144 1187.88 171.256 1186.7 176.886C1187.69 176.462 1188.83 176.159 1190.07 176.021C1189.61 177.439 1189.34 179.042 1189.34 180.748C1189.34 186.488 1192.3 191.142 1195.95 191.142C1199.38 191.142 1202.21 187.003 1202.52 181.716C1202.52 181.714 1202.52 181.714 1202.52 181.712C1203.39 182.936 1204.18 184.38 1204.82 186.083C1205.32 184.444 1205.59 182.642 1205.59 180.748Z" fill="#292B2E"/>
<path opacity="0.8" d="M1205.59 180.748C1205.59 175.49 1203.48 170.939 1200.38 168.674C1199.81 168.3 1199.22 167.963 1198.59 167.677C1197.75 167.338 1196.87 167.145 1195.95 167.145C1193.65 167.145 1191.55 168.284 1189.9 170.17C1190.59 170.02 1191.32 169.927 1192.08 169.92C1202.47 169.814 1204.93 181.353 1204.98 184.515C1204.98 184.871 1204.98 185.21 1204.97 185.536C1205.36 184.044 1205.59 182.436 1205.59 180.748Z" fill="#292B2E"/>
<path d="M1200.39 180.115C1197.97 181.248 1197.15 182.166 1196.15 184.903C1195.14 182.166 1194.33 181.248 1191.9 180.115C1194.33 178.98 1195.14 178.061 1196.15 175.324C1197.15 178.061 1197.97 178.98 1200.39 180.115Z" fill="white" stroke="white" stroke-width="2" stroke-miterlimit="10" stroke-linecap="round" stroke-linejoin="round"/>
<path d="M1192.65 173.751C1192.65 175.111 1191.95 176.215 1191.09 176.215C1190.22 176.215 1189.52 175.111 1189.52 173.751C1189.52 172.391 1190.22 171.287 1191.09 171.287C1191.95 171.287 1192.65 172.391 1192.65 173.751Z" fill="white"/>
<path d="M1200.51 191.413C1200.51 193.066 1199.66 194.407 1198.6 194.407C1197.55 194.407 1196.7 193.066 1196.7 191.413C1196.7 189.76 1197.55 188.419 1198.6 188.419C1199.66 188.419 1200.51 189.76 1200.51 191.413Z" fill="white"/>
<path d="M1186.52 190.083C1188.98 188.334 1192.17 182.38 1191.62 181.515C1191.07 180.648 1186.56 180.701 1184.15 182.874C1184.15 182.874 1183.42 187.008 1186.52 190.083Z" fill="white"/>
<path d="M1194.73 162.386C1191.71 161.891 1188.88 162.315 1186.32 163.421C1186.02 163.449 1185.69 163.473 1185.34 163.465C1184.87 163.469 1184.4 163.413 1183.92 163.336C1183.69 163.274 1183.44 163.237 1183.23 163.158C1183.01 163.078 1182.78 163.016 1182.59 162.91C1182.39 162.812 1182.19 162.721 1182.03 162.597C1181.86 162.482 1181.68 162.38 1181.56 162.249C1181.43 162.124 1181.31 162.011 1181.2 161.91C1181.11 161.791 1181.03 161.689 1180.96 161.604C1180.83 161.431 1180.75 161.333 1180.75 161.333L1180.73 161.306C1180.59 161.13 1180.32 161.089 1180.13 161.216C1179.99 161.308 1179.93 161.464 1179.96 161.609C1179.96 161.609 1179.99 161.752 1180.04 162C1180.07 162.127 1180.11 162.283 1180.15 162.461C1180.22 162.635 1180.29 162.83 1180.38 163.043C1180.46 163.27 1180.61 163.481 1180.75 163.719C1180.89 163.968 1181.08 164.192 1181.29 164.43C1181.49 164.682 1181.74 164.884 1181.99 165.116C1182.19 165.302 1182.42 165.457 1182.65 165.62C1182.14 166.018 1181.65 166.443 1181.17 166.896C1181.03 166.925 1180.88 166.957 1180.72 166.978C1180.26 167.053 1179.78 167.074 1179.3 167.072C1179.07 167.046 1178.81 167.048 1178.59 167.003C1178.36 166.957 1178.12 166.934 1177.91 166.857C1177.7 166.793 1177.48 166.734 1177.3 166.636C1177.12 166.548 1176.92 166.476 1176.78 166.366C1176.63 166.263 1176.48 166.171 1176.36 166.087C1176.25 165.986 1176.15 165.899 1176.07 165.823C1175.9 165.674 1175.81 165.589 1175.81 165.589L1175.78 165.566C1175.62 165.414 1175.34 165.415 1175.18 165.57C1175.06 165.681 1175.03 165.845 1175.08 165.984C1175.08 165.984 1175.14 166.12 1175.23 166.355C1175.29 166.477 1175.35 166.625 1175.42 166.794C1175.52 166.954 1175.63 167.136 1175.76 167.332C1175.88 167.543 1176.06 167.727 1176.25 167.94C1176.43 168.163 1176.66 168.353 1176.91 168.555C1177.15 168.775 1177.43 168.936 1177.72 169.124C1178.01 169.311 1178.33 169.443 1178.65 169.607C1178.68 169.622 1178.72 169.634 1178.76 169.649C1178.61 169.843 1178.48 170.041 1178.34 170.241C1178.04 170.366 1177.73 170.478 1177.41 170.577C1177.18 170.62 1176.94 170.697 1176.71 170.721C1176.48 170.743 1176.24 170.792 1176.02 170.778C1175.79 170.78 1175.57 170.788 1175.37 170.749C1175.16 170.718 1174.95 170.708 1174.78 170.645C1174.6 170.594 1174.43 170.548 1174.28 170.505C1174.14 170.441 1174.02 170.385 1173.92 170.339C1173.71 170.246 1173.59 170.193 1173.59 170.193L1173.56 170.177C1173.35 170.081 1173.09 170.161 1172.98 170.358C1172.91 170.5 1172.94 170.664 1173.04 170.777C1173.04 170.777 1173.14 170.891 1173.31 171.088C1173.4 171.188 1173.51 171.309 1173.64 171.449C1173.79 171.57 1173.96 171.71 1174.14 171.86C1174.33 172.025 1174.57 172.146 1174.82 172.294C1175.07 172.451 1175.35 172.563 1175.66 172.685C1175.96 172.822 1176.29 172.893 1176.63 172.986C1176.65 172.993 1176.68 172.996 1176.7 173.003C1175.95 174.472 1175.33 176.032 1174.87 177.651C1176.57 182.732 1181.5 185.414 1181.5 185.414C1181.5 185.414 1181.02 183.563 1180.35 179.996C1180.41 176.665 1183.21 164.981 1194.36 166.426C1199.47 167.087 1206.4 176.367 1205.85 190.663C1211.56 173.308 1200.26 163.294 1194.73 162.386Z" fill="#1D1E21"/>
<path d="M1204.57 162.398C1204.57 162.398 1191.17 150.661 1176.12 156.32C1180.74 152.894 1190.18 151.481 1197.49 154.309C1204.79 157.14 1204.62 159.395 1204.57 162.398Z" fill="#1D1E21"/>
<path d="M1185.63 191.213C1185.63 191.213 1185.81 191.401 1186.13 191.734C1186.28 191.913 1186.49 192.08 1186.72 192.29C1186.94 192.502 1187.23 192.714 1187.53 192.958C1187.82 193.206 1188.19 193.422 1188.55 193.678C1188.94 193.89 1189.33 194.155 1189.77 194.366C1190.2 194.602 1190.66 194.795 1191.14 194.99C1191.62 195.161 1192.12 195.342 1192.62 195.469C1193.13 195.622 1193.64 195.719 1194.15 195.809C1194.66 195.877 1195.17 195.946 1195.67 195.95C1195.91 195.951 1196.16 195.958 1196.4 195.968C1196.63 195.968 1196.87 195.945 1197.09 195.935C1197.55 195.926 1197.97 195.842 1198.36 195.785C1198.76 195.739 1199.11 195.623 1199.43 195.559C1199.75 195.495 1200.01 195.402 1200.23 195.323C1200.68 195.177 1200.93 195.095 1200.93 195.095L1200.95 195.088C1201.04 195.059 1201.14 195.102 1201.17 195.185C1201.2 195.26 1201.17 195.342 1201.09 195.378C1201.09 195.378 1200.85 195.5 1200.42 195.713C1200.2 195.82 1199.94 195.948 1199.61 196.051C1199.29 196.153 1198.94 196.324 1198.52 196.396C1198.11 196.487 1197.66 196.607 1197.18 196.65C1196.7 196.724 1196.18 196.763 1195.65 196.755C1195.12 196.763 1194.57 196.705 1194.01 196.645C1193.46 196.562 1192.9 196.47 1192.35 196.319C1191.8 196.203 1191.28 195.974 1190.76 195.786C1190.26 195.566 1189.76 195.348 1189.32 195.088C1188.84 194.859 1188.45 194.557 1188.05 194.297C1187.69 194 1187.32 193.744 1187.03 193.459C1186.73 193.183 1186.46 192.935 1186.25 192.673C1186.04 192.42 1185.84 192.208 1185.72 192.02C1185.46 191.647 1185.31 191.434 1185.31 191.434C1185.26 191.347 1185.28 191.235 1185.38 191.181C1185.46 191.129 1185.57 191.145 1185.63 191.213Z" fill="#1D1E21"/>
<path d="M1190.3 159.709C1190.3 159.709 1190.39 159.696 1190.59 159.686C1190.78 159.673 1191.05 159.66 1191.4 159.666C1191.75 159.669 1192.17 159.691 1192.66 159.727C1193.14 159.772 1193.69 159.826 1194.28 159.953C1194.87 160.047 1195.49 160.229 1196.16 160.399C1196.81 160.613 1197.51 160.818 1198.18 161.141C1198.52 161.298 1198.86 161.456 1199.21 161.618C1199.55 161.792 1199.87 162.005 1200.21 162.201C1200.89 162.575 1201.5 163.074 1202.12 163.547C1202.73 164.032 1203.26 164.605 1203.81 165.123C1204.29 165.708 1204.75 166.283 1205.2 166.841C1205.58 167.438 1205.92 168.029 1206.25 168.58C1206.57 169.137 1206.78 169.706 1207.02 170.207C1207.25 170.712 1207.45 171.179 1207.55 171.615C1207.67 172.042 1207.78 172.416 1207.87 172.722C1208.03 173.336 1208.12 173.687 1208.12 173.687C1208.16 173.816 1208.07 173.945 1207.93 173.976C1207.81 174.005 1207.68 173.945 1207.63 173.837L1207.62 173.814C1207.62 173.814 1207.47 173.487 1207.2 172.915C1207.08 172.63 1206.93 172.282 1206.75 171.883C1206.6 171.478 1206.33 171.058 1206.08 170.589C1205.81 170.127 1205.57 169.6 1205.22 169.095C1204.87 168.594 1204.48 168.075 1204.11 167.525C1203.67 167.022 1203.22 166.504 1202.75 165.976C1202.22 165.507 1201.74 164.984 1201.16 164.544C1200.58 164.125 1200.04 163.643 1199.41 163.298C1199.1 163.114 1198.8 162.919 1198.5 162.746C1198.18 162.586 1197.87 162.429 1197.56 162.272C1197.26 162.105 1196.95 161.98 1196.64 161.858C1196.33 161.731 1196.04 161.589 1195.73 161.481C1195.13 161.28 1194.56 161.063 1194.01 160.936C1192.93 160.645 1192 160.46 1191.34 160.373C1191.01 160.332 1190.76 160.292 1190.59 160.279C1190.41 160.258 1190.31 160.256 1190.31 160.256C1190.15 160.252 1190.02 160.125 1190.02 159.975C1190.03 159.84 1190.14 159.731 1190.28 159.711L1190.3 159.709Z" fill="#292B2E"/>
<path d="M1258.83 205.684C1258.79 205.632 1258.72 205.606 1258.65 205.621C1258.55 205.644 1258.48 205.745 1258.51 205.847L1259.17 208.705C1259.2 208.838 1259.26 208.97 1259.36 209.081C1259.67 209.46 1260.24 209.508 1260.62 209.188C1261 208.869 1261.04 208.303 1260.72 207.925L1258.83 205.684Z" fill="#292B2E"/>
<path d="M1263.23 205.319C1263.18 205.267 1263.11 205.241 1263.04 205.256C1262.94 205.279 1262.88 205.38 1262.9 205.482L1263.56 208.34C1263.59 208.473 1263.65 208.605 1263.75 208.716C1264.06 209.095 1264.63 209.143 1265.01 208.823C1265.39 208.504 1265.44 207.938 1265.12 207.56L1263.23 205.319Z" fill="#292B2E"/>
<path d="M1269.51 207.197L1267.62 204.955C1267.57 204.903 1267.5 204.877 1267.43 204.892C1267.33 204.915 1267.27 205.016 1267.29 205.118L1267.95 207.976C1267.98 208.109 1268.04 208.241 1268.14 208.352C1268.45 208.73 1269.02 208.779 1269.4 208.46C1269.78 208.141 1269.83 207.575 1269.51 207.197Z" fill="#292B2E"/>
<path d="M1198.76 205.684C1198.81 205.632 1198.88 205.606 1198.95 205.621C1199.05 205.644 1199.11 205.745 1199.09 205.847L1198.43 208.705C1198.4 208.838 1198.34 208.97 1198.24 209.081C1197.92 209.46 1197.36 209.508 1196.98 209.188C1196.6 208.869 1196.55 208.303 1196.87 207.925L1198.76 205.684Z" fill="#292B2E"/>
<path d="M1194.37 205.319C1194.41 205.267 1194.49 205.241 1194.56 205.256C1194.66 205.279 1194.72 205.38 1194.7 205.482L1194.04 208.34C1194.01 208.473 1193.94 208.605 1193.85 208.716C1193.53 209.095 1192.97 209.143 1192.59 208.823C1192.21 208.504 1192.16 207.938 1192.48 207.56L1194.37 205.319Z" fill="#292B2E"/>
<path d="M1188.09 207.197L1189.98 204.955C1190.02 204.903 1190.1 204.877 1190.17 204.892C1190.27 204.915 1190.33 205.016 1190.31 205.118L1189.65 207.976C1189.62 208.109 1189.56 208.241 1189.46 208.352C1189.14 208.73 1188.58 208.779 1188.2 208.46C1187.82 208.141 1187.77 207.575 1188.09 207.197Z" fill="#292B2E"/>
<path d="M1211.54 207.764C1211.54 207.764 1211.68 207.957 1211.91 208.205C1212.14 208.458 1212.43 208.789 1212.75 209.088C1212.91 209.238 1213.07 209.396 1213.22 209.527C1213.37 209.636 1213.51 209.739 1213.64 209.827C1213.87 209.997 1214.03 210.111 1214.03 210.111L1214.16 210.209C1214.71 210.607 1214.83 211.376 1214.43 211.924C1214.04 212.474 1213.27 212.595 1212.72 212.195C1212.59 212.103 1212.48 211.988 1212.41 211.864C1212.41 211.864 1212.26 211.634 1212.04 211.288C1211.93 211.118 1211.81 210.919 1211.68 210.705C1211.57 210.492 1211.47 210.262 1211.37 210.036C1211.16 209.591 1210.99 209.126 1210.87 208.782C1210.74 208.438 1210.68 208.219 1210.68 208.221L1210.67 208.185C1210.6 207.923 1210.76 207.655 1211.02 207.584C1211.22 207.531 1211.42 207.608 1211.54 207.764Z" fill="#292B2E"/>
<path d="M1222.35 111.324C1222.35 111.324 1222.28 111.53 1222.16 111.917C1222.04 112.316 1221.87 112.913 1221.68 113.686C1221.28 115.229 1220.81 117.472 1220.45 120.203C1220.08 122.932 1219.85 126.151 1219.9 129.602C1219.95 131.325 1220.02 133.11 1220.23 134.912C1220.4 136.718 1220.7 138.536 1221.04 140.348C1221.43 142.15 1221.86 143.945 1222.4 145.678C1222.68 146.544 1222.94 147.407 1223.26 148.237C1223.56 149.076 1223.87 149.902 1224.22 150.694C1224.55 151.494 1224.88 152.28 1225.26 153.024C1225.62 153.775 1225.96 154.52 1226.36 155.21C1227.09 156.623 1227.89 157.901 1228.62 159.084C1229.4 160.235 1230.1 161.304 1230.79 162.2C1231.49 163.089 1232.06 163.899 1232.6 164.507C1233.66 165.742 1234.26 166.449 1234.26 166.449L1233.55 167.113C1233.55 167.113 1232.91 166.417 1231.79 165.199C1231.22 164.599 1230.61 163.796 1229.86 162.915C1229.13 162.023 1228.37 160.959 1227.54 159.809C1226.74 158.627 1225.88 157.344 1225.08 155.921C1224.64 155.227 1224.27 154.474 1223.87 153.716C1223.46 152.963 1223.09 152.168 1222.71 151.356C1222.32 150.553 1221.98 149.713 1221.64 148.859C1221.27 148.013 1220.97 147.132 1220.66 146.248C1220.03 144.478 1219.52 142.638 1219.06 140.786C1218.63 138.925 1218.26 137.05 1218.01 135.184C1217.73 133.324 1217.59 131.476 1217.48 129.687C1217.3 126.105 1217.42 122.749 1217.7 119.889C1217.98 117.029 1218.39 114.66 1218.75 113.006C1218.92 112.179 1219.09 111.529 1219.2 111.081C1219.33 110.626 1219.4 110.383 1219.4 110.383L1222.35 111.324Z" fill="#352727"/>
<path d="M1290.37 214.034C1293.2 213.051 1298.86 214.75 1302.1 211.269C1305.34 207.789 1305.34 207.14 1308.01 205.441C1310.68 203.741 1319.59 197.265 1319.83 189.979C1320.07 182.693 1315.38 169.092 1310.93 168.768C1306.47 168.445 1300.48 171.358 1296.84 175.082L1290.37 214.034Z" fill="#FFE3D1"/>
<path d="M1290.37 214.034C1293.2 213.051 1298.86 214.75 1302.1 211.269C1305.34 207.789 1305.34 207.14 1308.01 205.441C1310.68 203.741 1319.59 197.265 1319.83 189.979C1320.07 182.693 1315.38 169.092 1310.93 168.768C1306.47 168.445 1300.48 171.358 1296.84 175.082" stroke="#292B2E" stroke-width="3" stroke-miterlimit="10"/>
<path d="M1310.89 194.567C1310.89 194.567 1310.77 194.721 1310.57 195.012C1310.36 195.299 1310.05 195.727 1309.65 196.244C1309.25 196.77 1308.76 197.397 1308.17 198.04C1307.89 198.394 1307.52 198.645 1307.2 198.988C1307.02 199.109 1306.84 199.231 1306.65 199.359L1306.51 199.455L1306.51 199.456L1306.41 199.496L1306.02 199.666C1305.7 199.83 1305.6 199.753 1305.42 199.813C1305.24 199.83 1305.01 199.825 1304.77 199.791C1304.48 199.763 1304.13 199.638 1303.69 199.521C1304.98 198.885 1306.13 198.059 1306.62 197.383C1307.29 196.466 1308.43 195.625 1308.08 192.773C1307.73 189.921 1305.34 187.463 1304.51 186.785C1303.68 186.109 1303.38 185.693 1303.82 185.173C1304.09 184.905 1304.38 184.713 1304.51 184.693C1304.53 184.677 1304.53 184.694 1304.55 184.686L1304.55 184.681L1304.59 184.685L1305.01 184.723C1305.18 184.728 1305.2 184.777 1305.29 184.796C1305.36 184.821 1305.44 184.843 1305.52 184.857C1305.69 184.96 1305.87 185.037 1306.04 185.128C1306.21 185.249 1306.38 185.366 1306.54 185.48C1307.15 186.014 1307.68 186.584 1308.08 187.094C1308.5 187.59 1308.81 188.01 1309.02 188.299C1309.24 188.582 1309.36 188.733 1309.36 188.733L1309.38 188.756C1309.51 188.921 1309.74 188.988 1309.94 188.908C1310.19 188.808 1310.32 188.525 1310.22 188.274C1310.22 188.274 1310.14 188.088 1310.01 187.741C1309.86 187.398 1309.66 186.888 1309.31 186.264C1308.98 185.638 1308.5 184.897 1307.76 184.12C1307.55 183.94 1307.34 183.754 1307.11 183.562C1306.86 183.39 1306.58 183.23 1306.3 183.072C1305.97 182.952 1305.53 182.791 1305.24 182.748L1304.82 182.692L1304.72 182.677L1304.69 182.673C1304.49 182.659 1304.62 182.67 1304.57 182.667H1304.55L1304.45 182.673C1304.32 182.685 1304.17 182.689 1304.06 182.724C1303.08 182.979 1302.56 183.536 1302.06 184.056C1301.58 184.598 1301.17 185.183 1300.82 185.811C1300.63 186.129 1300.47 186.438 1300.3 186.795L1300.09 187.279L1299.88 187.922C1299.64 188.769 1299.64 189.718 1299.85 190.549C1300.04 191.403 1300.38 192.156 1300.78 192.875L1301.08 193.413L1301.38 193.891L1301.53 194.131C1301.57 194.203 1301.56 194.206 1301.58 194.242C1301.61 194.275 1301.61 194.292 1301.6 194.301C1301.6 194.312 1301.63 194.326 1301.61 194.33C1301.69 194.319 1301.31 194.844 1300.74 195.179C1300.19 195.546 1299.53 195.875 1298.83 196.228L1298.27 196.52L1298.01 196.669L1297.89 196.742C1297.8 196.797 1297.76 196.824 1297.7 196.867C1297.24 197.181 1296.91 197.538 1296.63 197.903C1296.06 198.637 1295.67 199.413 1295.39 200.279C1295.26 200.713 1295.15 201.169 1295.16 201.752C1295.15 201.881 1295.19 202.075 1295.22 202.232C1295.23 202.389 1295.41 202.785 1295.53 202.934L1295.62 203.044L1295.64 203.07C1295.53 202.957 1295.8 203.239 1295.79 203.223L1295.84 203.254C1295.9 203.297 1295.96 203.338 1296.03 203.375C1296.32 203.544 1296.52 203.557 1296.74 203.583C1297.5 203.603 1297.86 203.404 1298.28 203.265C1298.67 203.11 1299.02 202.938 1299.36 202.769C1300 202.435 1300.63 202.105 1301.25 201.784L1301.68 201.576C1301.83 201.511 1301.89 201.481 1302.05 201.423C1302.25 201.348 1302.26 201.367 1302.36 201.358C1302.44 201.339 1302.52 201.326 1302.64 201.353C1303.08 201.379 1303.71 201.65 1304.49 201.751C1304.87 201.799 1305.27 201.814 1305.68 201.762C1306.08 201.685 1306.59 201.583 1306.79 201.458L1307.18 201.282L1307.28 201.24L1307.33 201.217L1307.44 201.161L1307.47 201.143L1307.67 200.995C1307.94 200.797 1308.19 200.603 1308.44 200.415C1308.84 199.991 1309.26 199.599 1309.54 199.186C1309.85 198.788 1310.11 198.402 1310.33 198.032C1310.56 197.674 1310.74 197.33 1310.9 197.015C1311.22 196.393 1311.41 195.881 1311.56 195.533C1311.7 195.178 1311.76 194.994 1311.76 194.994L1311.76 194.985C1311.81 194.792 1311.75 194.572 1311.57 194.447C1311.35 194.297 1311.04 194.346 1310.89 194.567Z" fill="#292B2E"/>
<path d="M1314.68 182.03C1314.6 181.534 1314.47 181.004 1314.27 180.451C1314.17 180.173 1314.08 179.887 1313.98 179.594C1313.85 179.309 1313.69 179.026 1313.55 178.731C1313.41 178.437 1313.26 178.139 1313.04 177.863C1312.83 177.586 1312.66 177.279 1312.41 177.02C1312.15 176.763 1311.92 176.495 1311.62 176.248C1311.32 176.028 1310.95 175.72 1310.69 175.592L1310.27 175.358C1309.98 175.22 1309.83 175.194 1309.6 175.115C1309.41 175.034 1309.16 175.029 1308.94 175.003C1308.71 174.969 1308.48 174.989 1308.24 175.03C1307.29 175.165 1306.46 175.799 1306.04 176.624C1305.94 176.838 1305.83 177.101 1305.79 177.28L1305.7 177.711L1305.67 177.924V178.07L1305.67 178.361C1305.68 178.55 1305.67 178.753 1305.73 178.916C1305.88 179.611 1306.12 180.193 1306.42 180.643C1306.7 181.12 1307.01 181.479 1307.29 181.792C1307.56 182.106 1307.83 182.351 1308.05 182.551C1308.49 182.937 1308.76 183.117 1308.76 183.117L1308.79 183.136C1308.94 183.238 1309.14 183.25 1309.31 183.153C1309.55 183.016 1309.63 182.714 1309.49 182.477C1309.49 182.477 1309.33 182.198 1309.04 181.71C1308.9 181.48 1308.74 181.193 1308.56 180.872C1308.52 180.807 1308.49 180.731 1308.45 180.663C1308.06 179.771 1308.49 178.875 1309.53 178.896C1310.53 178.916 1312.21 179.947 1312.8 181.195C1313 181.607 1313.13 182.025 1313.27 182.416C1313.4 182.855 1313.58 183.246 1313.65 183.622C1313.73 183.994 1313.81 184.318 1313.87 184.585C1314.01 185.119 1314.09 185.426 1314.09 185.426L1314.1 185.469C1314.16 185.69 1314.37 185.846 1314.61 185.831C1314.87 185.813 1315.08 185.583 1315.06 185.314C1315.06 185.314 1315.03 184.987 1315 184.414C1314.97 184.126 1314.94 183.778 1314.9 183.377C1314.89 182.972 1314.76 182.525 1314.68 182.03Z" fill="#292B2E"/>
<path d="M1298.8 212.748C1298.8 215.23 1296.79 217.24 1294.31 217.24C1291.83 217.24 1289.81 215.229 1289.81 212.748C1289.81 210.266 1291.83 208.255 1294.31 208.255C1296.79 208.255 1298.8 210.266 1298.8 212.748Z" fill="white" stroke="#292B2E" stroke-width="3" stroke-miterlimit="10"/>
<path d="M1237.58 168.784C1237.58 168.784 1258.07 157.246 1279.84 164.733C1273.28 160.602 1259.48 158.223 1248.54 160.639C1237.61 163.056 1237.7 165.518 1237.58 168.784Z" fill="#1D1E21"/>
<path d="M1278.58 184.515C1278.14 184.46 1276.96 183.511 1275.79 182.655C1276.02 182.549 1276.25 182.438 1276.48 182.335C1276.84 182.132 1277.19 181.944 1277.52 181.736C1277.84 181.508 1278.16 181.314 1278.44 181.085C1278.71 180.848 1278.98 180.639 1279.2 180.421C1279.41 180.191 1279.61 179.979 1279.78 179.792C1279.95 179.608 1280.06 179.406 1280.16 179.264C1280.37 178.967 1280.48 178.798 1280.48 178.798C1280.6 178.623 1280.59 178.382 1280.45 178.213C1280.28 178.01 1279.97 177.986 1279.77 178.159L1279.71 178.212C1279.71 178.212 1279.57 178.328 1279.34 178.529C1279.21 178.624 1279.09 178.761 1278.91 178.874C1278.73 178.988 1278.53 179.116 1278.3 179.257C1278.08 179.384 1277.81 179.495 1277.55 179.626C1277.28 179.749 1276.97 179.838 1276.67 179.951C1276.36 180.047 1276.02 180.122 1275.69 180.208C1275.35 180.263 1275.01 180.339 1274.66 180.381C1274.03 180.462 1273.4 180.497 1272.8 180.509C1271.99 180.005 1270.99 179.477 1269.8 178.994C1270.08 178.806 1270.37 178.624 1270.62 178.431C1270.93 178.177 1271.23 177.958 1271.49 177.706C1271.74 177.447 1271.99 177.218 1272.19 176.983C1272.38 176.735 1272.56 176.509 1272.71 176.309C1272.87 176.113 1272.96 175.903 1273.06 175.751C1273.23 175.439 1273.33 175.261 1273.33 175.261C1273.44 175.077 1273.41 174.838 1273.26 174.681C1273.07 174.493 1272.76 174.493 1272.57 174.682L1272.51 174.742C1272.51 174.742 1272.39 174.867 1272.17 175.087C1272.05 175.191 1271.94 175.339 1271.77 175.466C1271.6 175.594 1271.41 175.739 1271.2 175.896C1270.99 176.041 1270.73 176.173 1270.48 176.325C1270.22 176.471 1269.92 176.584 1269.63 176.721C1269.32 176.841 1269 176.943 1268.68 177.056C1268.34 177.139 1268.01 177.242 1267.66 177.311C1266.72 177.511 1265.78 177.612 1264.93 177.658C1262.93 177.344 1260.64 177.232 1258 177.474C1244.82 178.689 1239.63 188.291 1239.26 188.937C1238.03 191.123 1238.25 191.436 1239.62 190.467C1239.62 190.467 1249.11 183.182 1258.5 182.999C1267.89 182.816 1274.75 189.253 1275.36 189.799C1275.97 190.346 1277.24 190.042 1278.22 189.617C1279.19 189.192 1286.96 183.484 1286.84 183.242C1286.72 182.997 1279.07 184.576 1278.58 184.515Z" fill="#292B2E"/>
<path d="M1247.95 176.509C1247.95 176.509 1248.11 176.34 1248.44 176.087C1248.77 175.82 1249.26 175.491 1249.88 175.14C1250.18 174.945 1250.53 174.799 1250.89 174.623C1251.26 174.455 1251.65 174.252 1252.07 174.124C1252.9 173.837 1253.8 173.523 1254.73 173.366C1255.19 173.281 1255.66 173.196 1256.11 173.112C1256.57 173.036 1257.03 173.044 1257.47 173.007C1257.91 172.977 1258.34 172.98 1258.74 172.966C1259.14 172.935 1259.53 173.001 1259.88 173.035C1261.29 173.189 1262.2 173.413 1262.2 173.413C1262.29 173.435 1262.35 173.531 1262.33 173.626C1262.31 173.691 1262.26 173.739 1262.2 173.755L1262.18 173.76C1262.18 173.76 1261.26 174.001 1259.92 174.181C1259.59 174.226 1259.23 174.269 1258.85 174.356C1258.47 174.43 1258.07 174.525 1257.66 174.589C1257.25 174.667 1256.82 174.709 1256.4 174.819C1255.97 174.915 1255.54 175.011 1255.1 175.108C1254.67 175.21 1254.23 175.266 1253.81 175.398C1253.39 175.517 1252.97 175.611 1252.56 175.702C1252.15 175.786 1251.78 175.924 1251.4 176.006C1251.03 176.111 1250.67 176.179 1250.34 176.275C1249.7 176.463 1249.14 176.586 1248.76 176.696C1248.36 176.798 1248.14 176.856 1248.14 176.856C1248.03 176.883 1247.92 176.818 1247.89 176.708C1247.87 176.638 1247.89 176.567 1247.94 176.518L1247.95 176.509Z" fill="#292B2E"/>
<path d="M1210.66 223.555C1208.82 224.536 1209.21 227.623 1210.66 229.505C1212.1 231.388 1214.97 235.411 1222.36 234.848C1233.53 233.998 1238.04 225.887 1236.93 223.555C1235.72 221.005 1221.36 217.848 1210.66 223.555Z" fill="#292B2E"/>
<path d="M1212.11 231.27C1213.88 233.155 1216.87 235.265 1222.36 234.847C1231.22 234.173 1235.88 228.94 1236.87 225.637C1227.57 221.294 1215.76 226.641 1212.11 231.27Z" fill="#646669"/>
<path d="M1234.59 221.961C1229.86 220.072 1219.12 219.043 1210.66 223.555C1210.39 223.7 1210.18 223.902 1210 224.127C1214.58 224.273 1225.63 224.321 1234.59 221.961Z" fill="white"/>
<path d="M1210.66 223.555C1208.82 224.536 1209.21 227.623 1210.66 229.505C1212.1 231.388 1214.97 235.411 1222.36 234.848C1233.53 233.998 1238.04 225.887 1236.93 223.555C1235.72 221.005 1221.36 217.848 1210.66 223.555Z" stroke="#292B2E" stroke-width="2" stroke-miterlimit="10"/>
<path d="M1319.84 137.36C1317.83 113.876 1300.1 59.9421 1223.35 69.5071C1209.91 66.9291 1202.75 67.0651 1192.65 69.5071C1180.93 66.9291 1171.7 70.1681 1166.36 73.0821C1161.02 75.9961 1147.58 83.6051 1136.41 80.2061C1138.67 86.5201 1144.02 90.0821 1153.57 89.5971C1140.13 103.521 1134.63 114.53 1133.98 134.283C1133.33 154.037 1147.74 170.478 1154.66 173.914L1159.64 174.91C1159.64 174.91 1152.96 169.871 1150.9 148.657C1155.63 160.471 1160.35 171.67 1173.96 178.274H1177.01L1174.29 168.784C1174.29 168.784 1178.02 174.484 1183.12 175.999C1179.47 170.227 1173 149.18 1180.93 127.969C1180.12 149.179 1184.49 160.409 1193.23 167.879C1192.26 162.616 1192.39 156.845 1192.65 154.388C1195.18 162.942 1199.88 166.583 1202.38 167.96C1203.76 170.308 1209.27 172.817 1213.48 172.25C1208.45 165.172 1205.22 132.66 1218.78 116.584C1218.91 123.928 1221.05 158.027 1249.38 170.308H1253.39C1253.39 170.308 1238.95 153.914 1238.46 126.957C1242.82 140.921 1250.71 168.93 1282.89 172.958C1282.89 172.958 1283.74 176.93 1282.89 181.269C1288.11 178.93 1290.42 174.452 1291.03 170.984C1293.21 178.323 1293.34 184.785 1289.81 191.389C1297.83 189.859 1301.59 181.601 1302.81 177.351C1311.43 174.314 1321.74 159.645 1319.84 137.36Z" fill="#3F3230"/>
<path opacity="0.1" d="M1202.26 115.424C1199.66 116.287 1194.26 124.928 1194.33 138.774C1194.38 148.964 1199.01 155.156 1200.39 153.928C1201.78 152.7 1204.81 114.576 1202.26 115.424Z" fill="white"/>
<path opacity="0.1" d="M1195.1 109.3C1192.3 112.313 1188.83 121.519 1191.9 120.413C1194.98 119.307 1202.99 107.837 1201.29 107.015C1199.59 106.192 1196.54 107.749 1195.1 109.3Z" fill="white"/>
<path opacity="0.1" d="M1273.22 101.985C1267.39 102.251 1237.92 103.446 1236.95 105.102C1235.98 106.759 1243.61 112.868 1258.71 114.698C1289.41 118.417 1303.01 106.76 1301.55 104.17C1300.1 101.578 1283.26 101.527 1273.22 101.985Z" fill="white"/>
<path opacity="0.1" d="M1184.18 102.217C1184.18 99.756 1179.8 98.907 1166.44 96.963C1158.04 95.74 1153.08 93.975 1150.56 92.832C1145.55 98.392 1141.82 103.624 1139.19 109.318C1161.85 115.458 1184.18 104.276 1184.18 102.217Z" fill="white"/>
<path opacity="0.5" d="M1209.35 90.9732C1207.4 89.9192 1205.3 89.1122 1197.2 97.7732C1189.11 106.434 1183.44 118.458 1180.93 127.969C1180.89 129.093 1180.86 130.184 1180.85 131.252C1185.79 112.78 1196.08 101.668 1197.85 100.12C1199.79 98.4212 1203.6 96.4772 1205.54 96.3962C1207.48 96.3162 1213.96 96.4772 1214.04 95.9922C1214.12 95.5062 1211.29 92.0252 1209.35 90.9732Z" fill="#352727"/>
<path opacity="0.5" d="M1280.63 172.615C1281.37 172.739 1282.12 172.861 1282.89 172.958C1282.29 159.136 1279.13 148.815 1265.53 125.621C1251.93 102.428 1240.84 92.0492 1237.68 90.3382C1234.52 88.6262 1219.71 93.8052 1221.21 95.1422C1221.98 95.8372 1228.73 95.6282 1233.23 95.9932C1237.72 96.3572 1245.13 99.5142 1250.47 105.465C1255.43 110.988 1277.91 142.743 1280.63 172.615Z" fill="#352727"/>
<g opacity="0.5">
<path d="M1278.2 105.186C1278.2 105.186 1278.33 105.289 1278.58 105.481C1278.83 105.683 1279.21 105.933 1279.65 106.341C1280.08 106.75 1280.66 107.236 1281.21 107.852C1281.5 108.156 1281.8 108.478 1282.12 108.819C1282.42 109.178 1282.73 109.556 1283.06 109.952C1283.73 110.729 1284.36 111.644 1285.04 112.604C1285.68 113.581 1286.37 114.617 1286.97 115.746C1287.62 116.85 1288.19 118.044 1288.77 119.258C1289.28 120.501 1289.89 121.729 1290.3 123.033C1290.53 123.678 1290.75 124.324 1290.97 124.969C1291.16 125.62 1291.35 126.27 1291.54 126.915C1291.92 128.203 1292.14 129.516 1292.43 130.757C1292.65 132.016 1292.81 133.243 1292.96 134.402C1293.07 135.569 1293.14 136.672 1293.19 137.688C1293.21 138.708 1293.19 139.643 1293.18 140.467C1293.19 141.29 1293.07 142.012 1293.03 142.601C1292.92 143.781 1292.83 144.448 1292.83 144.448C1292.81 144.639 1292.63 144.775 1292.44 144.751C1292.28 144.731 1292.17 144.609 1292.14 144.461L1292.14 144.44C1292.14 144.44 1292.03 143.776 1291.87 142.624C1291.79 142.05 1291.73 141.352 1291.59 140.559C1291.45 139.765 1291.29 138.875 1291.15 137.904C1290.97 136.937 1290.72 135.901 1290.52 134.8C1290.26 133.711 1289.98 132.565 1289.69 131.378C1289.33 130.208 1289.04 128.983 1288.62 127.776C1288.42 127.167 1288.23 126.553 1288.03 125.937L1287.36 124.113C1286.92 122.891 1286.41 121.698 1285.94 120.512C1285.39 119.359 1284.93 118.186 1284.38 117.099C1283.86 115.995 1283.3 114.963 1282.8 113.959C1282.54 113.464 1282.26 112.998 1282 112.538C1281.76 112.071 1281.51 111.625 1281.25 111.212C1280.76 110.366 1280.28 109.606 1279.85 108.935C1279.43 108.248 1279.03 107.717 1278.71 107.23C1278.39 106.761 1278.09 106.388 1277.91 106.133C1277.73 105.879 1277.63 105.743 1277.63 105.743C1277.5 105.565 1277.53 105.314 1277.71 105.182C1277.86 105.071 1278.06 105.08 1278.2 105.186Z" fill="#352727"/>
</g>
<g opacity="0.5">
<path d="M1280.04 120.492C1280.04 120.492 1280.35 120.728 1280.87 121.174C1281.12 121.41 1281.45 121.632 1281.76 122.027C1282.09 122.394 1282.44 122.825 1282.82 123.313C1283.24 123.792 1283.53 124.344 1283.9 124.929C1284.26 125.51 1284.65 126.13 1284.92 126.821C1285.23 127.498 1285.55 128.202 1285.85 128.929C1286.09 129.673 1286.31 130.438 1286.53 131.205C1286.63 131.589 1286.75 131.97 1286.83 132.356C1286.89 132.748 1286.95 133.138 1287.01 133.526C1287.12 134.301 1287.22 135.064 1287.31 135.802C1287.36 136.546 1287.31 137.273 1287.32 137.952C1287.32 138.633 1287.29 139.275 1287.24 139.863C1287.05 141.044 1286.84 142.011 1286.68 142.678C1286.52 143.347 1286.41 143.72 1286.41 143.72C1286.35 143.907 1286.15 144.01 1285.96 143.952C1285.84 143.913 1285.75 143.81 1285.72 143.691L1285.71 143.649C1285.71 143.649 1285.63 143.261 1285.52 142.598C1285.42 141.935 1285.29 140.998 1285.19 139.896C1285.1 139.345 1284.95 138.754 1284.85 138.128C1284.75 137.508 1284.64 136.853 1284.53 136.175C1284.37 135.509 1284.2 134.821 1284.03 134.122C1283.95 133.772 1283.88 133.419 1283.8 133.065L1283.49 132.02C1283.28 131.324 1283.09 130.622 1282.9 129.929C1282.66 129.259 1282.44 128.588 1282.23 127.935C1282.04 127.275 1281.77 126.673 1281.56 126.08C1281.45 125.785 1281.34 125.498 1281.23 125.22C1281.14 124.931 1281.04 124.663 1280.93 124.427C1280.71 123.941 1280.52 123.479 1280.36 123.054C1280.22 122.633 1279.98 122.267 1279.85 121.957C1279.56 121.345 1279.41 120.977 1279.41 120.977C1279.33 120.765 1279.43 120.524 1279.64 120.439C1279.77 120.387 1279.93 120.413 1280.04 120.492Z" fill="#352727"/>
</g>
<g opacity="0.5">
<path d="M1300.89 133.901C1300.89 133.901 1301.13 134.443 1301.52 135.402C1301.73 135.872 1301.88 136.525 1302.08 137.25C1302.31 137.988 1302.4 138.798 1302.56 139.708C1302.68 140.611 1302.77 141.6 1302.8 142.645C1302.8 143.168 1302.81 143.704 1302.81 144.252C1302.82 144.804 1302.74 145.356 1302.71 145.925C1302.66 147.065 1302.48 148.226 1302.29 149.405C1302.18 149.991 1302.05 150.578 1301.93 151.169C1301.82 151.763 1301.67 152.351 1301.49 152.93C1301.32 153.51 1301.16 154.095 1300.98 154.668C1300.78 155.238 1300.59 155.805 1300.39 156.367C1299.98 157.483 1299.49 158.553 1299.02 159.582C1298.51 160.599 1298.01 161.571 1297.46 162.453C1297.19 162.898 1296.93 163.332 1296.67 163.742C1296.38 164.139 1296.11 164.522 1295.85 164.89C1295.34 165.639 1294.79 166.266 1294.31 166.82C1293.84 167.385 1293.4 167.845 1293.01 168.205C1292.24 168.933 1291.8 169.327 1291.8 169.327C1291.66 169.456 1291.44 169.443 1291.31 169.298C1291.2 169.185 1291.19 169.021 1291.26 168.895L1291.28 168.871C1291.28 168.871 1291.57 168.355 1292.1 167.487C1292.38 167.067 1292.67 166.52 1293 165.903C1293.35 165.294 1293.72 164.598 1294.09 163.821C1294.29 163.438 1294.48 163.039 1294.69 162.625C1294.87 162.195 1295.07 161.762 1295.27 161.316C1295.7 160.438 1296.02 159.447 1296.44 158.469C1296.81 157.471 1297.19 156.434 1297.51 155.367C1297.68 154.835 1297.85 154.298 1298.03 153.759C1298.19 153.218 1298.32 152.665 1298.46 152.117C1298.77 151.024 1299 149.916 1299.25 148.828C1299.43 147.73 1299.68 146.658 1299.81 145.605C1299.98 144.555 1300.07 143.538 1300.19 142.568C1300.26 142.083 1300.25 141.614 1300.28 141.155C1300.3 140.699 1300.36 140.254 1300.36 139.83C1300.36 139.404 1300.37 138.997 1300.37 138.609C1300.39 138.215 1300.39 137.849 1300.36 137.515C1300.31 136.834 1300.35 136.24 1300.27 135.72C1300.16 134.692 1300.12 134.098 1300.12 134.098C1300.1 133.874 1300.27 133.682 1300.49 133.666C1300.66 133.654 1300.82 133.753 1300.89 133.901Z" fill="#352727"/>
</g>
<g opacity="0.5">
<path d="M1249.05 121.343C1249.05 121.343 1249.34 121.888 1249.81 122.857C1250.04 123.342 1250.32 123.93 1250.62 124.613C1250.92 125.297 1251.26 126.065 1251.66 126.874C1252.06 127.688 1252.47 128.575 1252.88 129.517C1253.29 130.456 1253.8 131.433 1254.26 132.46C1254.74 133.481 1255.23 134.538 1255.73 135.611C1256.24 136.679 1256.79 137.748 1257.29 138.844C1257.77 139.948 1258.36 140.993 1258.89 142.055C1259.41 143.115 1259.89 144.181 1260.44 145.159C1260.99 146.145 1261.46 147.13 1261.94 148.049C1262.43 148.955 1262.9 149.812 1263.34 150.602C1263.79 151.38 1264.13 152.156 1264.53 152.768C1264.91 153.39 1265.23 153.954 1265.49 154.412C1266.02 155.337 1266.31 155.882 1266.31 155.882L1266.32 155.906C1266.42 156.076 1266.35 156.289 1266.18 156.379C1266.04 156.452 1265.88 156.425 1265.77 156.322C1265.77 156.322 1265.33 155.895 1264.58 155.119C1264.2 154.727 1263.74 154.258 1263.23 153.696C1262.7 153.147 1262.2 152.467 1261.63 151.737C1261.07 150.997 1260.42 150.221 1259.83 149.341C1259.25 148.454 1258.61 147.533 1258 146.55C1257.37 145.579 1256.79 144.536 1256.19 143.478C1255.63 142.406 1255 141.343 1254.47 140.227C1253.92 139.124 1253.43 137.995 1252.92 136.898C1252.39 135.803 1252 134.673 1251.57 133.6C1251.16 132.521 1250.74 131.494 1250.45 130.461C1250.12 129.446 1249.83 128.483 1249.58 127.591C1249.45 127.146 1249.33 126.719 1249.22 126.314C1249.13 125.905 1249.05 125.517 1248.97 125.153C1248.81 124.425 1248.69 123.785 1248.59 123.257C1248.39 122.201 1248.3 121.59 1248.3 121.59C1248.27 121.37 1248.42 121.165 1248.64 121.134C1248.81 121.107 1248.98 121.197 1249.05 121.343Z" fill="#352727"/>
</g>
<g opacity="0.8">
<path opacity="0.5" d="M1166.34 127.07C1166.34 127.07 1166.25 127.743 1166.04 128.907C1166 129.197 1165.93 129.52 1165.88 129.869C1165.85 130.211 1165.82 130.581 1165.78 130.976C1165.7 131.76 1165.6 132.626 1165.59 133.615C1165.57 134.102 1165.55 134.609 1165.53 135.135C1165.54 135.66 1165.54 136.203 1165.55 136.763C1165.55 137.876 1165.66 139.053 1165.73 140.265C1165.75 140.871 1165.86 141.486 1165.93 142.109C1166.02 142.729 1166.04 143.364 1166.16 143.995C1166.35 145.262 1166.57 146.542 1166.84 147.818C1167.05 149.103 1167.4 150.36 1167.7 151.61C1168.06 152.842 1168.34 154.082 1168.75 155.237C1168.95 155.816 1169.13 156.393 1169.3 156.959C1169.5 157.513 1169.7 158.057 1169.89 158.585C1170.26 159.65 1170.7 160.618 1171.05 161.542C1171.47 162.426 1171.82 163.271 1172.17 163.986C1172.55 164.687 1172.84 165.337 1173.12 165.838C1173.7 166.834 1174.02 167.427 1174.02 167.427L1174.04 167.452C1174.13 167.621 1174.07 167.834 1173.9 167.926C1173.76 168.001 1173.59 167.973 1173.48 167.867C1173.48 167.867 1173 167.387 1172.17 166.507C1171.78 166.056 1171.33 165.484 1170.81 164.818C1170.31 164.145 1169.79 163.358 1169.23 162.487C1168.74 161.589 1168.11 160.648 1167.63 159.573C1167.37 159.041 1167.11 158.495 1166.84 157.935C1166.59 157.368 1166.34 156.784 1166.11 156.184C1165.61 154.995 1165.21 153.721 1164.77 152.439C1164.43 151.13 1164.03 149.81 1163.77 148.457C1163.44 147.117 1163.28 145.741 1163.09 144.398C1162.93 143.048 1162.84 141.71 1162.82 140.415C1162.81 139.115 1162.79 137.863 1162.94 136.675C1163 136.083 1163.05 135.507 1163.11 134.95C1163.21 134.398 1163.31 133.865 1163.4 133.352C1163.51 132.841 1163.57 132.357 1163.7 131.89C1163.84 131.429 1163.97 130.991 1164.09 130.58C1164.21 130.174 1164.33 129.793 1164.43 129.442C1164.56 129.107 1164.7 128.813 1164.81 128.54C1165.28 127.457 1165.58 126.845 1165.58 126.845C1165.67 126.645 1165.91 126.561 1166.11 126.656C1166.27 126.73 1166.36 126.902 1166.34 127.07Z" fill="#352727"/>
</g>
<g opacity="0.8">
<path opacity="0.5" d="M1159.76 107.618C1159.76 107.618 1159.42 108.205 1158.79 109.204C1158.64 109.453 1158.45 109.726 1158.27 110.031C1158.11 110.335 1157.94 110.663 1157.76 111.013C1157.39 111.71 1156.96 112.47 1156.57 113.379C1156.37 113.822 1156.16 114.283 1155.94 114.761C1155.74 115.25 1155.54 115.756 1155.34 116.275C1154.91 117.301 1154.57 118.434 1154.16 119.581C1153.95 120.148 1153.82 120.76 1153.65 121.361C1153.49 121.969 1153.27 122.561 1153.14 123.19C1152.83 124.435 1152.54 125.701 1152.3 126.983C1152.01 128.254 1151.86 129.55 1151.66 130.818C1151.51 132.093 1151.3 133.347 1151.24 134.57C1151.2 135.181 1151.14 135.783 1151.09 136.372C1151.07 136.963 1151.04 137.539 1151.02 138.101C1150.95 139.228 1150.99 140.287 1150.96 141.278C1151.01 142.256 1151.01 143.167 1151.06 143.966C1151.15 144.758 1151.16 145.468 1151.23 146.039C1151.39 147.18 1151.46 147.852 1151.46 147.852L1151.46 147.881C1151.49 148.072 1151.35 148.244 1151.15 148.265C1151 148.283 1150.85 148.192 1150.8 148.053C1150.8 148.053 1150.53 147.427 1150.1 146.296C1149.91 145.727 1149.71 145.025 1149.49 144.214C1149.29 143.401 1149.1 142.475 1148.92 141.456C1148.81 140.437 1148.59 139.328 1148.55 138.15C1148.51 137.56 1148.48 136.954 1148.44 136.335C1148.43 135.715 1148.43 135.081 1148.44 134.437C1148.43 133.146 1148.55 131.819 1148.64 130.466C1148.81 129.123 1148.95 127.753 1149.22 126.401C1149.43 125.038 1149.82 123.708 1150.15 122.391C1150.51 121.082 1150.94 119.811 1151.42 118.605C1151.91 117.402 1152.37 116.238 1152.96 115.198C1153.24 114.672 1153.51 114.161 1153.77 113.666C1154.08 113.194 1154.37 112.74 1154.65 112.303C1154.95 111.871 1155.19 111.445 1155.49 111.066C1155.79 110.691 1156.08 110.337 1156.35 110.003C1156.62 109.675 1156.87 109.367 1157.1 109.084C1157.35 108.824 1157.59 108.604 1157.79 108.395C1158.64 107.573 1159.15 107.12 1159.15 107.12C1159.31 106.972 1159.57 106.985 1159.71 107.15C1159.83 107.28 1159.85 107.472 1159.76 107.618Z" fill="#352727"/>
</g>
<path d="M1125.85 447.131C1136.33 439.642 1146.65 428.794 1153.14 420.213C1159.63 411.631 1164.01 394.469 1164.01 394.469H1114.23V447.131H1125.85Z" fill="#292B2E" stroke="#292B2E" stroke-width="3" stroke-miterlimit="10" stroke-linejoin="round"/>
<path d="M1149.93 291.434C1149.93 291.434 1123.74 325.573 1120.56 329.42C1117.38 333.268 1097.71 345.278 1095.53 353.602C1093.34 361.926 1096.98 381.84 1101.35 389.613H1184.41L1181.5 295.959L1149.93 291.434Z" fill="#090D0F" stroke="#292B2E" stroke-width="3" stroke-miterlimit="10" stroke-linejoin="round"/>
<path d="M1167.41 285.991C1167.41 285.991 1142.64 364.109 1139.24 380.868C1135.84 397.626 1137.78 406.612 1141.18 418.998C1144.58 431.384 1152.44 460.042 1152.44 460.042C1152.44 460.042 1148.71 469.756 1149.44 471.699C1150.17 473.642 1165.19 480.442 1217.18 480.442C1269.17 480.442 1300.26 474.127 1304.14 471.456C1308.03 468.785 1311.43 466.6 1311.19 462.227C1310.94 457.856 1304.87 450.813 1304.87 450.813L1311.2 432.355C1311.2 432.355 1317.58 438.184 1318.27 440.855C1318.96 443.527 1316.12 448.627 1318.27 451.055C1320.41 453.484 1332.64 453.97 1332.64 453.97L1396.92 426.769C1396.92 426.769 1405.9 408.312 1406.63 398.354C1407.36 388.397 1405.9 384.107 1404.44 383.216C1402.99 382.325 1385.74 370.426 1385.74 370.426C1385.74 370.426 1351.01 304.131 1347.13 300.485C1343.24 296.838 1335.96 296.595 1335.96 296.595L1332.64 293.761L1220.41 321.808L1167.41 285.991Z" fill="#090D0F"/>
<path d="M1346.16 447.131C1346.16 447.131 1336.83 446.25 1334.26 443.25C1331.7 440.25 1332.33 432 1328.74 428C1325.16 424 1307.57 407.505 1307.57 407.505C1307.57 407.505 1296.58 445.5 1294.83 448.389C1293.08 451.278 1252.08 462.75 1244.83 460.75C1237.58 458.75 1218.58 446.25 1216.07 444.499C1213.57 442.748 1206.88 473.502 1206.88 473.502L1206.75 435.112C1206.75 435.112 1168.58 399 1156.58 396.5C1149.67 395.06 1142.85 401.188 1138.3 406.648C1138.97 410.668 1139.98 414.621 1141.18 418.998C1144.58 431.384 1152.44 460.042 1152.44 460.042C1152.44 460.042 1148.71 469.756 1149.44 471.699C1150.17 473.642 1165.19 480.442 1217.18 480.442C1269.17 480.442 1300.26 474.127 1304.14 471.456C1308.03 468.785 1311.43 466.6 1311.19 462.227C1310.94 457.856 1304.87 450.813 1304.87 450.813L1311.2 432.355C1311.2 432.355 1317.58 438.184 1318.27 440.855C1318.96 443.527 1316.12 448.627 1318.27 451.055C1320.41 453.484 1332.64 453.97 1332.64 453.97L1346.27 448.202L1346.16 447.131Z" fill="#D1D1D1"/>
<path d="M1167.41 285.991C1167.41 285.991 1142.64 364.109 1139.24 380.868C1135.84 397.626 1137.78 406.612 1141.18 418.998C1144.58 431.384 1152.44 460.042 1152.44 460.042C1152.44 460.042 1148.71 469.756 1149.44 471.699C1150.17 473.642 1165.19 480.442 1217.18 480.442C1269.17 480.442 1300.26 474.127 1304.14 471.456C1308.03 468.785 1311.43 466.6 1311.19 462.227C1310.94 457.856 1304.87 450.813 1304.87 450.813L1311.2 432.355C1311.2 432.355 1317.58 438.184 1318.27 440.855C1318.96 443.527 1316.12 448.627 1318.27 451.055C1320.41 453.484 1332.64 453.97 1332.64 453.97L1396.92 426.769C1396.92 426.769 1405.9 408.312 1406.63 398.354C1407.36 388.397 1405.9 384.107 1404.44 383.216C1402.99 382.325 1385.74 370.426 1385.74 370.426C1385.74 370.426 1351.01 304.131 1347.13 300.485C1343.24 296.838 1335.96 296.595 1335.96 296.595L1332.64 293.761L1220.41 321.808L1167.41 285.991Z" stroke="#292B2E" stroke-width="3" stroke-miterlimit="10" stroke-linejoin="round"/>
<path d="M1231.32 328.878H1205.59L1166.68 299.524C1157.94 317.617 1157.7 341.174 1157.82 355.381C1157.94 369.589 1161.95 376.511 1163.04 377.239C1163.66 377.652 1171.23 379.974 1181.63 379.986C1177.83 384.654 1174.44 389.526 1172.46 393.983C1165.66 409.283 1176.11 435.998 1180.58 444.499C1185.05 452.999 1193.11 458.827 1194.81 453.242C1196.31 448.312 1206.51 401.008 1214.56 374.105C1214.86 374.312 1221.66 378.966 1231.61 383.802C1239.1 411.09 1247.4 449.374 1248.74 453.782C1250.44 459.367 1258.5 453.539 1262.97 445.039C1267.45 436.538 1277.89 409.823 1271.09 394.523C1270.94 394.182 1270.77 393.837 1270.6 393.493C1274.68 393.679 1278.06 393.501 1280.1 392.902C1287.14 390.838 1300.02 373.043 1308.03 353.161C1316.05 333.28 1320.9 307.577 1320.9 307.577L1231.32 328.878Z" fill="#090D0F"/>
<path d="M1215.27 343.503C1214.73 343.411 1214.24 343.768 1214.14 344.295C1214.03 344.943 1203.41 407.652 1205.06 480.306C1205.7 480.321 1206.34 480.335 1207 480.348C1205.35 407.856 1215.95 345.272 1216.06 344.625C1216.15 344.096 1215.8 343.595 1215.27 343.503Z" fill="#292B2E"/>
<path d="M1335.21 295.958L1335.14 296.075C1315.8 326.535 1296.6 401.299 1310.25 432.617L1310.48 434.438L1311.2 432.355C1311.2 432.355 1311.65 432.766 1312.31 433.411L1312.16 432.233L1312.09 431.963C1298.58 401.3 1317.55 327.581 1336.66 297.301C1336.86 297.166 1337.12 296.959 1337.41 296.72C1336.52 296.616 1335.96 296.595 1335.96 296.595L1335.21 295.958Z" fill="#292B2E"/>
<path d="M1346.78 374.133C1346.28 374.325 1346.03 374.886 1346.22 375.388L1370.19 438.079L1371.98 437.321L1348.04 374.693C1347.84 374.191 1347.28 373.941 1346.78 374.133Z" fill="#292B2E"/>
<path d="M1378.69 380.746C1378.63 380.214 1378.15 379.842 1377.61 379.904C1377.08 379.971 1376.7 380.457 1376.77 380.989C1379.11 399.551 1377.93 424.032 1377.2 435.112L1379.2 434.265C1379.94 422.707 1380.99 398.938 1378.69 380.746Z" fill="#292B2E"/>
<path d="M1206.76 364.597C1198.5 387.669 1185.63 447.657 1183.93 453.242C1182.23 458.827 1174.17 452.999 1169.7 444.499C1165.23 435.998 1154.78 409.283 1161.58 393.983C1168.38 378.683 1191.7 358.485 1191.7 358.485H1206.76V364.597Z" fill="#4279CA" stroke="#292B2E" stroke-width="3" stroke-miterlimit="10" stroke-linecap="round" stroke-linejoin="round"/>
<path d="M1178.19 371.551C1187.2 372.762 1193.84 371.784 1195.42 370.993C1188.7 382.382 1184.49 404.265 1185.46 403.213C1186.44 402.161 1191.29 387.831 1199.79 372.127C1200.24 371.299 1202.79 369.425 1205.04 369.689C1205.63 367.847 1206.2 366.137 1206.75 364.596V358.485H1191.7C1191.7 358.485 1185.27 364.053 1178.19 371.551Z" fill="#292B2E"/>
<path d="M1215.64 364.597C1223.9 387.669 1236.77 447.657 1238.47 453.242C1240.17 458.827 1248.23 452.999 1252.7 444.499C1257.17 435.998 1267.62 409.283 1260.82 393.983C1254.02 378.683 1230.7 358.485 1230.7 358.485H1215.64V364.597Z" fill="#4279CA" stroke="#292B2E" stroke-width="3" stroke-miterlimit="10" stroke-linecap="round" stroke-linejoin="round"/>
<path d="M1231.32 376.418C1232.76 377.229 1244.95 383.296 1255.69 385.275C1246.28 371.987 1230.7 358.485 1230.7 358.485H1215.64V364.596C1216.27 366.342 1216.92 368.302 1217.59 370.431C1218.57 370.7 1221.04 371.538 1221.81 373.34C1222.78 375.607 1235.74 415.678 1235.9 414.302C1236.06 412.927 1229.02 378.521 1228.77 377.307C1228.53 376.093 1229.74 375.527 1231.32 376.418Z" fill="#292B2E"/>
<path d="M1166.68 288.339C1157.94 306.432 1157.7 329.989 1157.82 344.196C1157.94 358.404 1161.95 365.326 1163.04 366.054C1164.13 366.783 1186.84 373.461 1208.58 362.897H1214.53C1214.53 362.897 1224 369.454 1237.11 375.161C1250.23 380.869 1273.06 383.783 1280.1 381.719C1287.14 379.654 1300.01 361.86 1308.03 341.978C1316.04 322.097 1320.9 301.697 1320.9 301.697L1231.32 317.694H1205.59L1166.68 288.339Z" fill="#4279CA" stroke="#292B2E" stroke-width="3" stroke-miterlimit="10" stroke-linecap="round" stroke-linejoin="round"/>
<path opacity="0.5" d="M1225.49 359.99C1225.49 359.99 1241.53 365.858 1256.19 368.598C1270.86 371.338 1286.52 371.525 1285.86 368.598C1285.19 365.671 1271.58 362.818 1267.41 361.666C1263.25 360.514 1252.58 363.69 1246.75 363.69C1240.91 363.69 1227.07 356.656 1227.07 356.656L1225.49 359.99Z" fill="#214F95"/>
<path opacity="0.5" d="M1203.27 357.265C1203.27 357.265 1182.81 358.1 1176.11 358.1C1169.41 358.1 1165.78 354.841 1164.01 352.387C1162.25 349.933 1169.41 348.6 1172.25 349.1C1175.08 349.6 1177.91 355.571 1185.75 355.585C1193.58 355.6 1203.06 354.422 1203.06 354.422L1203.27 357.265Z" fill="#214F95"/>
<path opacity="0.5" d="M1165.65 293.913C1166.03 318.858 1169.11 335.307 1173.64 341.977C1178.18 348.648 1212.66 356.339 1212.66 356.339C1212.66 356.339 1240.12 357.747 1258.32 354.639C1284.07 350.244 1291.03 347.191 1297.83 340.876C1304.63 334.561 1318.27 311.606 1318.27 311.606L1165.65 293.913Z" fill="#4279CA"/>
<path d="M1202.3 346.545C1202.3 346.545 1203.52 364.678 1203.84 366.702C1204.16 368.727 1205.14 370.427 1207.16 370.427C1209.18 370.427 1213.58 370.427 1215.83 370.427C1218.09 370.427 1218.9 369.86 1220.19 368.079C1221.49 366.298 1229.83 347.921 1229.83 347.921L1202.3 346.545Z" fill="#4279CA" stroke="#292B2E" stroke-width="3" stroke-miterlimit="10" stroke-linecap="round" stroke-linejoin="round"/>
<path d="M1204.33 299.835C1212.99 290.039 1227.93 286.016 1229.99 285.991C1232.26 285.966 1246.26 290.525 1258.32 305.906C1258.32 305.906 1218.17 352.617 1216.23 352.94C1214.28 353.263 1209.59 355.451 1208.62 349.541C1207.65 343.63 1204.33 299.835 1204.33 299.835Z" fill="#4279CA"/>
<path opacity="0.5" d="M1224.88 286.658C1222.02 287.791 1215.9 292.203 1213.08 293.175C1212.28 293.451 1210.33 295.057 1209.35 295.217C1207.55 296.587 1205.84 298.12 1204.33 299.835C1204.33 299.835 1207.64 343.63 1208.62 349.541C1209.21 353.137 1211.18 353.731 1213.07 353.575C1218.19 330.068 1229.08 292.588 1229.69 289.167C1230.34 285.523 1227.75 285.525 1224.88 286.658Z" fill="#214F95"/>
<path d="M1204.33 299.835C1212.99 290.039 1227.93 286.016 1229.99 285.991C1232.26 285.966 1246.26 290.525 1258.32 305.906C1258.32 305.906 1218.17 352.617 1216.23 352.94C1214.28 353.263 1209.59 355.451 1208.62 349.541C1207.65 343.63 1204.33 299.835 1204.33 299.835Z" stroke="#292B2E" stroke-width="3" stroke-miterlimit="10" stroke-linecap="round" stroke-linejoin="round"/>
<path d="M1212.66 356.34C1212.66 356.34 1284.07 343.955 1294.43 336.83C1304.79 329.706 1332.64 293.762 1332.64 293.762C1332.64 293.762 1330.21 288.906 1329.56 288.419C1328.92 287.934 1290.38 273.361 1289.41 272.876C1288.44 272.391 1281.15 264.294 1280.34 263.647C1279.53 263 1272.65 258.815 1272.65 258.815C1272.65 258.815 1271.44 268.222 1277.53 273.301C1277.53 273.301 1216.11 350.146 1215.01 350.996C1213.92 351.846 1212.1 351.117 1211.86 349.296C1211.61 347.475 1207.18 303.791 1212.11 272.467C1217.36 269.638 1220.99 267.474 1222.98 261.634C1222.98 261.634 1220.28 261.541 1219.39 261.947C1218.49 262.352 1203.11 271.5 1195.18 274.9C1187.25 278.3 1169.11 284.29 1167.57 284.938C1166.04 285.585 1165 286.799 1165.07 288.175C1165.15 289.552 1167.53 316.995 1174.21 328.775C1180.89 340.554 1195.86 348.447 1212.66 356.34Z" fill="#4279CA"/>
<path d="M1185.56 322.371C1190.28 329.913 1202.67 336.725 1211.03 340.059C1210.91 338.416 1210.78 336.59 1210.66 334.614C1203.31 331.394 1193.41 325.764 1189.68 319.797C1185.85 313.683 1182.77 299.831 1180.82 280.303C1179.19 280.879 1177.6 281.436 1176.11 281.953C1177.73 297.633 1180.57 314.396 1185.56 322.371Z" fill="#214F95"/>
<path d="M1287.64 325.337C1299.43 318.179 1313.83 298.877 1322.51 285.604C1321.1 285.059 1319.54 284.459 1317.89 283.825C1309.01 297.299 1295.39 314.95 1285.12 321.186C1274.31 327.751 1242.57 334.566 1226.71 336.682C1225.17 338.594 1223.73 340.371 1222.43 341.978C1237.48 340.757 1275.17 332.915 1287.64 325.337Z" fill="#214F95"/>
<path d="M1180.53 327.439C1186.2 335.942 1203.19 344.639 1211.66 347.493C1211.58 346.667 1211.48 345.587 1211.37 344.274C1203.31 341.239 1187.95 333.312 1182.95 325.822C1178.3 318.846 1174.49 303.139 1172.53 283.193C1171.44 283.569 1170.48 283.9 1169.7 284.172C1171.02 297.119 1174.06 317.732 1180.53 327.439Z" fill="#214F95"/>
<path d="M1328.75 288.058C1328.13 287.803 1327.18 287.425 1325.98 286.957C1316.8 300.765 1299.95 322.186 1287.55 329.25C1274.66 336.599 1234 344.248 1219.65 345.399C1218.69 346.58 1217.86 347.595 1217.18 348.429C1230.05 348.148 1275.34 339.565 1289 331.781C1301.94 324.402 1319.45 302.105 1328.75 288.058Z" fill="#214F95"/>
<path d="M1212.66 356.34C1212.66 356.34 1284.07 343.955 1294.43 336.83C1304.79 329.706 1332.64 293.762 1332.64 293.762C1332.64 293.762 1330.21 288.906 1329.56 288.419C1328.92 287.934 1290.38 273.361 1289.41 272.876C1288.44 272.391 1281.15 264.294 1280.34 263.647C1279.53 263 1272.65 258.815 1272.65 258.815C1272.65 258.815 1271.44 268.222 1277.53 273.301C1277.53 273.301 1216.11 350.146 1215.01 350.996C1213.92 351.846 1212.1 351.117 1211.86 349.296C1211.61 347.475 1207.18 303.791 1212.11 272.467C1217.36 269.638 1220.99 267.474 1222.98 261.634C1222.98 261.634 1220.28 261.541 1219.39 261.947C1218.49 262.352 1203.11 271.5 1195.18 274.9C1187.25 278.3 1169.11 284.29 1167.57 284.938C1166.04 285.585 1165 286.799 1165.07 288.175C1165.15 289.552 1167.53 316.995 1174.21 328.775C1180.89 340.554 1195.86 348.447 1212.66 356.34Z" stroke="#292B2E" stroke-width="3" stroke-miterlimit="10" stroke-linecap="round" stroke-linejoin="round"/>
<path d="M1278.89 263.594C1278.29 262.091 1273.34 259.263 1272.65 258.816C1272.42 263.438 1273.13 269.632 1277.53 273.302C1277.76 273.062 1278.53 274.353 1278.7 274.032C1279.78 272.055 1279.45 264.985 1278.89 263.594Z" fill="#292B2E"/>
<path d="M1192.66 290.119C1192.66 290.119 1192.88 290.346 1193.21 290.685C1193.53 291.005 1193.95 291.459 1194.41 291.859C1194.63 292.068 1194.86 292.275 1195.07 292.47C1195.29 292.662 1195.49 292.788 1195.66 292.928C1196.02 293.198 1196.26 293.377 1196.26 293.377L1196.38 293.463C1196.62 293.648 1196.67 293.998 1196.49 294.244C1196.35 294.432 1196.11 294.505 1195.9 294.447C1195.9 294.447 1195.57 294.358 1195.07 294.223C1194.83 294.15 1194.51 294.077 1194.22 293.967C1193.93 293.854 1193.63 293.734 1193.32 293.613C1192.69 293.38 1192.1 293.092 1191.63 292.887C1191.19 292.682 1190.9 292.544 1190.9 292.544C1190.13 292.187 1189.8 291.278 1190.16 290.514C1190.52 289.749 1191.43 289.419 1192.19 289.776C1192.37 289.857 1192.52 289.967 1192.64 290.096L1192.66 290.119Z" fill="#292B2E"/>
<path d="M1189.1 247.618C1189.1 247.618 1208.88 243.49 1212.11 242.357C1215.34 241.223 1226.27 239.685 1229.75 238.713C1233.23 237.741 1235.3 237.66 1234.59 239.765C1233.88 241.87 1232.66 246.161 1225.46 248.428C1218.25 250.695 1216.59 250.128 1214.67 251.099C1212.75 252.071 1201.82 256.523 1201.82 256.523C1201.82 256.523 1212.52 259.761 1215.83 260.409C1219.14 261.057 1221.33 263.81 1223.6 265.429C1225.86 267.047 1234.85 273.2 1237.84 274.982C1240.84 276.762 1239.87 278.948 1236.39 279.838C1232.91 280.73 1227.24 278.786 1221.57 276.115C1215.91 273.443 1213.33 271.58 1212.11 271.176C1210.89 270.772 1203.11 269.071 1203.11 269.071C1203.11 269.071 1213.22 276.357 1214.36 277.329C1215.5 278.301 1225.46 288.258 1227.89 290.443C1230.32 292.628 1225.45 294.973 1220.2 293.277C1214.94 291.581 1209.83 286.072 1208.46 285.02C1207.08 283.967 1196.96 279.838 1196.96 279.838C1196.96 279.838 1201.42 285.909 1202.63 287.772C1203.84 289.634 1203.6 292.364 1203.03 293.914C1202.47 295.463 1198.74 298.136 1197.04 298.297C1195.34 298.458 1189.52 297.973 1188.06 297.892C1186.6 297.812 1186.6 295.36 1187.65 293.914C1188.71 292.468 1191.78 291.334 1191.78 291.334C1191.78 291.334 1185.47 284.858 1184.82 284.454C1184.17 284.049 1183.12 283.279 1182.55 283.825C1181.99 284.372 1175.67 288.385 1170.57 291.64C1165.47 294.896 1163.12 295.787 1163.12 295.787C1163.12 295.787 1150.66 367.026 1144.34 394.47C1138.03 421.913 1135.6 435.757 1131.96 441.343C1128.31 446.929 1108.15 460.043 1098.44 458.828C1088.73 457.614 1078.77 434.208 1084.84 414.339C1090.91 394.47 1138.63 289.22 1141.06 283.194C1143.49 277.169 1156.33 262.475 1157.8 260.897C1159.28 259.316 1189.1 247.618 1189.1 247.618Z" fill="#FFE3D1"/>
<path opacity="0.7" d="M1121.58 401.001C1108.25 423.001 1090.91 420.667 1085.62 411.951C1085.32 412.842 1085.05 413.646 1084.84 414.338C1078.77 434.207 1088.72 457.613 1098.44 458.827C1108.15 460.042 1128.31 446.928 1131.95 441.342C1135.6 435.756 1138.03 421.912 1144.34 394.469C1150.65 367.026 1163.12 295.786 1163.12 295.786C1161.33 293.905 1140.94 369.054 1121.58 401.001Z" fill="#F4D2C9"/>
<path d="M1189.1 247.618C1189.1 247.618 1208.88 243.49 1212.11 242.357C1215.34 241.223 1226.27 239.685 1229.75 238.713C1233.23 237.741 1235.3 237.66 1234.59 239.765C1233.88 241.87 1232.66 246.161 1225.46 248.428C1218.25 250.695 1216.59 250.128 1214.67 251.099C1212.75 252.071 1201.82 256.523 1201.82 256.523C1201.82 256.523 1212.52 259.761 1215.83 260.409C1219.14 261.057 1221.33 263.81 1223.6 265.429C1225.86 267.047 1234.85 273.2 1237.84 274.982C1240.84 276.762 1239.87 278.948 1236.39 279.838C1232.91 280.73 1227.24 278.786 1221.57 276.115C1215.91 273.443 1213.33 271.58 1212.11 271.176C1210.89 270.772 1203.11 269.071 1203.11 269.071C1203.11 269.071 1213.22 276.357 1214.36 277.329C1215.5 278.301 1225.46 288.258 1227.89 290.443C1230.32 292.628 1225.45 294.973 1220.2 293.277C1214.94 291.581 1209.83 286.072 1208.46 285.02C1207.08 283.967 1196.96 279.838 1196.96 279.838C1196.96 279.838 1201.42 285.909 1202.63 287.772C1203.84 289.634 1203.6 292.364 1203.03 293.914C1202.47 295.463 1198.74 298.136 1197.04 298.297C1195.34 298.458 1189.52 297.973 1188.06 297.892C1186.6 297.812 1186.6 295.36 1187.65 293.914C1188.71 292.468 1191.78 291.334 1191.78 291.334C1191.78 291.334 1185.47 284.858 1184.82 284.454C1184.17 284.049 1183.12 283.279 1182.55 283.825C1181.99 284.372 1175.67 288.385 1170.57 291.64C1165.47 294.896 1163.12 295.787 1163.12 295.787C1163.12 295.787 1150.66 367.026 1144.34 394.47C1138.03 421.913 1135.6 435.757 1131.96 441.343C1128.31 446.929 1108.15 460.043 1098.44 458.828C1088.73 457.614 1078.77 434.208 1084.84 414.339C1090.91 394.47 1138.63 289.22 1141.06 283.194C1143.49 277.169 1156.33 262.475 1157.8 260.897C1159.28 259.316 1189.1 247.618 1189.1 247.618Z" stroke="#292B2E" stroke-width="3" stroke-miterlimit="10" stroke-linejoin="round"/>
<path d="M1195.98 280.969C1195.98 280.969 1195.79 280.727 1195.52 280.364C1195.38 280.195 1195.21 279.965 1195.03 279.69C1194.86 279.43 1194.67 279.153 1194.49 278.876C1193.85 277.804 1193.27 276.736 1193.27 276.736C1193.12 276.457 1193.22 276.106 1193.5 275.954C1193.71 275.838 1193.96 275.871 1194.14 276.014C1194.14 276.014 1195.08 276.785 1196.02 277.488C1196.25 277.641 1196.47 277.795 1196.69 277.938C1196.88 278.077 1197.09 278.207 1197.3 278.324C1197.69 278.554 1197.95 278.708 1197.95 278.708L1197.97 278.722C1198.7 279.151 1198.94 280.088 1198.52 280.818C1198.09 281.546 1197.15 281.79 1196.42 281.361C1196.24 281.257 1196.09 281.12 1195.98 280.969Z" fill="#292B2E"/>
<path d="M1202.27 270.308L1198.68 266.717C1198.45 266.492 1198.45 266.127 1198.68 265.903C1198.85 265.731 1199.11 265.691 1199.32 265.784L1203.96 267.834C1204.73 268.174 1205.08 269.075 1204.74 269.847C1204.4 270.618 1203.5 270.967 1202.73 270.626C1202.55 270.547 1202.4 270.435 1202.27 270.308Z" fill="#292B2E"/>
<path d="M1201.45 257.978L1197.97 256.142C1197.69 255.992 1197.58 255.64 1197.73 255.355C1197.83 255.157 1198.04 255.043 1198.25 255.044L1202.18 255.067C1203.04 255.072 1203.72 255.768 1203.72 256.621C1203.71 257.474 1203.02 258.161 1202.16 258.155C1201.91 258.155 1201.66 258.089 1201.45 257.978Z" fill="#292B2E"/>
</g>
</g>
</g>
<defs>
<filter id="filter0_d_8_1722" x="712.84" y="132.184" width="467.228" height="122.176" filterUnits="userSpaceOnUse" color-interpolation-filters="sRGB">
<feFlood flood-opacity="0" result="BackgroundImageFix"/>
<feColorMatrix in="SourceAlpha" type="matrix" values="0 0 0 0 0 0 0 0 0 0 0 0 0 0 0 0 0 0 127 0" result="hardAlpha"/>
<feOffset dx="2" dy="4"/>
<feGaussianBlur stdDeviation="2"/>
<feComposite in2="hardAlpha" operator="out"/>
<feColorMatrix type="matrix" values="0 0 0 0 0 0 0 0 0 0 0 0 0 0 0 0 0 0 0.5 0"/>
<feBlend mode="normal" in2="BackgroundImageFix" result="effect1_dropShadow_8_1722"/>
<feBlend mode="normal" in="SourceGraphic" in2="effect1_dropShadow_8_1722" result="shape"/>
</filter>
<filter id="filter1_d_8_1722" x="1077.48" y="21.7539" width="347.031" height="485.826" filterUnits="userSpaceOnUse" color-interpolation-filters="sRGB">
<feFlood flood-opacity="0" result="BackgroundImageFix"/>
<feColorMatrix in="SourceAlpha" type="matrix" values="0 0 0 0 0 0 0 0 0 0 0 0 0 0 0 0 0 0 127 0" result="hardAlpha"/>
<feOffset dy="4"/>
<feGaussianBlur stdDeviation="2"/>
<feComposite in2="hardAlpha" operator="out"/>
<feColorMatrix type="matrix" values="0 0 0 0 0 0 0 0 0 0 0 0 0 0 0 0 0 0 0.25 0"/>
<feBlend mode="normal" in2="BackgroundImageFix" result="effect1_dropShadow_8_1722"/>
<feBlend mode="normal" in="SourceGraphic" in2="effect1_dropShadow_8_1722" result="shape"/>
</filter>
<linearGradient id="paint0_linear_8_1722" x1="950" y1="400" x2="950" y2="0" gradientUnits="userSpaceOnUse">
<stop stop-color="#0F131F"/>
<stop offset="1" stop-color="#080F1B"/>
</linearGradient>
<clipPath id="clip0_8_1722">
<rect width="1900" height="400" fill="white"/>
</clipPath>
<clipPath id="clip1_8_1722">
<rect width="500" height="500" fill="white" transform="translate(1001 -2)"/>
</clipPath>
</defs>
</svg>
