<svg width="1900" height="400" viewBox="0 0 1900 400" fill="none" xmlns="http://www.w3.org/2000/svg">
<rect width="1900" height="400" fill="url(#paint0_linear_6_84)"/>
<path d="M752.544 248.424C748.448 248.424 746.4 247.101 746.4 244.456C746.4 242.579 746.955 241.213 748.064 240.36C747.808 241.213 747.68 242.067 747.68 242.92C747.68 245.395 749.387 246.632 752.8 246.632C758.603 246.632 765.387 243.731 773.152 237.928C771.36 236.989 769.824 235.965 768.544 234.856C761.376 240.488 756.128 243.304 752.8 243.304C751.52 243.304 750.88 242.92 750.88 242.152C750.88 241.555 751.221 241.256 751.904 241.256C752.075 241.256 752.331 241.299 752.672 241.384C752.928 241.469 753.141 241.512 753.312 241.512C756.555 241.512 761.333 239.037 767.648 234.088C764.832 231.357 763.424 228.584 763.424 225.768C763.424 219.795 768.928 214.461 779.936 209.768C782.155 208.829 784.587 208.019 787.232 207.336C789.963 206.568 792.907 205.885 796.064 205.288C797.173 203.837 798.197 202.472 799.136 201.192C800.075 199.827 800.885 198.547 801.568 197.352C801.312 195.133 801.184 193.299 801.184 191.848C801.184 186.472 802.165 183.784 804.128 183.784C805.323 183.784 806.261 185.149 806.944 187.88C807.797 186.685 808.821 185.021 810.016 182.888C811.211 180.669 812.533 177.981 813.984 174.824C816.203 170.216 818.293 165.48 820.256 160.616C822.219 155.752 824.053 150.76 825.76 145.64C826.101 144.701 826.485 144.019 826.912 143.592C826.997 143.677 827.04 143.848 827.04 144.104C827.04 150.589 821.109 164.883 809.248 186.984C810.443 186.387 811.381 186.088 812.064 186.088C812.576 186.088 812.832 186.387 812.832 186.984C812.832 189.203 809.419 192.957 802.592 198.248C801.995 199.272 801.269 200.381 800.416 201.576C799.648 202.685 798.795 203.837 797.856 205.032C799.733 204.691 801.867 204.435 804.256 204.264C807.669 199.485 810.955 194.536 814.112 189.416C817.269 184.296 820.299 179.005 823.2 173.544C830.709 159.549 834.464 149.053 834.464 142.056C834.464 137.96 832.629 135.613 828.96 135.016C828.192 134.845 827.808 134.589 827.808 134.248C827.808 133.736 828.277 133.48 829.216 133.48C832.544 133.48 835.104 134.547 836.896 136.68C838.688 138.728 839.584 141.416 839.584 144.744C839.584 152.168 836.043 162.365 828.96 175.336C826.315 180.2 823.413 185.021 820.256 189.8C817.099 194.493 813.771 199.144 810.272 203.752C811.723 203.581 813.771 203.453 816.416 203.368C819.061 203.197 822.219 203.027 825.888 202.856C828.363 202.771 830.155 202.728 831.264 202.728C832.373 202.643 832.885 202.6 832.8 202.6C833.312 202.6 833.568 202.728 833.568 202.984C833.568 203.837 832.715 204.349 831.008 204.52C829.387 204.605 826.955 204.776 823.712 205.032C820.555 205.203 817.653 205.416 815.008 205.672C812.448 205.843 810.187 206.056 808.224 206.312C797.301 219.965 786.848 230.504 776.864 237.928C779.083 239.037 783.093 240.104 788.896 241.128C789.664 241.213 790.048 241.469 790.048 241.896C790.048 242.323 789.621 242.536 788.768 242.536C785.013 242.536 780.576 241.341 775.456 238.952C766.581 245.267 758.944 248.424 752.544 248.424ZM853.92 240.104C850.763 240.104 847.477 238.739 844.064 236.008C840.736 233.277 838.347 230.291 836.896 227.048C835.019 222.952 834.08 217.064 834.08 209.384C834.08 207.08 834.421 202.941 835.104 196.968C835.787 190.909 836.555 183.059 837.408 173.416L838.56 160.488C838.645 158.867 838.944 158.056 839.456 158.056C840.395 158.056 840.864 158.995 840.864 160.872V182.376C840.864 205.843 842.784 222.013 846.624 230.888C848.928 236.179 851.616 238.824 854.688 238.824C858.699 238.824 863.136 234.941 868 227.176C867.915 228.797 866.976 230.803 865.184 233.192C863.307 235.752 861.643 237.459 860.192 238.312C858.059 239.507 855.968 240.104 853.92 240.104ZM774.688 236.776C783.221 229.949 792.309 220.136 801.952 207.336C800.672 207.592 799.392 207.891 798.112 208.232C796.917 208.488 795.723 208.787 794.528 209.128C787.189 217.917 779.253 225.896 770.72 233.064C771.147 233.747 771.701 234.387 772.384 234.984C773.067 235.581 773.835 236.179 774.688 236.776ZM770.08 232.168C773.92 229.011 777.675 225.555 781.344 221.8C785.099 218.045 788.811 214.035 792.48 209.768C786.933 211.56 782.112 213.864 778.016 216.68C772.213 220.52 769.312 224.488 769.312 228.584C769.312 229.779 769.568 230.973 770.08 232.168ZM856.253 226.408C855.485 226.408 855.101 225.853 855.101 224.744V224.488C855.442 223.293 855.784 221.8 856.125 220.008C856.552 218.216 857.021 216.125 857.533 213.736C858.045 211.347 858.685 208.36 859.453 204.776C860.221 201.107 861.16 196.883 862.269 192.104L860.733 188.392C860.306 187.283 859.965 186.472 859.709 185.96C859.538 185.448 859.453 185.192 859.453 185.192C859.453 184.595 860.178 184.04 861.629 183.528C865.896 181.907 868.626 181.096 869.821 181.096C871.101 181.096 871.741 181.48 871.741 182.248C871.656 181.992 869.48 187.453 865.213 198.632V199.784C865.213 202.173 864.829 203.368 864.061 203.368C863.976 203.368 863.848 203.24 863.677 202.984C862.994 205.117 862.312 207.165 861.629 209.128C861.032 211.005 860.477 212.883 859.965 214.76C861.842 211.688 863.762 208.744 865.725 205.928C867.773 203.112 869.864 200.467 871.997 197.992C878.397 190.568 883.688 186.856 887.869 186.856C889.832 186.856 890.813 187.624 890.813 189.16C890.813 189.672 890.685 190.312 890.429 191.08C889.746 193.981 888.808 197.651 887.613 202.088C886.418 206.44 885.01 211.517 883.389 217.32C888.338 213.651 892.178 209.725 894.909 205.544C895.336 205.032 895.634 204.776 895.805 204.776C896.061 204.776 896.189 204.947 896.189 205.288C896.189 205.459 896.061 205.757 895.805 206.184C892.05 212.84 887.485 218.131 882.109 222.056C881.768 222.568 881.213 222.824 880.445 222.824C879.848 222.824 879.549 222.483 879.549 221.8C879.549 221.629 879.677 220.861 879.933 219.496C880.189 218.045 880.53 216.04 880.957 213.48C881.384 211.603 881.768 209.768 882.109 207.976C882.45 206.184 882.792 204.349 883.133 202.472C883.73 198.291 884.114 194.621 884.285 191.464C882.408 192.317 880.36 193.725 878.141 195.688C876.008 197.565 873.618 199.955 870.973 202.856C868.584 205.501 866.493 208.019 864.701 210.408C862.994 212.712 861.586 214.888 860.477 216.936C859.282 219.24 858.386 221.715 857.789 224.36C857.448 225.725 856.936 226.408 856.253 226.408ZM863.037 188.648L864.189 184.424C863.762 184.765 862.952 185.192 861.757 185.704L863.037 188.648ZM909.768 180.584C908.061 180.584 907.208 179.688 907.208 177.896C907.208 177.043 907.72 176.019 908.744 174.824C909.853 173.544 910.835 172.691 911.688 172.264C914.76 170.813 916.595 170.088 917.192 170.088C917.448 170.088 917.576 170.173 917.576 170.344C917.576 170.6 916.595 171.837 914.632 174.056C914.461 174.227 913.821 175.549 912.712 178.024C911.773 179.731 910.792 180.584 909.768 180.584ZM902.088 221.672C897.736 221.672 895.56 219.496 895.56 215.144C895.56 211.901 896.413 207.805 898.12 202.856L895.816 206.44C894.707 208.317 893.939 209.256 893.512 209.256C893.341 209.256 893.256 209.128 893.256 208.872C893.256 208.189 893.512 207.549 894.024 206.952C896.072 204.136 898.333 200.083 900.808 194.792C901.064 194.109 901.405 193.256 901.832 192.232C902.344 191.208 902.941 190.056 903.624 188.776C904.051 188.008 905.117 187.624 906.824 187.624C908.275 187.624 909 188.051 909 188.904C909 189.843 908.573 191.123 907.72 192.744C906.952 194.451 906.227 195.432 905.544 195.688C901.107 204.563 898.888 211.091 898.888 215.272C898.888 218.088 899.827 219.496 901.704 219.496C904.776 219.496 908.147 217.277 911.816 212.84C915.656 208.403 917.533 206.184 917.448 206.184C917.619 206.184 917.704 206.312 917.704 206.568C917.704 206.653 917.619 206.952 917.448 207.464C916.68 208.829 915.699 210.237 914.504 211.688C913.395 213.053 912.115 214.504 910.664 216.04C906.909 219.795 904.051 221.672 902.088 221.672ZM933.426 237.544C929.586 237.544 926.301 236.861 923.57 235.496C919.901 233.619 918.066 230.973 918.066 227.56C918.066 223.891 920.071 221.032 924.082 218.984C927.239 217.363 930.866 216.552 934.962 216.552C935.73 216.552 936.114 216.68 936.114 216.936C936.114 217.277 935.73 217.448 934.962 217.448C931.463 217.448 928.477 218.131 926.002 219.496C922.759 221.203 921.138 223.635 921.138 226.792C921.138 229.523 922.375 231.656 924.85 233.192C927.069 234.472 929.543 235.112 932.274 235.112C939.869 235.112 946.866 231.613 953.266 224.616C955.399 222.312 957.575 219.453 959.794 216.04C962.013 212.627 964.274 208.659 966.578 204.136C967.517 202.173 968.839 199.4 970.546 195.816C972.338 192.147 974.429 187.581 976.818 182.12C978.866 177.427 980.786 173.288 982.578 169.704C984.37 166.12 985.991 163.005 987.442 160.36L978.482 158.44C977.629 161.939 976.605 165.779 975.41 169.96C974.215 174.141 972.765 178.621 971.058 183.4C971.997 182.803 972.807 182.504 973.49 182.504C974.087 182.504 974.386 182.888 974.386 183.656C974.386 185.875 971.911 189.203 966.962 193.64C965.511 197.053 963.847 200.467 961.97 203.88C960.178 207.208 958.173 210.493 955.954 213.736C949.725 223.037 944.349 227.688 939.826 227.688C938.205 227.688 937.394 227.261 937.394 226.408C937.394 225.981 937.607 225.768 938.034 225.768C938.29 225.768 938.631 225.811 939.058 225.896C939.485 225.981 939.783 226.024 939.954 226.024C944.391 226.024 949.597 221.501 955.57 212.456C959.666 206.312 963.122 199.784 965.938 192.872C964.914 189.373 964.402 186.685 964.402 184.808C964.402 181.992 964.914 180.584 965.938 180.584C967.133 180.584 968.199 181.821 969.138 184.296C970.333 181.821 971.613 178.408 972.978 174.056C974.343 169.704 975.709 164.371 977.074 158.056C963.762 155.24 953.565 153.832 946.482 153.832C932.061 153.832 924.85 158.824 924.85 168.808C924.85 175.379 928.647 181.309 936.242 186.6C936.583 186.856 936.754 187.069 936.754 187.24C936.754 187.496 936.583 187.624 936.242 187.624C936.157 187.624 935.943 187.539 935.602 187.368C925.533 181.651 920.498 174.781 920.498 166.76C920.498 161.043 923.229 156.861 928.69 154.216C932.871 152.253 938.119 151.272 944.434 151.272C951.943 151.272 962.994 152.68 977.586 155.496C977.842 153.789 978.141 151.997 978.482 150.12C978.909 148.243 979.335 146.323 979.762 144.36C980.018 144.445 980.146 145.341 980.146 147.048C980.146 149.267 979.762 152.168 978.994 155.752L988.978 157.672C996.999 144.275 1005.79 137.576 1015.35 137.576C1021.15 137.576 1024.05 140.008 1024.05 144.872C1024.05 145.811 1023.88 146.28 1023.54 146.28C1023.2 146.28 1023.03 145.896 1023.03 145.128C1023.03 141.629 1020.68 139.88 1015.99 139.88C1009.5 139.88 1002.67 146.237 995.506 158.952C1000.2 159.805 1004.25 160.445 1007.67 160.872C1011.16 161.299 1014.07 161.512 1016.37 161.512C1025.07 161.512 1029.43 159.336 1029.43 154.984C1029.43 154.301 1029.3 153.747 1029.04 153.32C1028.79 152.808 1028.66 152.467 1028.66 152.296C1028.66 152.04 1028.74 151.912 1028.91 151.912C1029.51 151.912 1030.07 152.68 1030.58 154.216C1030.92 155.24 1031.09 156.221 1031.09 157.16C1031.09 162.621 1026.7 165.352 1017.91 165.352C1015.43 165.352 1012.19 165.053 1008.18 164.456C1004.17 163.859 999.389 162.963 993.842 161.768C993.501 162.365 992.221 164.968 990.002 169.576C987.783 174.184 984.541 180.797 980.274 189.416C982.749 187.965 987.997 187.24 996.018 187.24C1004.55 187.24 1011.46 188.093 1016.75 189.8C1017.18 189.971 1017.39 190.141 1017.39 190.312C1017.39 190.568 1017.22 190.696 1016.88 190.696C1015.94 190.696 1014.54 190.611 1012.66 190.44C1010.87 190.184 1009.46 190.056 1008.43 190.056C1005.45 190.056 1002.5 190.184 999.602 190.44C996.786 190.696 994.055 191.037 991.41 191.464C982.877 193.085 978.61 195.688 978.61 199.272C978.61 199.613 978.695 200.083 978.866 200.68C979.122 201.192 979.25 201.576 979.25 201.832C978.738 201.832 978.141 201.277 977.458 200.168C976.861 199.059 976.519 198.077 976.434 197.224C973.447 203.027 970.546 208.104 967.73 212.456C964.999 216.808 962.311 220.477 959.666 223.464C951.303 232.851 942.557 237.544 933.426 237.544ZM1023.51 223.72C1019.24 223.72 1017.11 221.544 1017.11 217.192C1017.11 212.499 1019.28 204.264 1023.64 192.488C1021.5 195.389 1020.01 196.84 1019.16 196.84C1018.9 196.84 1018.77 196.712 1018.77 196.456C1018.77 196.371 1019.88 194.877 1022.1 191.976C1023.21 190.525 1024.06 189.416 1024.66 188.648C1025.34 187.795 1025.73 187.24 1025.81 186.984C1026.24 185.789 1026.84 184.253 1027.6 182.376C1028.37 180.499 1029.27 178.365 1030.29 175.976C1032.17 171.709 1034.09 167.443 1036.05 163.176C1038.01 158.824 1040.06 154.472 1042.2 150.12C1042.88 148.669 1043.73 146.92 1044.76 144.872C1045.87 142.824 1047.15 140.477 1048.6 137.832C1049.53 136.381 1051.28 135.656 1053.84 135.656C1055.38 135.656 1056.15 136.04 1056.15 136.808C1056.15 137.064 1056.11 137.277 1056.02 137.448L1049.11 152.808L1046.29 158.952C1045.69 159.293 1044.93 159.933 1043.99 160.872C1043.99 160.872 1043.52 161.768 1042.58 163.56C1041.73 165.352 1040.36 167.997 1038.48 171.496C1026.45 194.877 1020.44 210.152 1020.44 217.32C1020.44 220.136 1021.37 221.544 1023.25 221.544C1025.39 221.544 1027.9 220.349 1030.8 217.96C1033.79 215.485 1035.2 214.248 1035.03 214.248C1035.37 214.248 1035.54 214.419 1035.54 214.76C1035.54 215.101 1035.37 215.443 1035.03 215.784C1031.27 221.075 1027.43 223.72 1023.51 223.72ZM1044.68 224.616C1041.35 224.616 1039.69 222.483 1039.69 218.216C1039.69 213.011 1041.65 207.677 1045.58 202.216C1044.21 198.888 1043.53 195.347 1043.53 191.592C1043.53 187.923 1044.25 184.723 1045.7 181.992C1048.43 176.616 1051.93 173.928 1056.2 173.928C1061.49 173.928 1064.56 178.451 1065.42 187.496C1067.55 187.581 1069.13 188.264 1070.15 189.544C1071.26 190.739 1071.82 192.445 1071.82 194.664C1071.82 196.371 1071.6 197.608 1071.18 198.376C1070.83 199.059 1070.49 199.4 1070.15 199.4C1069.81 199.4 1069.64 199.229 1069.64 198.888C1069.64 198.461 1069.68 197.949 1069.77 197.352C1069.94 196.755 1070.02 196.029 1070.02 195.176C1070.02 193.981 1069.6 193.085 1068.74 192.488C1067.89 191.805 1066.82 191.464 1065.54 191.464C1064.52 201.875 1062 209.853 1057.99 215.4H1061.96C1060.85 216.083 1059.87 216.424 1059.02 216.424C1058.85 216.424 1058.59 216.381 1058.25 216.296C1057.99 216.211 1057.78 216.168 1057.61 216.168C1057.78 216.253 1056.29 217.661 1053.13 220.392C1049.8 223.208 1046.98 224.616 1044.68 224.616ZM1046.98 200.808C1052.19 193.811 1057.65 189.459 1063.37 187.752C1061.66 180.413 1059.31 176.744 1056.33 176.744C1053.6 176.744 1051.08 179.432 1048.78 184.808C1047.33 188.392 1046.6 192.189 1046.6 196.2C1046.6 197.821 1046.73 199.357 1046.98 200.808ZM1053.9 214.76C1055.94 212.883 1058.03 209.213 1060.17 203.752C1062.39 198.12 1063.5 193.981 1063.5 191.336C1061.62 191.592 1058.67 193.341 1054.66 196.584C1050.74 199.741 1048.31 202.259 1047.37 204.136C1049.16 210.621 1051.34 214.163 1053.9 214.76ZM1045.06 220.776C1047.45 220.776 1050.23 218.984 1053.38 215.4C1050.57 215.059 1048.26 211.688 1046.47 205.288C1043.66 209.981 1042.25 213.651 1042.25 216.296C1042.25 219.283 1043.19 220.776 1045.06 220.776ZM1077.11 224.488C1074.63 224.488 1073.39 222.867 1073.39 219.624C1073.39 214.333 1075.74 207.635 1080.43 199.528C1080.26 199.699 1079.92 200.168 1079.41 200.936C1078.9 201.619 1078.17 202.557 1077.23 203.752C1075.53 206.227 1074.55 207.464 1074.29 207.464C1074.12 207.464 1074.03 207.336 1074.03 207.08C1074.03 205.885 1075.95 203.069 1079.79 198.632C1083.38 194.28 1085.89 191.549 1087.35 190.44C1089.22 189.075 1090.84 188.392 1092.21 188.392C1093.15 188.392 1093.62 188.648 1093.62 189.16C1093.62 189.416 1093.45 189.672 1093.11 189.928C1091.74 191.379 1090.25 193.341 1088.62 195.816C1087 198.205 1085.21 201.107 1083.25 204.52C1078.81 212.029 1076.59 217.192 1076.59 220.008C1076.59 221.032 1076.93 221.544 1077.62 221.544C1080.26 221.544 1083.46 219.837 1087.22 216.424C1090.97 213.011 1095.07 207.677 1099.51 200.424L1103.35 194.152C1103.69 193.555 1104.63 193.256 1106.16 193.256C1107.95 193.256 1108.85 193.896 1108.85 195.176C1105.61 200.211 1103.99 205.544 1103.99 211.176C1103.99 215.272 1105.09 217.32 1107.31 217.32C1109.45 217.32 1111.96 215.016 1114.87 210.408C1115.97 208.616 1116.91 206.909 1117.68 205.288C1118.53 203.581 1119.17 202.003 1119.6 200.552C1117.47 193.64 1116.4 189.8 1116.4 189.032C1116.4 187.581 1117.04 186.856 1118.32 186.856C1119.77 186.856 1121.09 187.837 1122.29 189.8C1123.23 191.507 1123.7 193.171 1123.7 194.792C1123.7 196.584 1123.27 198.376 1122.42 200.168C1122.59 201.277 1122.8 202.387 1123.06 203.496C1123.31 204.52 1123.83 205.416 1124.59 206.184C1124.93 206.611 1125.11 207.037 1125.11 207.464C1125.11 207.805 1124.98 207.976 1124.72 207.976C1123.95 207.976 1122.55 206.013 1120.5 202.088C1119.3 206.269 1117.77 209.939 1115.89 213.096C1113.07 217.619 1110.21 219.88 1107.31 219.88C1104.41 219.88 1102.19 218.941 1100.66 217.064C1099.12 215.101 1098.35 212.627 1098.35 209.64C1098.35 208.275 1098.48 206.909 1098.74 205.544C1097.37 207.336 1095.88 209.171 1094.26 211.048C1092.64 212.925 1090.84 214.845 1088.88 216.808C1083.68 221.928 1079.75 224.488 1077.11 224.488Z" fill="white"/>
<path d="M178.114 91.3112L171.367 94.8176L178.886 93.6888L185.633 90.1823L178.114 91.3112Z" fill="#F9F0F0"/>
<path d="M177.311 92.8862L180.818 99.6329L179.689 92.1137L176.182 85.367L177.311 92.8862Z" fill="#F9F0F0"/>
<path d="M240.008 187.358L232.648 185.45L238.992 189.642L246.352 191.551L240.008 187.358Z" fill="#F9F0F0"/>
<path d="M238.358 187.992L236.449 195.352L240.642 189.008L242.551 181.648L238.358 187.992Z" fill="#F9F0F0"/>
<path d="M450.155 108.298L443.291 111.567L450.845 110.702L457.709 107.433L450.155 108.298Z" fill="#F9F0F0"/>
<path d="M449.298 109.844L452.567 116.709L451.702 109.155L448.433 102.29L449.298 109.844Z" fill="#F9F0F0"/>
<path d="M394.261 43.2729L387.138 45.931L394.739 45.727L401.862 43.0689L394.261 43.2729Z" fill="#F9F0F0"/>
<path d="M393.273 44.7385L395.931 51.8622L395.727 44.2615L393.069 37.1378L393.273 44.7385Z" fill="#F9F0F0"/>
<path d="M630.674 163.262L623.073 163.456L630.326 165.738L637.927 165.544L630.674 163.262Z" fill="#F9F0F0"/>
<path d="M629.262 164.326L629.456 171.927L631.738 164.674L631.544 157.073L629.262 164.326Z" fill="#F9F0F0"/>
<path d="M866.968 283.341L859.546 281.69L866.032 285.659L873.454 287.31L866.968 283.341Z" fill="#F9F0F0"/>
<path d="M865.341 284.032L863.69 291.454L867.659 284.968L869.31 277.546L865.341 284.032Z" fill="#F9F0F0"/>
<path d="M964.114 76.3112L957.367 79.8176L964.886 78.6888L971.633 75.1823L964.114 76.3112Z" fill="#F9F0F0"/>
<path d="M963.311 77.8862L966.818 84.6329L965.689 77.1137L962.182 70.367L963.311 77.8862Z" fill="#F9F0F0"/>
<path d="M1360.35 43.2593L1353.06 45.414L1360.65 45.7407L1367.94 43.586L1360.35 43.2593Z" fill="#F9F0F0"/>
<path d="M1359.26 44.6523L1361.41 51.9441L1361.74 44.3477L1359.59 37.0559L1359.26 44.6523Z" fill="#F9F0F0"/>
<path d="M1709.18 123.292L1702.26 126.441L1709.82 125.707L1716.74 122.559L1709.18 123.292Z" fill="#F9F0F0"/>
<path d="M1708.29 124.823L1711.44 131.744L1710.71 124.176L1707.56 117.255L1708.29 124.823Z" fill="#F9F0F0"/>
<path d="M1506.07 163.386L1498.82 161.095L1504.93 165.614L1512.18 167.905L1506.07 163.386Z" fill="#F9F0F0"/>
<path d="M1504.39 163.932L1502.1 171.182L1506.61 165.067L1508.9 157.817L1504.39 163.932Z" fill="#F9F0F0"/>
<path d="M1269.76 241.277L1262.16 240.941L1269.24 243.723L1276.84 244.059L1269.76 241.277Z" fill="#F9F0F0"/>
<path d="M1268.28 242.24L1267.94 249.836L1270.72 242.76L1271.06 235.164L1268.28 242.24Z" fill="#F9F0F0"/>
<path d="M1441.99 337.349L1434.6 335.57L1441.01 339.651L1448.4 341.431L1441.99 337.349Z" fill="#F9F0F0"/>
<path d="M1440.35 338.012L1438.57 345.404L1442.65 338.988L1444.43 331.596L1440.35 338.012Z" fill="#F9F0F0"/>
<path d="M1762.18 298.292L1755.26 301.441L1762.82 300.707L1769.74 297.559L1762.18 298.292Z" fill="#F9F0F0"/>
<path d="M1761.29 299.823L1764.44 306.744L1763.71 299.176L1760.56 292.255L1761.29 299.823Z" fill="#F9F0F0"/>
<path d="M1833.75 67.5016L1828.51 73.0136L1835.25 69.4982L1840.49 63.9863L1833.75 67.5016Z" fill="#F9F0F0"/>
<path d="M1833.5 69.2522L1839.01 74.4897L1835.5 67.7476L1829.99 62.5101L1833.5 69.2522Z" fill="#F9F0F0"/>
<path d="M310.928 322.325L303.452 320.935L310.072 324.675L317.548 326.065L310.928 322.325Z" fill="#F9F0F0"/>
<path d="M309.325 323.073L307.935 330.548L311.675 323.928L313.065 316.452L309.325 323.073Z" fill="#F9F0F0"/>
<path d="M58.5872 259.253L51.0183 259.977L58.4128 261.747L65.9817 261.023L58.5872 259.253Z" fill="#F9F0F0"/>
<path d="M57.253 260.413L57.9768 267.982L59.7469 260.587L59.0232 253.018L57.253 260.413Z" fill="#F9F0F0"/>
<path d="M103.781 36.2821L96.1922 35.8129L103.219 38.718L110.808 39.1872L103.781 36.2821Z" fill="#F9F0F0"/>
<path d="M102.282 37.2188L101.813 44.8078L104.718 37.7812L105.187 30.1922L102.282 37.2188Z" fill="#F9F0F0"/>
<path d="M501.348 211.259L494.056 213.414L501.652 213.741L508.944 211.586L501.348 211.259Z" fill="#F9F0F0"/>
<path d="M500.259 212.652L502.414 219.944L502.741 212.348L500.586 205.056L500.259 212.652Z" fill="#F9F0F0"/>
<path d="M695.24 58.2773L688.164 61.0594L695.76 60.7227L702.836 57.9407L695.24 58.2773Z" fill="#F9F0F0"/>
<path d="M694.277 59.76L697.059 66.8362L696.723 59.2402L693.941 52.164L694.277 59.76Z" fill="#F9F0F0"/>
<path d="M1218.46 134.251L1211 135.762L1218.54 136.749L1226 135.238L1218.46 134.251Z" fill="#F9F0F0"/>
<path d="M1217.25 135.544L1218.76 142.995L1219.75 135.456L1218.24 128.005L1217.25 135.544Z" fill="#F9F0F0"/>
<path d="M1053.39 366.255L1046.03 368.154L1053.61 368.745L1060.97 366.846L1053.39 366.255Z" fill="#F9F0F0"/>
<path d="M1052.25 367.609L1054.15 374.971L1054.75 367.391L1052.85 360.029L1052.25 367.609Z" fill="#F9F0F0"/>
<path d="M1658.12 219.417L1651 216.75L1656.87 221.582L1664 224.25L1658.12 219.417Z" fill="#F9F0F0"/>
<path d="M1656.42 219.875L1653.75 226.995L1658.58 221.125L1661.25 214.005L1656.42 219.875Z" fill="#F9F0F0"/>
<path d="M1166.28 41.2689L1159.11 43.8023L1166.72 43.7309L1173.89 41.1976L1166.28 41.2689Z" fill="#F9F0F0"/>
<path d="M1165.27 42.717L1167.8 49.886L1167.73 42.2828L1165.2 35.1139L1165.27 42.717Z" fill="#F9F0F0"/>
<defs>
<linearGradient id="paint0_linear_6_84" x1="950" y1="400" x2="950" y2="0" gradientUnits="userSpaceOnUse">
<stop stop-color="#8AC6E9"/>
<stop offset="1" stop-color="#2B8FC8"/>
</linearGradient>
</defs>
</svg>
