<svg width="1900" height="400" viewBox="0 0 1900 400" fill="none" xmlns="http://www.w3.org/2000/svg">
<g clip-path="url(#clip0_6_142)">
<rect width="1900" height="400" fill="url(#paint0_linear_6_142)"/>
<path opacity="0.9" d="M768.053 86.7727C769.421 73.2551 759.934 60.0396 746.999 55.5227C736.842 51.9761 718.545 53.0699 709.135 61.4419C700.59 50.3041 685.703 44.145 671.692 48.3057C657.649 52.4761 648.275 65.7842 647.214 79.8788C639.925 78.349 632.114 80.0781 626.05 84.796C617.095 91.7621 614.037 104.298 617.228 114.992C620.442 125.758 629.581 133.68 640.148 136.902C650.408 140.032 661.279 138.259 670.749 133.651C676.942 145.698 691.82 151.771 705.238 149.547C713.641 148.154 721.205 144.011 727.794 138.737C729.477 137.391 732.243 135.613 733.362 133.738C733.95 134.156 734.548 134.562 735.163 134.942C738.701 137.121 742.716 138.824 746.771 139.73C762.86 143.323 781.489 134.912 785.511 117.925C788.762 104.193 780.902 89.8961 768.053 86.7727Z" fill="white"/>
<g filter="url(#filter0_d_6_142)">
<path d="M822.488 192.856L821.848 200.536C819.885 200.365 817.752 200.28 815.448 200.28C813.229 200.28 811.352 200.323 809.816 200.408C808.621 209.795 807.853 219.992 807.512 231H798.552C798.04 228.781 797.784 225.837 797.784 222.168C797.784 218.499 797.869 215.341 798.04 212.696C798.296 209.965 798.595 207.277 798.936 204.632C799.277 201.987 799.448 200.451 799.448 200.024C798.253 199.939 795.437 199.896 791 199.896C786.563 199.896 783.491 199.981 781.784 200.152C771.885 213.464 762.755 223.576 754.392 230.488C746.029 237.315 737.667 240.728 729.304 240.728C725.208 240.728 721.795 239.491 719.064 237.016C716.248 234.541 714.84 231.256 714.84 227.16C714.84 219.395 720.728 212.312 732.504 205.912C744.365 199.512 759.683 195.203 778.456 192.984C780.675 189.571 784.813 184.323 790.872 177.24C796.931 170.072 802.904 163.843 808.792 158.552C811.352 152.579 813.357 148.44 814.808 146.136C816.344 143.747 817.837 142.552 819.288 142.552C820.739 142.552 821.933 143.107 822.872 144.216C823.811 145.325 824.28 146.776 824.28 148.568C824.28 150.275 823.299 152.835 821.336 156.248C819.459 159.576 817.496 164.781 815.448 171.864C813.4 178.861 811.992 185.475 811.224 191.704C815.661 191.704 819.416 192.088 822.488 192.856ZM757.208 219.608C764.291 212.867 769.624 206.467 773.208 200.408C758.872 201.261 747.779 203.949 739.928 208.472C732.163 212.995 728.28 217.816 728.28 222.936C728.28 225.155 729.005 226.904 730.456 228.184C731.992 229.464 733.997 230.104 736.472 230.104C743.128 230.104 750.04 226.605 757.208 219.608ZM800.984 191.704C801.581 188.803 802.349 185.176 803.288 180.824C804.312 176.387 804.909 173.784 805.08 173.016C800.984 176.941 798.125 179.843 796.504 181.72C794.883 183.512 792.024 187.011 787.928 192.216C789.379 192.131 791.128 192.088 793.176 192.088C795.309 192.003 797.059 191.917 798.424 191.832C799.789 191.747 800.643 191.704 800.984 191.704ZM883.037 215.512L885.725 217.56C883.848 221.315 881.245 224.472 877.917 227.032C874.674 229.592 871.73 230.872 869.085 230.872C866.44 230.872 864.349 230.104 862.813 228.568C861.277 227.032 860.509 225.112 860.509 222.808C860.509 220.504 861.96 216.493 864.861 210.776C867.848 204.973 869.341 200.707 869.341 197.976C869.341 196.781 868.829 195.715 867.805 194.776C866.866 193.752 865.714 193.24 864.349 193.24C859.997 193.24 855.602 196.568 851.165 203.224C846.728 209.795 841.778 219.309 836.317 231.768L828.637 229.08C830.258 219.181 832.562 209.539 835.549 200.152C838.621 190.68 841.437 183.896 843.997 179.8L849.245 181.464C846.856 187.523 843.826 197.976 840.157 212.824C851.933 192.685 862.77 182.616 872.669 182.616C874.802 182.616 876.552 183.341 877.917 184.792C879.368 186.243 880.093 187.949 880.093 189.912C880.093 191.875 879.837 193.667 879.325 195.288C878.813 196.824 877.192 200.493 874.461 206.296C871.816 212.013 870.493 215.597 870.493 217.048C870.493 218.499 870.92 219.651 871.773 220.504C872.626 221.272 873.437 221.656 874.205 221.656C874.973 221.656 875.613 221.528 876.125 221.272C876.637 221.016 877.192 220.632 877.789 220.12C878.472 219.608 879.069 219.139 879.581 218.712C880.093 218.285 880.69 217.731 881.373 217.048C882.141 216.28 882.696 215.768 883.037 215.512ZM914.892 176.728C910.113 176.728 907.724 174.808 907.724 170.968C907.724 168.835 908.321 167.043 909.516 165.592C910.711 164.141 912.247 163.416 914.124 163.416C916.001 163.416 917.537 163.971 918.732 165.08C919.927 166.189 920.524 167.64 920.524 169.432C920.524 171.224 920.012 172.888 918.988 174.424C917.964 175.96 916.599 176.728 914.892 176.728ZM913.228 214.488L915.788 216.664C913.74 220.589 911.009 223.96 907.596 226.776C904.268 229.507 901.239 230.872 898.508 230.872C893.729 230.872 891.34 227.544 891.34 220.888C891.34 212.611 894.753 201.816 901.58 188.504C903.116 185.603 904.012 183.896 904.268 183.384L909.772 186.712C907.98 189.955 905.761 195.117 903.116 202.2C900.556 209.283 899.276 213.848 899.276 215.896C899.276 217.859 899.703 219.267 900.556 220.12C901.409 220.973 902.433 221.4 903.628 221.4C905.932 221.4 909.132 219.096 913.228 214.488ZM984.982 151.512L1015.32 152.408C1016.85 152.408 1018.77 152.067 1021.08 151.384C1023.47 150.616 1025.05 150.232 1025.81 150.232C1026.58 150.232 1027.18 150.488 1027.61 151C1028.12 151.427 1028.37 151.981 1028.37 152.664C1028.37 154.456 1027.56 155.992 1025.94 157.272C1024.32 158.467 1022.19 159.32 1019.54 159.832C1014.59 160.941 1010.2 161.496 1006.36 161.496C1001.15 165.08 996.075 175.405 991.126 192.472C999.574 192.472 1004.82 192.6 1006.87 192.856L1006.61 198.872C1005.33 198.957 1003.41 199 1000.85 199L989.206 198.616C984.427 213.208 977.985 224.813 969.878 233.432C961.771 242.051 953.195 246.36 944.15 246.36C938.603 246.36 934.123 244.696 930.71 241.368C927.297 238.04 925.59 233.645 925.59 228.184C925.59 219.395 930.838 211.416 941.334 204.248C951.83 196.995 964.758 193.155 980.118 192.728C985.323 176.344 991.425 165.933 998.422 161.496L977.814 160.728C969.195 160.728 962.753 161.837 958.486 164.056C954.305 166.275 952.214 169.219 952.214 172.888C952.214 174.851 953.025 176.515 954.646 177.88C956.267 179.16 957.889 179.8 959.51 179.8C961.131 179.8 962.326 179.757 963.094 179.672C963.947 179.501 964.971 179.203 966.166 178.776C967.446 178.264 968.342 177.923 968.854 177.752C970.646 177.155 972.822 176.216 975.382 174.936L978.07 178.264C971.585 184.749 964.502 187.992 956.822 187.992C953.409 187.992 950.593 186.925 948.374 184.792C946.155 182.659 945.046 179.971 945.046 176.728C945.046 169.645 948.673 163.672 955.926 158.808C963.179 153.944 972.865 151.512 984.982 151.512ZM967.062 223.064C971.67 215.896 975.339 207.875 978.07 199C967.489 199.853 958.145 203.224 950.038 209.112C942.017 215 938.006 221.315 938.006 228.056C938.006 230.701 938.902 232.877 940.694 234.584C942.571 236.291 945.003 237.144 947.99 237.144C950.977 237.144 954.219 235.864 957.718 233.304C961.217 230.829 964.331 227.416 967.062 223.064ZM1040.62 218.712L1043.31 220.888C1040.41 225.411 1037.89 228.696 1035.76 230.744C1033.71 232.707 1031.41 233.688 1028.85 233.688C1026.29 233.688 1024.2 232.664 1022.58 230.616C1020.95 228.568 1020.14 226.008 1020.14 222.936C1020.14 216.963 1024.07 204.12 1031.92 184.408C1039.77 164.611 1047.83 147.203 1056.11 132.184L1061.74 135.256C1053.38 151.469 1045.83 167.597 1039.09 183.64C1032.35 199.597 1028.98 211.075 1028.98 218.072C1028.98 222.083 1030.47 224.088 1033.46 224.088C1035.84 224.088 1038.23 222.296 1040.62 218.712ZM1091.89 192.984C1094.1 196.653 1095.21 200.707 1095.21 205.144C1095.21 212.056 1092.82 218.243 1088.05 223.704C1083.27 229.08 1077.63 231.768 1071.15 231.768C1066.2 231.768 1062.32 230.36 1059.5 227.544C1056.77 224.643 1055.41 220.675 1055.41 215.64C1055.41 207.533 1058.56 200.28 1064.88 193.88C1071.19 187.395 1078.27 184.152 1086.12 184.152C1087.58 184.152 1088.6 184.195 1089.2 184.28L1089.58 188.504C1082.75 188.504 1077.08 190.467 1072.56 194.392C1068.03 198.317 1065.77 203.352 1065.77 209.496C1065.77 213.165 1066.67 216.152 1068.46 218.456C1070.25 220.675 1072.86 221.784 1076.27 221.784C1079.77 221.784 1082.54 220.248 1084.59 217.176C1086.64 214.104 1087.66 210.52 1087.66 206.424C1087.66 202.243 1086.85 198.445 1085.23 195.032L1091.89 192.984ZM1170.48 181.208L1174.07 184.536L1166.39 193.88C1157.34 205.059 1150.64 216.152 1146.29 227.16C1145.18 229.464 1144.03 230.616 1142.84 230.616C1141.73 230.616 1140.79 230.488 1140.02 230.232C1139.34 229.891 1138.53 228.781 1137.59 226.904C1136.73 225.027 1136.14 222.765 1135.8 220.12C1135.45 217.475 1135.16 215.213 1134.9 213.336C1134.64 211.459 1134.47 210.093 1134.39 209.24C1134.3 208.301 1134.17 207.363 1134 206.424C1133.92 205.4 1133.83 204.632 1133.75 204.12C1133.66 203.608 1133.58 203.096 1133.49 202.584C1133.41 202.072 1133.28 201.603 1133.11 201.176C1132.94 200.664 1132.81 200.237 1132.72 199.896C1132.64 199.469 1132.43 198.787 1132.08 197.848C1131.83 196.909 1131.61 196.099 1131.44 195.416C1127.01 200.195 1123.21 205.827 1120.05 212.312C1118.86 214.787 1116.51 219.736 1113.01 227.16C1112.24 228.781 1111.18 229.592 1109.81 229.592C1108.53 229.592 1107.47 229.464 1106.61 229.208C1105.84 228.867 1105.03 227.843 1104.18 226.136C1103.33 224.429 1102.69 221.869 1102.26 218.456C1100.21 201.304 1098.25 189.613 1096.37 183.384C1098.85 182.701 1101.32 182.36 1103.8 182.36C1104.22 183.128 1104.78 185.475 1105.46 189.4C1106.91 196.995 1108.75 205.912 1110.96 216.152C1115.15 208.131 1119.75 200.749 1124.79 194.008C1129.91 187.181 1133.28 183.768 1134.9 183.768C1136.78 183.768 1138.06 185.091 1138.74 187.736C1139.51 190.296 1140.15 194.648 1140.66 200.792C1141.26 206.851 1142.03 211.928 1142.96 216.024C1150.99 202.285 1160.16 190.68 1170.48 181.208Z" fill="white"/>
</g>
<path opacity="0.8" d="M1169.53 279.953C1164.62 272.649 1155.55 269.805 1147.29 271.288C1147.73 252.307 1132.54 234.501 1112.06 234.012C1090 233.485 1072.73 250.401 1069.78 270.586C1057.4 260.403 1037.07 262.601 1029.98 280.032C1022.22 299.107 1038.6 316.195 1056.51 314.539C1058.74 324.273 1069.79 330.268 1080.11 330.875C1093.28 331.65 1106.2 327.087 1116.73 319.37C1130.2 331.331 1152.09 327.799 1161.13 311.632C1171.84 305.397 1176.94 290.999 1169.53 279.953Z" fill="white"/>
<g clip-path="url(#clip1_6_142)">
<g filter="url(#filter1_d_6_142)">
<path d="M1464.5 393.147C1464.44 392.075 1464.39 390.974 1464.34 389.848C1464.31 389.285 1464.28 388.714 1464.25 388.138L1464.21 387.269L1464.08 386.397C1463.5 381.718 1462.63 376.634 1460.87 371.494C1460.43 370.212 1460.04 368.886 1459.53 367.593C1458.98 366.315 1458.42 365.02 1457.86 363.713C1457.56 363.066 1457.32 362.384 1456.97 361.756C1456.63 361.123 1456.29 360.485 1455.95 359.844C1455.25 358.574 1454.62 357.239 1453.83 355.991C1450.79 350.915 1447.1 346.06 1443.05 341.406C1438.9 336.856 1434.41 332.511 1429.68 328.471C1424.93 324.478 1420.04 320.664 1415.09 317.14C1410.16 313.611 1405.23 310.253 1400.43 307.099C1395.65 303.951 1391.03 300.909 1386.65 298.025C1382.29 295.147 1378.25 292.358 1374.59 289.727C1372.77 288.4 1371.06 287.101 1369.44 285.863C1367.88 284.575 1366.33 283.408 1364.99 282.216C1363.69 281.101 1362.51 280.022 1361.43 278.999C1341.58 254.629 1347.77 235.213 1348.56 219.311C1349.51 200.172 1350.94 182.623 1352.37 144.666L1206.75 146.277C1206.75 146.277 1206.75 151.978 1206.75 193.547C1206.75 233.801 1189.51 254.973 1164.11 266.349C1160.43 267.585 1156.62 268.863 1152.72 270.174C1147.26 272.002 1141.6 274.001 1135.87 276.168C1130.13 278.306 1124.39 280.856 1118.72 283.572C1113.06 286.353 1107.54 289.5 1102.29 292.937C1097.12 296.507 1092.23 300.368 1087.94 304.62C1086.85 305.654 1085.88 306.818 1084.87 307.894C1084.37 308.441 1083.87 308.986 1083.38 309.528C1082.87 310.06 1082.46 310.674 1082 311.238C1081.11 312.39 1080.23 313.53 1079.36 314.654C1078.54 315.813 1077.83 317.036 1077.08 318.197C1074.09 322.861 1072 327.674 1070.3 332.139L1069.97 332.968L1069.72 333.812C1069.55 334.372 1069.38 334.927 1069.22 335.474C1068.9 336.567 1068.58 337.634 1068.27 338.676C1067.92 339.706 1067.74 340.747 1067.53 341.75C1067.33 342.752 1067.13 343.726 1066.94 344.669C1066.76 345.613 1066.54 346.519 1066.41 347.405C1066.31 348.295 1066.21 349.151 1066.11 349.975C1065.93 351.62 1065.77 353.13 1065.62 354.495C1065.49 357.23 1065.47 359.376 1065.42 360.835C1065.39 362.293 1065.36 363.07 1065.36 363.07L1069.3 363.215C1069.3 363.215 1069.37 362.469 1069.49 361.069C1069.62 359.672 1069.75 357.616 1070.03 355.014C1070.24 353.726 1070.48 352.3 1070.74 350.748C1070.87 349.972 1071 349.164 1071.14 348.326C1071.3 347.494 1071.55 346.652 1071.76 345.771C1071.99 344.893 1072.22 343.988 1072.45 343.055C1072.69 342.122 1072.9 341.155 1073.28 340.209C1073.61 339.253 1073.96 338.272 1074.31 337.27C1074.49 336.768 1074.66 336.26 1074.84 335.748L1075.11 334.974L1075.46 334.222C1077.24 330.163 1079.36 325.836 1082.3 321.704C1083.04 320.675 1083.73 319.591 1084.53 318.569C1085.37 317.571 1086.21 316.561 1087.06 315.541C1087.5 315.04 1087.89 314.493 1088.37 314.024C1088.85 313.545 1089.32 313.063 1089.8 312.579C1090.77 311.628 1091.68 310.597 1092.72 309.685C1096.8 305.932 1101.45 302.531 1106.38 299.384C1109.23 297.669 1112.17 296.049 1115.17 294.511C1094.97 311.721 1085.53 331.469 1081.3 353.665C1074.65 388.587 1087.24 397.851 1087.24 397.851H1096.51C1096.51 397.851 1085.34 384.31 1093.89 353.189C1102.45 322.069 1123.35 303.539 1155.74 284.771C1131.82 301.401 1106.25 340.599 1114.56 378.133C1122.88 415.668 1151.38 432.773 1151.38 432.773L1160.65 428.71C1151.86 410.156 1154 385.022 1154 385.022C1157.09 415.192 1178.23 428.71 1178.23 428.71L1182.8 427.675L1273.32 458.351H1319.58C1329.32 446.631 1333.6 406.482 1333.6 406.482C1333.6 406.482 1331.7 452.728 1329.56 460.093C1345.8 462.747 1372.56 460.093 1372.56 460.093C1372.56 460.093 1391.8 448.214 1399.16 405.136C1406.53 362.057 1384.91 322.818 1384.91 322.818C1384.91 322.818 1406.95 335.847 1419.76 363.168C1434.89 395.416 1428.86 423.984 1428.86 423.984L1435.75 426.596C1451.4 382.829 1434.61 350.754 1409.89 324.45C1414.8 327.75 1419.66 331.212 1424.34 334.854C1428.98 338.522 1433.36 342.446 1437.4 346.54C1441.33 350.723 1444.92 355.07 1447.89 359.609C1450.74 364.192 1453.24 368.823 1454.91 373.493C1456.77 378.108 1457.79 382.731 1458.56 387.039L1458.72 387.842L1458.8 388.647C1458.85 389.18 1458.9 389.71 1458.95 390.231C1459.06 391.279 1459.16 392.302 1459.26 393.298C1459.4 394.296 1459.38 395.277 1459.39 396.231C1459.4 397.186 1459.41 398.113 1459.42 399.012C1459.42 399.911 1459.47 400.784 1459.43 401.626C1459.37 402.468 1459.31 403.279 1459.25 404.06C1459.15 405.624 1459.06 407.064 1458.97 408.364C1458.65 410.951 1458.32 412.984 1458.13 414.377C1457.93 415.77 1457.82 416.513 1457.82 416.513L1461.66 417.413C1461.66 417.413 1461.82 416.652 1462.11 415.224C1462.39 413.794 1462.87 411.705 1463.36 409.027C1463.53 407.673 1463.71 406.172 1463.92 404.538C1464.02 403.722 1464.12 402.87 1464.23 401.987C1464.32 401.102 1464.32 400.176 1464.37 399.224C1464.4 398.27 1464.44 397.285 1464.48 396.272C1464.52 395.263 1464.59 394.22 1464.5 393.147Z" fill="#3F3230"/>
<path opacity="0.6" d="M1317.51 216.669C1314.87 232.349 1300.26 267.402 1291.42 278.891H1283.47V216.669H1317.51Z" fill="#2B201F"/>
<path opacity="0.6" d="M1244.62 228.785H1213.4C1213.4 228.785 1207.52 238.12 1198.36 246.994V276.976H1246.12L1244.62 228.785Z" fill="#2B201F"/>
<path opacity="0.6" d="M1340.76 309.083C1334.8 289.302 1329.72 268.353 1327.88 247.856C1327.88 247.856 1315.64 268.021 1317.51 295.203L1340.76 309.083Z" fill="#2B201F"/>
<path d="M1206.62 263.469C1206.62 263.469 1169.91 297.263 1158.51 307.769C1134.28 326.352 1117.17 344.407 1116.46 346.544C1115.75 348.682 1125.25 370.775 1134.99 382.416C1144.73 394.057 1165.4 404.19 1178.23 406.488H1236.91V297.368L1206.62 263.469Z" fill="white" stroke="#292B2E" stroke-width="3" stroke-miterlimit="10" stroke-linecap="round" stroke-linejoin="round"/>
<path d="M1116.46 346.544C1116.46 346.544 1122.56 372.511 1135.39 383.795C1145.2 392.424 1163.14 400.827 1172.41 402.371V380.753C1172.41 380.753 1134.28 352.246 1116.46 346.544Z" fill="#E0E0E0" stroke="#292B2E" stroke-width="3" stroke-miterlimit="10" stroke-linecap="round" stroke-linejoin="round"/>
<path d="M1306.05 223.961C1306.05 223.961 1299.89 236.791 1296.2 248.826C1292.5 260.862 1290.28 272.265 1298.91 283.193V308.534H1232.41V270.523C1232.41 270.523 1244.67 267.832 1246.41 259.753C1248.15 251.677 1251 223.96 1251 223.96L1306.05 223.961Z" fill="#FBEBE1" stroke="#292B2E" stroke-width="3" stroke-miterlimit="10"/>
<path d="M1251 223.961C1251 223.961 1248.15 251.678 1246.41 259.754C1246.04 261.461 1245.2 262.925 1244.11 264.176C1246.12 267.266 1249.17 270.75 1252.43 270.207C1257.44 269.371 1283.31 255.074 1298.29 242.574C1301.84 232.733 1306.05 223.961 1306.05 223.961H1251Z" fill="#292B2E"/>
<path d="M1205.36 197.936C1199.93 198.995 1192.78 210.476 1195.26 218.006C1189.21 213.071 1188.12 203.284 1193.48 196.797C1198.84 190.31 1204.41 192.158 1206.62 195.837L1205.36 197.936Z" fill="#2B201F"/>
<path d="M1184.05 167.54C1184.05 167.54 1183.26 196.668 1204.44 201.109H1215.41V167.132L1184.05 167.54Z" fill="#2B201F"/>
<path d="M1200.68 200.205C1200.44 204.125 1196.8 214.07 1199.73 220.397C1207.09 236.314 1227.17 257.695 1245.7 257.695C1256.39 257.695 1296.89 249.618 1308.53 223.01C1308.53 223.01 1319.93 216.24 1324.92 201.867C1329.91 187.494 1349.27 147.465 1322.67 111.118C1296.06 74.77 1236.19 73.345 1204.6 101.139C1173 128.933 1188.21 180.725 1200.68 200.205Z" fill="white"/>
<path d="M1200.68 200.205C1200.44 204.125 1196.8 214.07 1199.73 220.397C1207.09 236.314 1227.17 257.695 1245.7 257.695C1256.39 257.695 1296.89 249.618 1308.53 223.01C1308.53 223.01 1319.93 216.24 1324.92 201.867C1329.91 187.494 1349.27 147.465 1322.67 111.118C1296.06 74.77 1236.19 73.345 1204.6 101.139C1173 128.933 1188.21 180.725 1200.68 200.205Z" fill="#FBEBE1"/>
<path d="M1335.51 165.715C1337.85 149.152 1336.24 129.658 1322.67 111.119C1296.06 74.771 1236.19 73.346 1204.6 101.14C1175.24 126.962 1186.28 173.488 1198 195.583C1199.41 196.409 1200.96 197.124 1202.67 197.638C1202.67 197.638 1209.27 190.197 1214.84 190.365C1220.4 190.534 1226.14 196.434 1235.44 196.3C1244.75 196.165 1254.18 192.423 1262.48 191.466C1270.78 190.509 1298.47 191.466 1298.47 191.466L1312.45 184.743L1335.51 165.715Z" fill="#F4D2C9"/>
<path d="M1200.68 200.205C1200.44 204.125 1196.8 214.07 1199.73 220.397C1207.09 236.314 1227.17 257.695 1245.7 257.695C1256.39 257.695 1296.89 249.618 1308.53 223.01C1308.53 223.01 1319.93 216.24 1324.92 201.867C1329.91 187.494 1349.27 147.465 1322.67 111.118C1296.06 74.77 1236.19 73.345 1204.6 101.139C1173 128.933 1188.21 180.725 1200.68 200.205Z" stroke="#292B2E" stroke-width="3" stroke-miterlimit="10"/>
<path d="M1286.36 203.013C1286.36 203.013 1286.41 203.129 1286.49 203.305C1286.57 203.477 1286.67 203.713 1286.76 203.968C1286.94 204.457 1287.12 204.945 1287.12 204.945C1287.15 205.027 1287.1 205.117 1287.01 205.142C1286.95 205.163 1286.88 205.144 1286.83 205.102L1286.81 205.085C1286.81 205.085 1286.43 204.731 1286.05 204.379C1285.87 204.208 1285.66 204.04 1285.5 203.912C1285.35 203.784 1285.25 203.7 1285.25 203.7C1284.96 203.47 1284.94 203.078 1285.2 202.823C1285.45 202.57 1285.89 202.552 1286.18 202.782C1286.26 202.846 1286.32 202.93 1286.36 203.013Z" fill="#292B2E"/>
<path d="M1289.51 201.734C1289.51 201.734 1289.6 201.83 1289.74 201.972C1289.88 202.113 1290.06 202.305 1290.24 202.521C1290.59 202.932 1290.93 203.343 1290.93 203.343C1290.99 203.411 1290.97 203.51 1290.9 203.562C1290.84 203.6 1290.77 203.603 1290.71 203.577L1290.69 203.565C1290.69 203.565 1290.2 203.341 1289.71 203.117C1289.48 203.008 1289.22 202.907 1289.03 202.831C1288.83 202.755 1288.71 202.705 1288.71 202.705C1288.35 202.569 1288.19 202.205 1288.34 201.891C1288.5 201.576 1288.91 201.431 1289.26 201.567C1289.35 201.605 1289.44 201.666 1289.51 201.734Z" fill="#292B2E"/>
<path d="M1291.64 200.322C1291.64 200.322 1291.75 200.4 1291.91 200.518C1292.07 200.634 1292.3 200.791 1292.52 200.974C1292.94 201.32 1293.37 201.665 1293.37 201.665C1293.44 201.724 1293.45 201.822 1293.38 201.888C1293.33 201.933 1293.26 201.949 1293.2 201.932L1293.18 201.925C1293.18 201.925 1292.65 201.787 1292.12 201.648C1291.87 201.578 1291.6 201.521 1291.39 201.48C1291.19 201.438 1291.05 201.409 1291.05 201.409C1290.67 201.335 1290.44 201.003 1290.52 200.669C1290.61 200.335 1290.98 200.125 1291.35 200.199C1291.46 200.222 1291.56 200.268 1291.64 200.322Z" fill="#292B2E"/>
<path d="M1277.91 173.635C1270.27 174.452 1264.94 181.278 1263.33 185.355C1261.73 189.432 1261.73 195.097 1264.4 198.274C1267.08 201.451 1274.14 204.204 1283.29 203.727C1292.44 203.25 1298.55 195.786 1298.91 187.473C1296.19 177.157 1288.68 172.717 1277.91 173.635Z" fill="white"/>
<path opacity="0.1" d="M1277.91 173.635C1270.27 174.452 1264.94 181.278 1263.33 185.355C1262.36 187.828 1261.99 190.882 1262.43 193.613C1266.06 186.147 1273.38 180.256 1286.4 183.662C1292.33 185.216 1295.8 189.632 1297.69 193.206C1298.4 191.398 1298.83 189.462 1298.91 187.474C1296.19 177.157 1288.68 172.717 1277.91 173.635Z" fill="#292B2E"/>
<path d="M1284.63 173.635C1278.92 173.635 1274.11 177.742 1272.57 183.365C1272.24 184.589 1272.05 185.882 1272.05 187.222C1272.05 194.726 1277.68 200.81 1284.63 200.81C1289.82 200.81 1294.27 197.406 1296.19 192.55C1296.84 190.913 1297.2 189.114 1297.2 187.222C1297.2 179.718 1291.57 173.635 1284.63 173.635Z" fill="#292B2E"/>
<path opacity="0.5" d="M1297.2 187.223C1297.2 179.718 1291.57 173.635 1284.63 173.635C1278.92 173.635 1274.11 177.742 1272.57 183.365C1273.86 182.941 1275.35 182.638 1276.96 182.501C1276.36 183.918 1276.02 185.519 1276.02 187.223C1276.02 192.957 1279.87 197.605 1284.63 197.605C1289.11 197.605 1292.79 193.47 1293.19 188.19C1293.18 188.18 1293.18 188.172 1293.17 188.164C1294.32 189.391 1295.35 190.841 1296.19 192.552C1296.84 190.914 1297.2 189.114 1297.2 187.223Z" fill="#292B2E"/>
<path opacity="0.5" d="M1297.2 187.223C1297.2 181.971 1294.44 177.424 1290.4 175.162C1289.67 174.789 1288.89 174.452 1288.08 174.166C1286.98 173.828 1285.82 173.635 1284.63 173.635C1281.64 173.635 1278.9 174.772 1276.74 176.657C1277.65 176.506 1278.59 176.414 1279.59 176.406C1293.13 176.3 1296.34 187.826 1296.4 190.984C1296.4 191.34 1296.4 191.678 1296.38 192.005C1296.9 190.515 1297.2 188.909 1297.2 187.223Z" fill="#292B2E"/>
<path d="M1288.88 187.223C1286.45 188.438 1285.63 189.421 1284.63 192.351C1283.62 189.421 1282.81 188.438 1280.38 187.223C1282.81 186.008 1283.62 185.025 1284.63 182.095C1285.63 185.024 1286.45 186.008 1288.88 187.223Z" fill="white" stroke="white" stroke-width="2" stroke-miterlimit="10" stroke-linecap="round" stroke-linejoin="round"/>
<path d="M1280.33 180.234C1280.33 181.591 1279.42 182.695 1278.29 182.695C1277.16 182.695 1276.25 181.591 1276.25 180.234C1276.25 178.874 1277.16 177.771 1278.29 177.771C1279.42 177.771 1280.33 178.874 1280.33 180.234Z" fill="white"/>
<path d="M1290.57 197.876C1290.57 199.526 1289.46 200.865 1288.09 200.865C1286.72 200.865 1285.61 199.526 1285.61 197.876C1285.61 196.224 1286.72 194.885 1288.09 194.885C1289.46 194.885 1290.57 196.224 1290.57 197.876Z" fill="white"/>
<path d="M1271.17 198.273C1274.38 196.526 1278.54 190.58 1277.83 189.713C1277.11 188.848 1271.23 188.901 1268.09 191.071C1268.09 191.071 1267.14 195.202 1271.17 198.273Z" fill="white"/>
<path d="M1302.83 179.514C1302.73 179.328 1302.48 179.251 1302.27 179.342L1302.24 179.358C1302.24 179.358 1302.12 179.409 1301.92 179.497C1301.82 179.542 1301.7 179.595 1301.56 179.655C1301.42 179.695 1301.25 179.739 1301.08 179.786C1300.91 179.847 1300.7 179.857 1300.5 179.886C1300.3 179.924 1300.08 179.917 1299.86 179.915C1299.64 179.928 1299.41 179.882 1299.18 179.86C1298.96 179.837 1298.73 179.764 1298.5 179.723C1298.45 179.708 1298.4 179.69 1298.35 179.674C1298.1 179.331 1297.84 178.994 1297.57 178.668C1297.79 178.568 1298 178.468 1298.19 178.346C1298.48 178.167 1298.75 178.014 1298.99 177.807C1299.23 177.614 1299.46 177.434 1299.64 177.223C1299.82 177.02 1300 176.846 1300.12 176.646C1300.24 176.46 1300.35 176.288 1300.45 176.135C1300.52 175.975 1300.58 175.834 1300.63 175.719C1300.73 175.496 1300.78 175.367 1300.78 175.367C1300.83 175.235 1300.8 175.081 1300.68 174.974C1300.52 174.827 1300.26 174.826 1300.09 174.97L1300.07 174.992C1300.07 174.992 1299.97 175.072 1299.81 175.216C1299.74 175.286 1299.64 175.369 1299.53 175.464C1299.41 175.544 1299.27 175.632 1299.12 175.73C1298.98 175.834 1298.79 175.902 1298.61 175.985C1298.43 176.078 1298.22 176.132 1298.01 176.194C1297.81 176.268 1297.57 176.291 1297.35 176.334C1297.13 176.376 1296.88 176.375 1296.66 176.398C1296.18 176.4 1295.71 176.382 1295.26 176.31L1295.26 176.309C1294.7 175.827 1294.1 175.379 1293.47 174.96C1293.66 174.827 1293.85 174.696 1294.02 174.544C1294.27 174.324 1294.51 174.132 1294.71 173.894C1294.91 173.668 1295.1 173.456 1295.23 173.22C1295.38 172.993 1295.52 172.795 1295.6 172.58C1295.68 172.378 1295.76 172.192 1295.83 172.028C1295.86 171.858 1295.9 171.711 1295.93 171.59C1295.98 171.356 1296.01 171.222 1296.01 171.222C1296.03 171.083 1295.98 170.936 1295.84 170.849C1295.65 170.728 1295.39 170.767 1295.25 170.934L1295.23 170.96C1295.23 170.96 1295.16 171.054 1295.03 171.217C1294.96 171.298 1294.88 171.394 1294.8 171.506C1294.69 171.602 1294.57 171.709 1294.44 171.828C1294.32 171.951 1294.15 172.047 1293.98 172.157C1293.83 172.273 1293.63 172.36 1293.43 172.454C1293.25 172.555 1293.02 172.613 1292.81 172.687C1292.6 172.763 1292.36 172.798 1292.14 172.857C1291.67 172.93 1291.2 172.982 1290.75 172.978C1290.3 172.99 1289.88 172.95 1289.52 172.915C1289.42 172.901 1289.33 172.888 1289.24 172.875C1286.78 172.021 1283.97 171.569 1280.74 171.64C1268.15 171.914 1257.81 182.335 1261.85 194.883C1261.69 189.447 1267.25 175.24 1280.8 175.134C1294.34 175.028 1297.54 186.553 1297.6 189.712C1297.66 192.871 1296.83 194.883 1296.83 194.883C1296.83 194.883 1300.45 192.341 1302.12 187.524C1301.53 185.539 1300.74 183.639 1299.75 181.876C1299.91 181.833 1300.07 181.782 1300.22 181.719C1300.51 181.604 1300.79 181.497 1301.04 181.348C1301.28 181.208 1301.52 181.093 1301.7 180.937C1301.88 180.794 1302.04 180.664 1302.19 180.548C1302.32 180.414 1302.42 180.299 1302.51 180.204C1302.68 180.018 1302.78 179.911 1302.78 179.911C1302.88 179.803 1302.9 179.648 1302.83 179.514Z" fill="#292B2E"/>
<path d="M1272.11 202.395C1272.11 202.395 1272.47 202.481 1273.1 202.603C1273.42 202.67 1273.8 202.737 1274.25 202.81C1274.69 202.889 1275.19 202.947 1275.74 203.037C1276.29 203.099 1276.88 203.185 1277.51 203.232C1278.14 203.274 1278.8 203.339 1279.49 203.358C1280.18 203.402 1280.89 203.392 1281.61 203.375C1282.33 203.388 1283.05 203.266 1283.79 203.236C1284.5 203.14 1285.23 203.052 1285.93 202.912C1286.27 202.828 1286.62 202.746 1286.95 202.662C1287.3 202.591 1287.63 202.499 1287.93 202.373C1288.56 202.129 1289.21 201.98 1289.73 201.678C1290.01 201.544 1290.27 201.414 1290.53 201.289C1290.66 201.226 1290.79 201.164 1290.91 201.103C1291.02 201.026 1291.14 200.952 1291.24 200.878C1291.68 200.587 1292.09 200.321 1292.44 200.085C1292.77 199.817 1293.04 199.562 1293.27 199.362C1293.73 198.958 1293.99 198.728 1293.99 198.728L1294.01 198.711C1294.08 198.652 1294.18 198.653 1294.25 198.713C1294.31 198.768 1294.31 198.856 1294.26 198.913C1294.26 198.913 1294.02 199.175 1293.6 199.633C1293.38 199.856 1293.14 200.143 1292.82 200.447C1292.47 200.717 1292.07 201.023 1291.64 201.357C1291.53 201.439 1291.42 201.524 1291.3 201.609C1291.18 201.679 1291.05 201.752 1290.92 201.824C1290.65 201.969 1290.38 202.12 1290.1 202.274C1289.56 202.613 1288.9 202.823 1288.24 203.084C1287.92 203.223 1287.57 203.326 1287.21 203.408C1286.86 203.501 1286.5 203.594 1286.14 203.688C1285.41 203.847 1284.65 203.956 1283.9 204.067C1283.14 204.12 1282.38 204.211 1281.63 204.195C1280.89 204.203 1280.15 204.199 1279.44 204.144C1278.73 204.121 1278.05 204.033 1277.41 203.951C1276.77 203.872 1276.17 203.756 1275.61 203.666C1273.4 203.238 1271.99 202.724 1271.99 202.724C1271.89 202.688 1271.84 202.586 1271.88 202.497C1271.92 202.418 1272.02 202.375 1272.11 202.395Z" fill="#292B2E"/>
<path d="M1256.78 171.635C1256.78 171.635 1276.1 160.506 1297.8 165.871C1291.15 162.623 1277.53 161.283 1267 163.965C1256.46 166.648 1256.7 168.785 1256.78 171.635Z" fill="#292B2E"/>
<path d="M1262.88 176.07C1262.88 176.07 1263.13 175.709 1263.58 175.091C1263.86 174.799 1264.19 174.427 1264.59 174.026C1265.02 173.667 1265.47 173.203 1266.06 172.823C1266.34 172.622 1266.64 172.412 1266.95 172.194C1267.28 171.999 1267.62 171.798 1267.97 171.59C1268.66 171.173 1269.45 170.809 1270.27 170.454C1270.68 170.289 1271.11 170.123 1271.54 169.953C1271.97 169.793 1272.43 169.676 1272.88 169.533C1273.33 169.387 1273.8 169.266 1274.27 169.172C1274.74 169.072 1275.21 168.947 1275.69 168.876C1276.66 168.747 1277.61 168.588 1278.58 168.562C1279.53 168.482 1280.48 168.533 1281.39 168.561C1282.3 168.586 1283.17 168.761 1283.99 168.849C1284.8 169.023 1285.57 169.187 1286.27 169.339C1286.96 169.548 1287.58 169.763 1288.13 169.944C1288.69 170.112 1289.12 170.359 1289.51 170.51C1290.25 170.85 1290.68 171.043 1290.68 171.043C1290.81 171.1 1290.86 171.236 1290.79 171.349C1290.73 171.451 1290.6 171.497 1290.48 171.459L1290.46 171.451C1290.46 171.451 1290.02 171.311 1289.24 171.066C1288.85 170.954 1288.41 170.753 1287.85 170.64C1287.3 170.513 1286.68 170.375 1286.02 170.202C1285.33 170.096 1284.59 169.979 1283.81 169.857C1283.02 169.815 1282.19 169.714 1281.33 169.711C1280.47 169.709 1279.58 169.69 1278.68 169.789C1277.77 169.82 1276.87 169.985 1275.96 170.115C1275.51 170.19 1275.07 170.306 1274.62 170.395C1274.18 170.48 1273.74 170.588 1273.31 170.724C1272.88 170.854 1272.45 170.966 1272.04 171.107C1271.63 171.254 1271.22 171.4 1270.82 171.543C1270.42 171.675 1270.05 171.872 1269.68 172.027C1269.3 172.186 1268.93 172.336 1268.6 172.522C1268.25 172.698 1267.92 172.871 1267.6 173.036C1267.29 173.225 1267 173.406 1266.71 173.581C1266.42 173.751 1266.16 173.927 1265.93 174.112C1265.68 174.287 1265.45 174.454 1265.23 174.609C1264.82 174.938 1264.49 175.242 1264.19 175.487C1263.66 176.051 1263.35 176.373 1263.35 176.373C1263.25 176.483 1263.07 176.497 1262.94 176.405C1262.83 176.324 1262.81 176.178 1262.88 176.07Z" fill="#292B2E"/>
<path d="M1207.78 202.38C1207.78 202.38 1207.69 202.483 1207.57 202.637C1207.45 202.787 1207.29 202.993 1207.13 203.223C1206.82 203.661 1206.52 204.096 1206.52 204.096C1206.47 204.17 1206.49 204.267 1206.58 204.312C1206.64 204.346 1206.71 204.342 1206.76 204.312L1206.79 204.299C1206.79 204.299 1207.25 204.035 1207.71 203.776C1207.93 203.647 1208.18 203.527 1208.37 203.436C1208.55 203.344 1208.67 203.285 1208.67 203.285C1209.01 203.122 1209.14 202.746 1208.95 202.444C1208.77 202.144 1208.35 202.032 1208.01 202.195C1207.92 202.24 1207.84 202.308 1207.78 202.38Z" fill="#292B2E"/>
<path d="M1210.05 203.355C1210.05 203.355 1209.97 203.457 1209.84 203.608C1209.72 203.758 1209.55 203.963 1209.4 204.192C1209.09 204.627 1208.78 205.06 1208.78 205.06C1208.73 205.134 1208.75 205.231 1208.83 205.277C1208.89 205.31 1208.96 205.308 1209.02 205.277L1209.04 205.265C1209.04 205.265 1209.51 205.005 1209.98 204.747C1210.2 204.62 1210.44 204.503 1210.63 204.413C1210.82 204.324 1210.94 204.265 1210.94 204.265C1211.28 204.104 1211.41 203.729 1211.23 203.426C1211.05 203.124 1210.63 203.009 1210.29 203.17C1210.19 203.215 1210.11 203.282 1210.05 203.355Z" fill="#292B2E"/>
<path d="M1206.35 201.102C1206.35 201.102 1206.22 201.157 1206.03 201.243C1205.85 201.327 1205.59 201.442 1205.33 201.581C1204.84 201.842 1204.34 202.102 1204.34 202.102C1204.26 202.147 1204.23 202.243 1204.28 202.317C1204.31 202.372 1204.38 202.398 1204.44 202.393L1204.47 202.392C1204.47 202.392 1205.02 202.351 1205.57 202.311C1205.83 202.287 1206.11 202.282 1206.32 202.28C1206.53 202.275 1206.67 202.272 1206.67 202.272C1207.06 202.267 1207.36 201.985 1207.36 201.642C1207.35 201.3 1207.04 201.028 1206.65 201.034C1206.54 201.033 1206.44 201.06 1206.35 201.102Z" fill="#292B2E"/>
<path d="M1199.07 185.514L1201.92 194.885C1203.59 197.955 1207.63 204.616 1214.49 205.152C1221.34 205.686 1225.15 201.909 1225.8 199.682C1226.45 197.455 1226.65 184.59 1221.7 179.107C1216.75 173.624 1204.36 170.689 1199.07 185.514Z" fill="white"/>
<path opacity="0.1" d="M1212.73 188.002C1218.96 187.651 1223.02 193.084 1225.09 201.072C1225.44 200.58 1225.68 200.102 1225.8 199.681C1226.45 197.454 1226.65 184.589 1221.7 179.106C1216.75 173.624 1204.36 170.688 1199.07 185.513L1201.92 194.884C1201.92 194.884 1205.18 188.425 1212.73 188.002Z" fill="#292B2E"/>
<path d="M1216.05 177.568C1211.77 177.568 1208.17 181.466 1207.01 186.804C1206.76 187.965 1206.62 189.191 1206.62 190.464C1206.62 197.586 1210.84 203.36 1216.05 203.36C1219.95 203.36 1223.3 200.131 1224.74 195.521C1225.22 193.968 1225.49 192.259 1225.49 190.463C1225.49 183.343 1221.27 177.568 1216.05 177.568Z" fill="#292B2E"/>
<path opacity="0.5" d="M1225.49 190.465C1225.49 183.343 1221.27 177.569 1216.05 177.569C1211.77 177.569 1208.16 181.467 1207.01 186.805C1207.97 186.403 1209.1 186.116 1210.31 185.984C1209.85 187.33 1209.59 188.849 1209.59 190.465C1209.59 195.908 1212.49 200.32 1216.06 200.32C1219.42 200.32 1222.18 196.396 1222.48 191.383C1222.48 191.382 1222.48 191.379 1222.48 191.379C1223.34 192.54 1224.11 193.908 1224.74 195.523C1225.22 193.97 1225.49 192.261 1225.49 190.465Z" fill="#292B2E"/>
<path opacity="0.5" d="M1225.49 190.465C1225.49 185.481 1223.42 181.164 1220.39 179.018C1219.84 178.664 1219.26 178.346 1218.64 178.073C1217.82 177.753 1216.95 177.569 1216.05 177.569C1213.81 177.569 1211.75 178.649 1210.14 180.438C1210.82 180.294 1211.53 180.207 1212.27 180.2C1222.44 180.099 1224.84 191.039 1224.89 194.036C1224.89 194.376 1224.89 194.696 1224.87 195.005C1225.27 193.59 1225.49 192.066 1225.49 190.465Z" fill="#292B2E"/>
<path d="M1219.49 189.864C1217.64 191.035 1217.02 191.984 1216.25 194.81C1215.48 191.984 1214.86 191.035 1213.01 189.864C1214.86 188.693 1215.48 187.744 1216.25 184.918C1217.02 187.744 1217.64 188.693 1219.49 189.864Z" fill="white" stroke="white" stroke-width="2" stroke-miterlimit="10" stroke-linecap="round" stroke-linejoin="round"/>
<path d="M1212.83 183.832C1212.83 185.121 1212.15 186.167 1211.3 186.167C1210.45 186.167 1209.77 185.121 1209.77 183.832C1209.77 182.542 1210.46 181.496 1211.3 181.496C1212.15 181.496 1212.83 182.542 1212.83 183.832Z" fill="white"/>
<path d="M1220.51 200.576C1220.51 202.143 1219.68 203.415 1218.65 203.415C1217.63 203.415 1216.79 202.144 1216.79 200.576C1216.79 199.008 1217.63 197.738 1218.65 197.738C1219.68 197.738 1220.51 199.009 1220.51 200.576Z" fill="white"/>
<path d="M1206.83 199.314C1209.24 197.656 1212.36 192.012 1211.82 191.191C1211.29 190.37 1206.88 190.42 1204.51 192.48C1204.51 192.48 1203.8 196.4 1206.83 199.314Z" fill="white"/>
<path d="M1214.86 173.057C1211.92 172.587 1209.14 172.99 1206.64 174.037C1206.34 174.064 1206.02 174.088 1205.68 174.079C1205.22 174.083 1204.76 174.03 1204.29 173.958C1204.07 173.898 1203.82 173.864 1203.61 173.788C1203.4 173.714 1203.17 173.655 1202.99 173.555C1202.79 173.461 1202.59 173.373 1202.44 173.258C1202.28 173.148 1202.1 173.053 1201.99 172.929C1201.86 172.811 1201.73 172.702 1201.63 172.607C1201.54 172.495 1201.46 172.397 1201.4 172.318C1201.26 172.155 1201.19 172.061 1201.19 172.061L1201.17 172.034C1201.03 171.867 1200.77 171.829 1200.58 171.948C1200.45 172.037 1200.39 172.184 1200.42 172.321C1200.42 172.321 1200.45 172.457 1200.5 172.691C1200.52 172.812 1200.56 172.96 1200.6 173.129C1200.67 173.294 1200.74 173.48 1200.83 173.682C1200.91 173.897 1201.05 174.095 1201.19 174.322C1201.33 174.558 1201.52 174.771 1201.72 174.996C1201.91 175.234 1202.16 175.427 1202.4 175.646C1202.6 175.821 1202.82 175.969 1203.05 176.124C1202.55 176.501 1202.07 176.905 1201.6 177.334C1201.46 177.361 1201.32 177.392 1201.16 177.412C1200.72 177.484 1200.25 177.502 1199.77 177.501C1199.54 177.477 1199.3 177.478 1199.07 177.436C1198.85 177.392 1198.62 177.37 1198.41 177.296C1198.2 177.235 1197.99 177.18 1197.82 177.087C1197.64 177.004 1197.45 176.936 1197.31 176.831C1197.16 176.734 1197.02 176.645 1196.89 176.566C1196.79 176.47 1196.69 176.387 1196.61 176.316C1196.45 176.174 1196.36 176.095 1196.36 176.095L1196.33 176.072C1196.17 175.927 1195.9 175.929 1195.74 176.076C1195.62 176.181 1195.59 176.338 1195.65 176.469C1195.65 176.469 1195.7 176.598 1195.79 176.821C1195.84 176.937 1195.9 177.077 1195.98 177.237C1196.08 177.389 1196.19 177.561 1196.31 177.748C1196.42 177.948 1196.6 178.122 1196.79 178.324C1196.97 178.536 1197.19 178.716 1197.43 178.909C1197.67 179.116 1197.95 179.268 1198.23 179.448C1198.52 179.625 1198.82 179.751 1199.13 179.905C1199.17 179.921 1199.21 179.931 1199.24 179.946C1199.1 180.13 1198.97 180.317 1198.83 180.507C1198.54 180.626 1198.24 180.733 1197.92 180.826C1197.7 180.867 1197.46 180.939 1197.24 180.962C1197.01 180.983 1196.78 181.029 1196.56 181.016C1196.34 181.017 1196.12 181.025 1195.92 180.988C1195.72 180.96 1195.52 180.949 1195.35 180.888C1195.17 180.841 1195.01 180.796 1194.86 180.755C1194.72 180.696 1194.6 180.643 1194.51 180.599C1194.3 180.511 1194.19 180.46 1194.19 180.46L1194.16 180.444C1193.95 180.353 1193.7 180.43 1193.59 180.616C1193.52 180.75 1193.55 180.905 1193.64 181.014C1193.64 181.014 1193.74 181.12 1193.91 181.307C1194 181.402 1194.11 181.517 1194.23 181.65C1194.38 181.766 1194.55 181.897 1194.73 182.04C1194.91 182.196 1195.14 182.311 1195.39 182.451C1195.63 182.601 1195.91 182.706 1196.21 182.821C1196.51 182.951 1196.82 183.018 1197.15 183.106C1197.18 183.113 1197.2 183.116 1197.23 183.122C1196.49 184.516 1195.89 185.995 1195.43 187.528C1197.1 192.345 1201.92 194.887 1201.92 194.887C1201.92 194.887 1201.45 193.133 1200.8 189.75C1200.85 186.593 1203.59 175.516 1214.5 176.885C1219.5 177.512 1226.27 186.31 1225.74 199.864C1231.32 183.411 1220.27 173.918 1214.86 173.057Z" fill="#292B2E"/>
<path d="M1224.49 173.068C1224.49 173.068 1211.38 161.941 1196.66 167.306C1201.17 164.058 1210.41 162.718 1217.56 165.4C1224.7 168.082 1224.54 170.22 1224.49 173.068Z" fill="#292B2E"/>
<path d="M1205.96 200.386C1205.96 200.386 1206.14 200.567 1206.45 200.881C1206.6 201.051 1206.8 201.208 1207.03 201.407C1207.24 201.607 1207.52 201.808 1207.81 202.041C1208.1 202.276 1208.46 202.481 1208.81 202.724C1209.2 202.924 1209.58 203.176 1210.01 203.375C1210.43 203.599 1210.88 203.781 1211.35 203.967C1211.82 204.129 1212.31 204.301 1212.8 204.422C1213.29 204.567 1213.8 204.659 1214.3 204.744C1214.8 204.808 1215.3 204.873 1215.78 204.877C1216.02 204.877 1216.26 204.884 1216.49 204.895C1216.72 204.893 1216.95 204.872 1217.17 204.862C1217.62 204.854 1218.03 204.775 1218.42 204.72C1218.81 204.676 1219.14 204.567 1219.46 204.506C1219.77 204.445 1220.03 204.356 1220.24 204.281C1220.68 204.143 1220.93 204.065 1220.93 204.065L1220.95 204.059C1221.04 204.031 1221.13 204.072 1221.16 204.15C1221.19 204.222 1221.16 204.299 1221.09 204.334C1221.09 204.334 1220.84 204.45 1220.42 204.652C1220.21 204.752 1219.95 204.875 1219.64 204.972C1219.32 205.069 1218.98 205.231 1218.57 205.299C1218.17 205.384 1217.73 205.497 1217.26 205.538C1216.78 205.609 1216.28 205.645 1215.76 205.64C1215.24 205.646 1214.7 205.591 1214.16 205.535C1213.62 205.456 1213.07 205.37 1212.54 205.225C1212 205.115 1211.49 204.898 1210.98 204.72C1210.49 204.511 1210.01 204.304 1209.57 204.057C1209.11 203.841 1208.71 203.554 1208.33 203.308C1207.97 203.027 1207.62 202.785 1207.33 202.514C1207.04 202.251 1206.77 202.017 1206.57 201.768C1206.36 201.529 1206.16 201.327 1206.05 201.149C1205.8 200.795 1205.65 200.592 1205.65 200.592C1205.59 200.511 1205.62 200.404 1205.71 200.353C1205.79 200.307 1205.9 200.322 1205.96 200.386Z" fill="#292B2E"/>
<path d="M1210.53 170.52C1210.53 170.52 1210.62 170.508 1210.81 170.499C1211 170.486 1211.27 170.474 1211.61 170.479C1211.95 170.481 1212.37 170.502 1212.84 170.537C1213.31 170.58 1213.85 170.631 1214.42 170.752C1215 170.841 1215.61 171.014 1216.26 171.174C1216.9 171.377 1217.58 171.572 1218.24 171.878C1218.57 172.026 1218.9 172.177 1219.24 172.329C1219.58 172.495 1219.89 172.696 1220.22 172.882C1220.89 173.237 1221.49 173.71 1222.1 174.158C1222.69 174.618 1223.21 175.161 1223.75 175.653C1224.21 176.207 1224.67 176.752 1225.11 177.281C1225.48 177.846 1225.81 178.407 1226.13 178.93C1226.45 179.457 1226.65 179.997 1226.88 180.473C1227.11 180.95 1227.3 181.393 1227.4 181.806C1227.52 182.211 1227.63 182.567 1227.71 182.858C1227.87 183.439 1227.96 183.773 1227.96 183.773C1228 183.893 1227.92 184.016 1227.78 184.045C1227.66 184.073 1227.53 184.016 1227.48 183.914L1227.47 183.893C1227.47 183.893 1227.32 183.583 1227.07 183.041C1226.94 182.77 1226.79 182.439 1226.62 182.062C1226.47 181.676 1226.21 181.279 1225.96 180.833C1225.7 180.395 1225.47 179.895 1225.13 179.417C1224.78 178.942 1224.4 178.45 1224.04 177.929C1223.61 177.452 1223.16 176.96 1222.71 176.461C1222.19 176.017 1221.72 175.519 1221.16 175.103C1220.58 174.707 1220.06 174.248 1219.44 173.922C1219.14 173.747 1218.85 173.562 1218.55 173.399C1218.24 173.248 1217.94 173.098 1217.64 172.95C1217.34 172.792 1217.03 172.674 1216.73 172.558C1216.43 172.437 1216.14 172.302 1215.85 172.2C1215.25 172.009 1214.7 171.804 1214.16 171.684C1213.1 171.408 1212.19 171.232 1211.55 171.15C1211.23 171.111 1210.98 171.074 1210.81 171.061C1210.64 171.041 1210.54 171.039 1210.54 171.039C1210.38 171.035 1210.26 170.915 1210.26 170.772C1210.26 170.644 1210.37 170.54 1210.51 170.522L1210.53 170.52Z" fill="#292B2E"/>
<path d="M1277.57 215.092C1277.53 215.041 1277.46 215.015 1277.39 215.031C1277.29 215.054 1277.23 215.153 1277.25 215.252L1277.89 218.048C1277.92 218.179 1277.99 218.308 1278.08 218.416C1278.39 218.786 1278.94 218.833 1279.31 218.521C1279.68 218.209 1279.73 217.656 1279.42 217.286L1277.57 215.092Z" fill="#E88987"/>
<path d="M1281.87 214.735C1281.82 214.684 1281.75 214.658 1281.68 214.673C1281.58 214.696 1281.52 214.795 1281.54 214.894L1282.19 217.691C1282.22 217.82 1282.28 217.949 1282.38 218.058C1282.69 218.428 1283.24 218.476 1283.61 218.163C1283.98 217.851 1284.03 217.299 1283.71 216.928L1281.87 214.735Z" fill="#E88987"/>
<path d="M1288.01 216.572L1286.16 214.379C1286.12 214.328 1286.05 214.302 1285.98 214.317C1285.88 214.34 1285.82 214.439 1285.84 214.539L1286.48 217.334C1286.51 217.465 1286.58 217.594 1286.67 217.702C1286.98 218.072 1287.53 218.119 1287.9 217.806C1288.27 217.495 1288.32 216.941 1288.01 216.572Z" fill="#E88987"/>
<path d="M1218.81 215.092C1218.85 215.041 1218.92 215.015 1218.99 215.031C1219.09 215.054 1219.15 215.153 1219.13 215.252L1218.48 218.048C1218.45 218.179 1218.39 218.308 1218.3 218.416C1217.99 218.786 1217.44 218.833 1217.07 218.521C1216.7 218.209 1216.65 217.656 1216.96 217.286L1218.81 215.092Z" fill="#E88987"/>
<path d="M1214.51 214.735C1214.56 214.684 1214.63 214.658 1214.7 214.673C1214.8 214.696 1214.86 214.795 1214.84 214.894L1214.19 217.691C1214.16 217.82 1214.1 217.949 1214.01 218.058C1213.69 218.428 1213.14 218.476 1212.77 218.163C1212.4 217.851 1212.35 217.299 1212.67 216.928L1214.51 214.735Z" fill="#E88987"/>
<path d="M1208.37 216.572L1210.22 214.379C1210.26 214.328 1210.33 214.302 1210.4 214.317C1210.5 214.34 1210.56 214.439 1210.54 214.539L1209.9 217.334C1209.87 217.465 1209.8 217.594 1209.71 217.702C1209.4 218.072 1208.85 218.119 1208.48 217.806C1208.1 217.495 1208.06 216.941 1208.37 216.572Z" fill="#E88987"/>
<path d="M1231.31 217.126C1231.31 217.126 1231.45 217.314 1231.67 217.559C1231.89 217.805 1232.18 218.129 1232.5 218.421C1232.65 218.569 1232.8 218.722 1232.95 218.851C1233.1 218.959 1233.24 219.059 1233.36 219.145C1233.59 219.311 1233.74 219.423 1233.74 219.423L1233.87 219.518C1234.41 219.909 1234.53 220.66 1234.14 221.196C1233.75 221.734 1233 221.852 1232.46 221.462C1232.34 221.372 1232.23 221.26 1232.15 221.139C1232.15 221.139 1232.01 220.913 1231.79 220.575C1231.69 220.409 1231.57 220.214 1231.44 220.006C1231.34 219.797 1231.24 219.572 1231.14 219.352C1230.93 218.916 1230.77 218.46 1230.65 218.125C1230.53 217.789 1230.47 217.575 1230.47 217.575L1230.46 217.541C1230.39 217.284 1230.54 217.022 1230.8 216.953C1231 216.898 1231.19 216.975 1231.31 217.126Z" fill="#292B2E"/>
<path d="M1255.85 231.428C1255.76 231.181 1255.49 231.05 1255.25 231.137L1255.19 231.157C1255.19 231.157 1253.97 231.584 1252.25 232.321C1252.03 232.415 1251.81 232.512 1251.58 232.614C1251.34 232.703 1251.08 232.77 1250.83 232.854C1250.31 233.022 1249.78 233.199 1249.22 233.381C1248.66 233.549 1248.11 233.799 1247.5 233.922C1246.9 234.072 1246.3 234.217 1245.7 234.387L1244.8 234.632C1244.49 234.689 1244.19 234.746 1243.89 234.803C1243.28 234.913 1242.69 235.054 1242.12 235.173C1241.54 235.277 1240.99 235.377 1240.46 235.471C1239.93 235.566 1239.43 235.696 1238.97 235.748C1237.1 236.088 1235.85 236.314 1235.85 236.314L1235.84 236.316C1235.66 236.349 1235.5 236.492 1235.46 236.687C1235.4 236.949 1235.56 237.207 1235.82 237.264C1235.82 237.264 1235.9 237.282 1236.05 237.314C1236.2 237.353 1236.43 237.391 1236.72 237.428C1237.3 237.527 1238.13 237.577 1239.11 237.597C1239.61 237.611 1240.14 237.577 1240.71 237.538C1241.27 237.479 1241.87 237.468 1242.48 237.365C1243.09 237.251 1243.72 237.148 1244.35 237.014C1244.67 236.947 1244.99 236.88 1245.31 236.813L1246.26 236.536C1246.9 236.356 1247.52 236.149 1248.14 235.956C1248.77 235.786 1249.35 235.5 1249.91 235.255C1250.48 235.003 1251.02 234.759 1251.54 234.527C1251.79 234.405 1252.04 234.297 1252.28 234.172C1252.51 234.032 1252.73 233.9 1252.94 233.771C1254.62 232.729 1255.68 231.97 1255.68 231.97C1255.85 231.852 1255.92 231.632 1255.85 231.428Z" fill="#292B2E"/>
<path d="M1350.46 120.502C1348.44 113.138 1332.05 100.072 1323.26 96.865C1313.52 77.859 1303.42 62.774 1283.11 60.28C1262.8 57.785 1233.82 66.812 1208.16 82.848C1193.31 86.649 1162.91 106.723 1156.02 141.288C1154.95 153.167 1166.94 182.529 1198.42 187.625L1200.44 187.57C1200.44 187.57 1196.16 182.03 1194.86 178.466C1197 182.149 1204.44 185.475 1204.44 185.475C1199.51 173.39 1199.72 146.194 1214.8 130.253C1206.83 150.453 1211.26 176.56 1233.22 183.467C1235.72 186.9 1241.54 187.883 1245.1 187.57C1241.06 182.98 1229.19 166.826 1233.94 139.625C1236.55 162.55 1246.17 179.798 1269.1 183.468C1263.99 175.736 1257.67 163.144 1261.13 143.545C1264.23 163.857 1268.74 173.389 1275.51 178.957H1277.28C1277.28 178.957 1269.09 163.738 1270.76 140.338C1278.48 158.868 1284.98 180.985 1314.34 187.625H1334.89C1334.89 187.625 1346.3 174.666 1350.46 155.898C1354.62 137.13 1352.48 127.867 1350.46 120.502Z" fill="#3F3230"/>
<path d="M1235.93 133.156C1235.93 133.156 1235.89 133.363 1235.81 133.751C1235.74 134.151 1235.64 134.748 1235.53 135.519C1235.32 137.058 1235.1 139.288 1235.05 141.979C1234.99 144.669 1235.12 147.819 1235.54 151.165C1235.78 152.833 1236.04 154.56 1236.44 156.286C1236.8 158.02 1237.29 159.754 1237.82 161.475C1238.39 163.183 1239.01 164.881 1239.72 166.504C1240.08 167.315 1240.43 168.126 1240.83 168.897C1241.22 169.678 1241.6 170.448 1242.03 171.178C1242.44 171.919 1242.85 172.646 1243.3 173.328C1243.73 174.017 1244.14 174.705 1244.6 175.331C1245.47 176.623 1246.38 177.779 1247.22 178.848C1248.1 179.882 1248.9 180.844 1249.67 181.64C1250.44 182.427 1251.08 183.152 1251.68 183.684C1252.84 184.77 1253.51 185.39 1253.51 185.39L1252.86 186.152C1252.86 186.152 1252.16 185.546 1250.93 184.485C1250.31 183.965 1249.63 183.252 1248.81 182.477C1247.99 181.693 1247.14 180.741 1246.2 179.714C1245.29 178.653 1244.32 177.5 1243.38 176.206C1242.88 175.578 1242.43 174.888 1241.96 174.195C1241.47 173.509 1241.02 172.776 1240.57 172.028C1240.1 171.29 1239.67 170.511 1239.25 169.719C1238.8 168.936 1238.41 168.114 1238.01 167.287C1237.2 165.634 1236.5 163.901 1235.84 162.15C1235.22 160.386 1234.65 158.604 1234.2 156.817C1233.72 155.038 1233.38 153.256 1233.07 151.528C1232.5 148.064 1232.25 144.786 1232.2 141.972C1232.16 139.156 1232.3 136.805 1232.46 135.156C1232.54 134.331 1232.63 133.681 1232.69 133.232C1232.77 132.773 1232.81 132.528 1232.81 132.528L1235.93 133.156Z" fill="#3F3230"/>
<path d="M1217.62 128.099C1217.62 128.099 1217.46 128.254 1217.25 128.491C1217.04 128.725 1216.68 129.154 1216.28 129.699C1216.08 129.979 1215.86 130.29 1215.62 130.628C1215.4 130.983 1215.16 131.367 1214.9 131.776C1214.63 132.18 1214.41 132.654 1214.14 133.129C1213.88 133.606 1213.61 134.116 1213.37 134.67C1213.13 135.22 1212.85 135.784 1212.6 136.385C1212.37 136.995 1212.13 137.626 1211.88 138.274C1211.62 138.915 1211.43 139.609 1211.22 140.306C1211.02 141.009 1210.76 141.713 1210.59 142.454C1210.27 143.942 1209.83 145.457 1209.62 147.051C1209.49 147.843 1209.36 148.641 1209.23 149.442C1209.11 150.245 1209.07 151.062 1208.98 151.874C1208.9 152.687 1208.82 153.5 1208.75 154.31C1208.72 155.125 1208.69 155.936 1208.67 156.741C1208.64 157.547 1208.61 158.346 1208.59 159.136C1208.57 159.926 1208.62 160.707 1208.64 161.475C1208.7 163.011 1208.68 164.501 1208.81 165.906C1208.94 167.312 1209.05 168.642 1209.16 169.869C1209.24 171.1 1209.42 172.217 1209.57 173.209C1209.71 174.201 1209.83 175.066 1209.94 175.779C1210.14 177.204 1210.26 178.019 1210.26 178.019L1209.28 178.201C1209.28 178.201 1209.14 177.384 1208.89 175.952C1208.77 175.237 1208.62 174.367 1208.45 173.371C1208.28 172.374 1208.08 171.25 1207.96 170.009C1207.82 168.77 1207.67 167.428 1207.51 166.01C1207.33 164.591 1207.32 163.079 1207.21 161.522C1207.18 160.743 1207.11 159.951 1207.1 159.147C1207.11 158.343 1207.11 157.528 1207.12 156.707C1207.13 155.886 1207.13 155.058 1207.14 154.228C1207.2 153.397 1207.26 152.564 1207.32 151.731C1207.38 150.898 1207.41 150.061 1207.51 149.234C1207.63 148.407 1207.74 147.584 1207.85 146.767C1208.02 145.124 1208.44 143.544 1208.73 141.996C1208.89 141.224 1209.13 140.483 1209.32 139.748C1209.53 139.017 1209.7 138.292 1209.96 137.612C1210.2 136.926 1210.44 136.259 1210.66 135.614C1210.91 134.975 1211.19 134.371 1211.43 133.784C1211.67 133.193 1211.94 132.643 1212.21 132.127C1212.48 131.611 1212.71 131.105 1212.98 130.66C1213.25 130.21 1213.5 129.789 1213.73 129.399C1213.98 129.021 1214.22 128.673 1214.43 128.359C1214.87 127.73 1215.23 127.274 1215.53 126.93C1215.83 126.581 1215.96 126.448 1215.96 126.448L1217.62 128.099Z" fill="#3F3230"/>
<path opacity="0.6" d="M1324.51 163.264C1324.69 155.127 1318.57 141.528 1314.84 132.484C1314.84 132.484 1314.85 132.543 1314.87 132.63C1314.66 131.853 1314.46 131.081 1314.22 130.343C1313.69 128.521 1313.17 126.805 1312.65 125.233C1312.17 123.65 1311.64 122.224 1311.19 120.958C1310.72 119.698 1310.31 118.599 1309.95 117.701C1309.6 116.802 1309.3 116.101 1309.1 115.624C1308.89 115.15 1308.78 114.896 1308.78 114.896C1308.7 114.713 1308.49 114.617 1308.29 114.686C1308.09 114.759 1307.99 114.982 1308.06 115.184C1308.06 115.184 1308.42 116.214 1309.01 118.04C1309.31 118.95 1309.64 120.066 1310.03 121.343C1310.39 122.63 1310.84 124.066 1311.28 125.65C1311.74 127.228 1312.19 128.948 1312.65 130.773C1312.89 131.681 1313.12 132.621 1313.34 133.584C1313.57 134.543 1313.81 135.523 1314.06 136.519C1314.49 138.523 1314.97 140.589 1315.38 142.703C1315.77 144.821 1316.19 146.967 1316.53 149.127C1316.71 150.205 1316.89 151.283 1317.07 152.358C1317.24 153.432 1317.35 154.511 1317.5 155.577C1317.64 156.644 1317.78 157.703 1317.91 158.75C1318.01 159.8 1318.1 160.837 1318.19 161.857C1318.29 162.878 1318.38 163.88 1318.48 164.863C1318.53 165.847 1318.59 166.81 1318.64 167.748C1318.75 169.624 1318.87 171.398 1318.85 173.039C1318.87 174.68 1318.89 176.185 1318.91 177.519C1318.86 178.852 1318.82 180.013 1318.79 180.97C1318.73 182.889 1318.7 183.985 1318.7 183.985V184.006C1318.69 184.183 1318.82 184.335 1319 184.354C1319.19 184.373 1319.36 184.237 1319.38 184.05C1319.38 184.05 1319.38 184.029 1319.38 183.993H1321.23C1323.17 180.963 1324.33 171.4 1324.51 163.264Z" fill="#352727"/>
<path opacity="0.6" d="M1193.33 175.28C1193.33 175.28 1192.93 174.721 1192.22 173.743C1191.85 173.279 1191.48 172.646 1191.06 171.923C1190.85 171.564 1190.63 171.183 1190.39 170.779C1190.19 170.358 1189.97 169.916 1189.75 169.453C1189.53 168.988 1189.27 168.525 1189.06 168.01C1188.86 167.495 1188.65 166.963 1188.44 166.415C1187.96 165.341 1187.7 164.115 1187.27 162.91C1187.11 162.289 1186.95 161.656 1186.78 161.017C1186.61 160.38 1186.46 159.728 1186.34 159.063C1186.21 158.403 1186.08 157.736 1185.95 157.067C1185.85 156.392 1185.76 155.713 1185.66 155.034C1185.46 153.68 1185.37 152.309 1185.26 150.967C1185.22 149.619 1185.11 148.292 1185.15 147.008C1185.14 145.721 1185.22 144.485 1185.28 143.307C1185.35 142.131 1185.5 141.029 1185.62 140.008C1185.71 139.504 1185.8 139.021 1185.88 138.561C1185.96 138.098 1186.02 137.654 1186.13 137.262C1186.34 136.464 1186.46 135.76 1186.66 135.182C1187.04 134.021 1187.26 133.356 1187.26 133.356C1187.32 133.172 1187.24 132.965 1187.06 132.881C1186.86 132.79 1186.63 132.873 1186.54 133.069C1186.54 133.069 1186.24 133.701 1185.72 134.807C1185.47 135.364 1185.25 136.108 1184.96 136.933C1184.65 137.764 1184.47 138.713 1184.21 139.754C1184.02 140.8 1183.8 141.938 1183.65 143.149C1183.59 143.755 1183.52 144.379 1183.45 145.016C1183.38 145.654 1183.39 146.308 1183.36 146.973C1183.28 148.303 1183.34 149.676 1183.38 151.073C1183.41 151.77 1183.49 152.471 1183.55 153.176C1183.6 153.88 1183.67 154.587 1183.79 155.287C1183.9 155.988 1184 156.689 1184.11 157.389C1184.25 158.081 1184.4 158.771 1184.54 159.454C1184.68 160.14 1184.86 160.81 1185.06 161.469C1185.25 162.126 1185.43 162.777 1185.62 163.417C1185.85 164.043 1186.08 164.658 1186.3 165.261C1186.41 165.561 1186.52 165.858 1186.63 166.151C1186.76 166.437 1186.89 166.719 1187.02 166.998C1187.28 167.553 1187.53 168.092 1187.77 168.614C1188.01 169.135 1188.31 169.607 1188.57 170.077C1188.83 170.539 1189.08 170.983 1189.33 171.404C1189.61 171.799 1189.88 172.176 1190.13 172.53C1190.64 173.237 1191.07 173.851 1191.51 174.3C1192.35 175.216 1192.82 175.739 1192.82 175.739C1192.94 175.865 1193.13 175.887 1193.27 175.786C1193.42 175.678 1193.46 175.465 1193.35 175.313L1193.33 175.28Z" fill="#352727"/>
<path opacity="0.6" d="M1317.79 183.808C1317.79 183.808 1317.24 182.944 1316.27 181.432C1315.78 180.684 1315.17 179.786 1314.6 178.668C1314.01 177.563 1313.29 176.354 1312.61 174.98C1311.95 173.59 1311.19 172.109 1310.46 170.504C1309.77 168.882 1309.05 167.171 1308.29 165.4C1307.6 163.605 1306.82 161.778 1306.15 159.87C1305.47 157.963 1304.74 156.044 1304.13 154.082C1303.81 153.105 1303.48 152.133 1303.14 151.165C1302.83 150.19 1302.52 149.219 1302.21 148.255C1301.58 146.33 1301.02 144.418 1300.48 142.569C1299.94 140.715 1299.42 138.923 1298.93 137.224C1298.46 135.518 1298.01 133.906 1297.6 132.417C1297.21 130.924 1296.84 129.555 1296.52 128.342C1296.21 127.125 1295.94 126.066 1295.71 125.194C1295.27 123.446 1295.02 122.447 1295.02 122.447C1294.97 122.259 1294.78 122.128 1294.58 122.157C1294.37 122.188 1294.22 122.386 1294.25 122.597C1294.25 122.597 1294.4 123.624 1294.72 125.407C1295.06 127.186 1295.52 129.733 1296.21 132.76C1296.56 134.272 1296.95 135.908 1297.35 137.641C1297.79 139.367 1298.22 141.193 1298.77 143.055C1299.3 144.923 1299.84 146.855 1300.45 148.803C1301.03 150.756 1301.65 152.735 1302.35 154.69C1302.99 156.658 1303.76 158.589 1304.47 160.503C1305.17 162.42 1305.99 164.261 1306.72 166.065C1307.47 167.86 1308.33 169.54 1309.08 171.159C1309.88 172.756 1310.71 174.233 1311.43 175.612C1312.17 176.985 1313 178.165 1313.65 179.247C1314.3 180.336 1314.98 181.217 1315.53 181.945C1316.63 183.395 1317.25 184.223 1317.25 184.223C1317.36 184.362 1317.56 184.4 1317.71 184.304C1317.86 184.203 1317.91 183.993 1317.81 183.834L1317.79 183.808Z" fill="#352727"/>
<path d="M1308.42 223.26C1311.19 222.299 1316.73 223.961 1319.9 220.556C1323.06 217.151 1323.06 216.518 1325.68 214.854C1328.29 213.192 1337 206.857 1337.24 199.73C1337.48 192.603 1332.88 179.299 1328.53 178.983C1324.17 178.667 1318.31 181.516 1314.75 185.159L1308.42 223.26Z" fill="#FBEBE1"/>
<path d="M1313.1 186.736C1316.66 183.093 1324.17 178.666 1328.53 178.982C1332.88 179.298 1337.48 192.602 1337.24 199.729C1337 206.856 1328.29 213.191 1325.68 214.853C1323.06 216.517 1323.06 217.15 1319.9 220.555C1316.73 223.96 1311.4 221.844 1308.64 222.805L1307.65 224.885" stroke="#292B2E" stroke-width="3" stroke-miterlimit="10" stroke-linecap="round" stroke-linejoin="round"/>
<path d="M1328.49 204.218C1328.49 204.218 1328.37 204.369 1328.17 204.654C1327.97 204.934 1327.67 205.353 1327.27 205.86C1326.89 206.374 1326.41 206.987 1325.82 207.616C1325.55 207.962 1325.2 208.209 1324.87 208.544C1324.7 208.663 1324.52 208.782 1324.34 208.907L1324.21 209H1324.21L1324.11 209.04L1323.72 209.206C1323.41 209.367 1323.32 209.291 1323.14 209.349C1322.96 209.367 1322.74 209.361 1322.51 209.328C1322.22 209.301 1321.87 209.179 1321.44 209.064C1322.71 208.442 1323.84 207.634 1324.32 206.973C1324.96 206.076 1326.08 205.253 1325.74 202.463C1325.4 199.672 1323.06 197.269 1322.25 196.606C1321.44 195.945 1321.14 195.538 1321.58 195.028C1321.84 194.766 1322.12 194.58 1322.24 194.558C1322.27 194.542 1322.27 194.56 1322.28 194.552L1322.29 194.547L1322.33 194.551L1322.74 194.588C1322.9 194.593 1322.93 194.64 1323.01 194.659C1323.08 194.684 1323.16 194.705 1323.23 194.72C1323.4 194.82 1323.58 194.896 1323.75 194.985C1323.91 195.103 1324.07 195.217 1324.23 195.33C1324.83 195.852 1325.35 196.409 1325.74 196.908C1326.15 197.394 1326.46 197.804 1326.66 198.088C1326.88 198.365 1326.99 198.512 1326.99 198.512L1327.01 198.535C1327.14 198.696 1327.36 198.762 1327.56 198.683C1327.81 198.585 1327.93 198.308 1327.83 198.064C1327.83 198.064 1327.76 197.881 1327.63 197.543C1327.48 197.207 1327.29 196.708 1326.95 196.098C1326.63 195.486 1326.15 194.761 1325.43 194.002C1325.23 193.825 1325.02 193.643 1324.8 193.456C1324.55 193.288 1324.28 193.131 1324 192.976C1323.68 192.86 1323.25 192.702 1322.97 192.66L1322.56 192.605L1322.45 192.59L1322.43 192.586C1322.23 192.573 1322.36 192.584 1322.31 192.58H1322.29L1322.19 192.586C1322.06 192.598 1321.92 192.602 1321.81 192.637C1320.86 192.885 1320.35 193.43 1319.86 193.94C1319.39 194.469 1318.99 195.043 1318.64 195.657C1318.46 195.968 1318.3 196.27 1318.14 196.619L1317.92 197.094L1317.72 197.722C1317.49 198.55 1317.49 199.479 1317.7 200.291C1317.88 201.128 1318.21 201.864 1318.6 202.566L1318.9 203.093L1319.19 203.561L1319.34 203.795C1319.37 203.865 1319.37 203.869 1319.39 203.904C1319.42 203.937 1319.41 203.953 1319.41 203.963C1319.41 203.974 1319.43 203.987 1319.42 203.991C1319.5 203.98 1319.13 204.494 1318.57 204.821C1318.02 205.18 1317.38 205.503 1316.69 205.847L1316.15 206.132L1315.9 206.278L1315.77 206.349C1315.68 206.403 1315.65 206.429 1315.59 206.472C1315.14 206.779 1314.82 207.128 1314.55 207.485C1313.99 208.204 1313.61 208.962 1313.33 209.809C1313.2 210.234 1313.09 210.679 1313.1 211.25C1313.1 211.376 1313.14 211.565 1313.16 211.719C1313.18 211.873 1313.35 212.26 1313.47 212.407L1313.55 212.514L1313.58 212.539C1313.47 212.43 1313.73 212.705 1313.72 212.689L1313.77 212.72C1313.83 212.761 1313.89 212.802 1313.96 212.837C1314.24 213.003 1314.43 213.016 1314.65 213.042C1315.4 213.06 1315.75 212.866 1316.16 212.729C1316.54 212.577 1316.88 212.409 1317.21 212.244C1317.84 211.918 1318.46 211.595 1319.06 211.281L1319.49 211.077C1319.63 211.013 1319.69 210.984 1319.85 210.928C1320.04 210.854 1320.05 210.873 1320.15 210.864C1320.22 210.846 1320.31 210.833 1320.42 210.859C1320.85 210.884 1321.47 211.149 1322.23 211.25C1322.6 211.296 1322.99 211.311 1323.4 211.26C1323.79 211.185 1324.29 211.086 1324.48 210.963L1324.87 210.791L1324.96 210.75L1325.01 210.729L1325.12 210.674L1325.15 210.654L1325.34 210.51C1325.6 210.317 1325.85 210.127 1326.1 209.943C1326.49 209.529 1326.9 209.144 1327.17 208.741C1327.47 208.351 1327.73 207.974 1327.94 207.613C1328.17 207.261 1328.35 206.925 1328.5 206.618C1328.82 206.01 1329.01 205.51 1329.15 205.169C1329.29 204.82 1329.34 204.641 1329.34 204.641L1329.34 204.633C1329.4 204.444 1329.33 204.229 1329.16 204.106C1328.94 203.953 1328.64 204.001 1328.49 204.218Z" fill="#292B2E"/>
<path d="M1332.2 191.954C1332.11 191.469 1332 190.95 1331.79 190.409C1331.7 190.137 1331.6 189.857 1331.51 189.571C1331.39 189.292 1331.23 189.014 1331.09 188.726C1330.95 188.439 1330.8 188.147 1330.6 187.876C1330.39 187.605 1330.22 187.305 1329.98 187.052C1329.72 186.8 1329.5 186.538 1329.21 186.296C1328.92 186.081 1328.55 185.779 1328.29 185.654L1327.88 185.424C1327.6 185.289 1327.46 185.264 1327.23 185.187C1327.04 185.107 1326.8 185.102 1326.58 185.077C1326.36 185.044 1326.14 185.063 1325.9 185.103C1324.97 185.235 1324.16 185.855 1323.75 186.663C1323.65 186.872 1323.55 187.13 1323.5 187.305L1323.42 187.727L1323.38 187.935V188.079L1323.39 188.363C1323.4 188.549 1323.39 188.746 1323.44 188.906C1323.59 189.586 1323.83 190.156 1324.12 190.594C1324.39 191.06 1324.7 191.411 1324.97 191.719C1325.24 192.025 1325.5 192.265 1325.72 192.46C1326.15 192.838 1326.41 193.015 1326.41 193.015L1326.44 193.033C1326.58 193.133 1326.78 193.145 1326.95 193.051C1327.18 192.916 1327.26 192.619 1327.12 192.389C1327.12 192.389 1326.97 192.116 1326.69 191.639C1326.55 191.413 1326.39 191.134 1326.22 190.82C1326.18 190.757 1326.15 190.682 1326.11 190.616C1325.72 189.744 1326.14 188.867 1327.16 188.887C1328.14 188.907 1329.79 189.914 1330.37 191.136C1330.56 191.539 1330.69 191.948 1330.82 192.329C1330.95 192.76 1331.13 193.14 1331.19 193.51C1331.28 193.873 1331.35 194.191 1331.41 194.451C1331.55 194.973 1331.63 195.273 1331.63 195.273L1331.64 195.315C1331.69 195.531 1331.9 195.684 1332.13 195.67C1332.39 195.653 1332.59 195.428 1332.57 195.165C1332.57 195.165 1332.55 194.845 1332.51 194.284C1332.49 194.002 1332.45 193.662 1332.42 193.269C1332.4 192.875 1332.28 192.439 1332.2 191.954Z" fill="#292B2E"/>
<path d="M1314.35 187.571C1309.68 190.544 1307.22 203.847 1312.29 209.945C1304.85 207.569 1300.26 198.857 1302.87 190.86C1305.48 182.863 1311.34 182.545 1314.75 185.158L1314.35 187.571Z" fill="#3F3230"/>
<path opacity="0.4" d="M1190.82 100.428C1193.64 99.096 1200.44 103.517 1200.44 104.348C1200.44 105.18 1182.03 125.729 1181.08 127.155C1180.13 128.581 1172.05 127.63 1171.81 126.086C1171.58 124.541 1178.23 106.367 1190.82 100.428Z" fill="#6B5156"/>
<path opacity="0.4" d="M1205.25 106.07C1203.41 106.327 1193.81 119.967 1193.41 121.571C1193.02 123.175 1195.75 124.066 1197.89 124.006C1200.03 123.947 1211.43 114.148 1212.91 112.604C1214.4 111.06 1215.11 109.694 1214.34 108.684C1213.57 107.674 1207.81 105.714 1205.25 106.07Z" fill="#6B5156"/>
<path opacity="0.4" d="M1248.07 106.724C1248.07 106.724 1244.98 126.528 1244.98 132.845C1244.98 133.628 1244.8 134.459 1245.75 134.519C1246.7 134.578 1250.39 134.578 1251.69 134.519C1253 134.459 1253.59 133.806 1253.65 132.559C1253.71 131.312 1256.09 108.862 1256.15 107.793C1256.21 106.724 1256.8 105.893 1255.43 105.596C1254.07 105.299 1251.16 105.358 1250.15 105.299C1249.14 105.239 1248.22 105.76 1248.07 106.724Z" fill="#6B5156"/>
<path opacity="0.4" d="M1261.55 110.94C1260.43 111.059 1260.13 111.474 1260.13 112.306C1260.13 113.137 1260.01 123.293 1260.13 124.421C1260.25 125.55 1260.72 126.5 1262.27 126.321C1263.81 126.143 1266.78 125.965 1267.91 125.787C1269.04 125.609 1269.87 124.718 1269.63 122.996C1269.39 121.273 1267.97 112.84 1267.79 111.949C1267.61 111.058 1266.96 110.583 1266.13 110.583C1265.29 110.584 1261.55 110.94 1261.55 110.94Z" fill="#6B5156"/>
<path opacity="0.4" d="M1291.72 107.852C1290.95 108.268 1290.77 109.397 1291.19 109.991C1291.61 110.585 1295.82 119.909 1296.24 120.8C1296.65 121.692 1297.72 121.869 1298.91 121.572C1300.1 121.275 1302.71 120.681 1303.6 120.265C1304.49 119.85 1305.27 118.721 1304.67 117.534C1304.08 116.346 1300.28 108.565 1299.5 107.852C1298.73 107.14 1298.14 106.903 1296.83 106.903C1295.53 106.902 1291.72 107.852 1291.72 107.852Z" fill="#6B5156"/>
<path d="M1342.86 455.98C1353.79 456.773 1369.01 449.961 1389.59 435.55C1410.17 421.138 1421.6 404.342 1419.51 402.609C1417.42 400.875 1403.83 401.5 1403.83 401.5H1342.86V455.98H1342.86Z" fill="#FBEBE1" stroke="#292B2E" stroke-width="3" stroke-miterlimit="10" stroke-linecap="round" stroke-linejoin="round"/>
<path d="M1293.8 285.371L1302.08 286.757C1302.08 286.757 1340.84 303.782 1342.62 304.852C1344.4 305.921 1365.19 336.883 1377.54 362.54C1395.12 380.596 1414.44 398.651 1419.51 402.61C1413.65 403.56 1384.2 413.38 1366.14 429.692C1348.09 446.003 1342.86 455.981 1342.86 455.981L1333.04 443.946C1323.7 434.759 1316.1 426.682 1316.1 426.682L1314.99 437.452C1320.21 444.895 1320.69 447.43 1319.9 449.646C1319.11 451.863 1310.71 455.98 1310.71 455.98C1286.16 458.832 1223.29 459.939 1176.57 454.555C1171.97 451.546 1171.18 448.062 1171.02 447.112C1170.86 446.162 1175.46 435.868 1175.46 435.868C1175.46 435.868 1163.9 399.125 1163.9 377.902C1176.57 341.95 1193.83 311.859 1193.83 311.859C1197 297.289 1205.16 263.224 1206.62 263.468C1208.08 263.712 1232.41 267.988 1232.41 267.988L1246.73 288.102L1293.8 285.371Z" fill="white"/>
<path d="M1171.02 447.112C1171.18 448.062 1171.97 451.547 1176.56 454.555C1223.28 459.939 1286.16 458.831 1310.71 455.98C1310.71 455.98 1319.1 451.863 1319.89 449.646C1320.69 447.429 1320.21 444.895 1314.99 437.452L1315.79 429.623C1315.3 428.463 1314.83 427.318 1314.4 426.2C1304.94 401.837 1293.9 397.873 1283.95 398.634C1274 399.395 1239.56 406.72 1222.27 406.693C1204.98 406.665 1196.8 395.317 1183.38 393.348C1169.95 391.379 1168.77 402.206 1169.04 409.215L1168.61 410.345C1171.81 424.272 1175.46 435.868 1175.46 435.868C1175.46 435.868 1170.86 446.162 1171.02 447.112Z" fill="#E0E0E0"/>
<path d="M1293.8 285.371L1302.08 286.757C1302.08 286.757 1340.84 303.782 1342.62 304.852C1344.4 305.921 1365.19 336.883 1377.54 362.54C1395.12 380.596 1414.44 398.651 1419.51 402.61C1413.65 403.56 1384.2 413.38 1366.14 429.692C1348.09 446.003 1342.86 455.981 1342.86 455.981L1333.04 443.946C1323.7 434.759 1316.1 426.682 1316.1 426.682L1314.99 437.452C1320.21 444.895 1320.69 447.43 1319.9 449.646C1319.11 451.863 1310.71 455.98 1310.71 455.98C1286.16 458.832 1223.29 459.939 1176.57 454.555C1171.97 451.546 1171.18 448.062 1171.02 447.112C1170.86 446.162 1175.46 435.868 1175.46 435.868C1175.46 435.868 1163.9 399.125 1163.9 377.902C1176.57 341.95 1193.83 311.859 1193.83 311.859C1197 297.289 1205.16 263.224 1206.62 263.468C1208.08 263.712 1232.41 267.988 1232.41 267.988L1246.73 288.102L1293.8 285.371Z" stroke="#292B2E" stroke-width="3" stroke-miterlimit="10" stroke-linecap="round" stroke-linejoin="round"/>
<path d="M1233.22 346.544C1232.93 349.43 1230.51 351.771 1227.82 351.771C1225.13 351.771 1223.19 349.43 1223.49 346.544C1223.78 343.658 1226.2 341.317 1228.89 341.317C1231.58 341.317 1233.52 343.658 1233.22 346.544Z" fill="#292B2E"/>
<path d="M1255.97 451.971C1255.29 452.134 1254.61 452.332 1253.92 452.488C1252.52 452.806 1251.11 453.169 1249.7 453.543C1246.87 454.265 1244.05 455.102 1241.49 456.077C1240.22 456.566 1238.98 457.042 1237.84 457.562C1237.36 457.769 1236.91 457.982 1236.46 458.196C1235.52 458.178 1234.57 458.159 1233.63 458.137C1233.77 458.064 1233.91 457.991 1234.06 457.915C1236.02 456.917 1238.32 455.786 1240.8 454.604C1243.28 453.438 1245.94 452.21 1248.64 451.069C1249.99 450.491 1251.34 449.923 1252.69 449.401C1254.03 448.855 1255.37 448.359 1256.67 447.896C1257.95 447.406 1259.23 447.005 1260.44 446.617C1261.63 446.203 1262.8 445.911 1263.87 445.614C1264.93 445.297 1265.94 445.103 1266.83 444.92C1267.72 444.726 1268.49 444.568 1269.16 444.513C1270.47 444.356 1271.21 444.264 1271.21 444.264C1271.66 444.211 1272.06 444.528 1272.11 444.97C1272.14 445.231 1272.05 445.477 1271.87 445.647L1271.34 446.162C1271.34 446.162 1271.17 446.322 1270.87 446.583C1270.72 446.699 1270.53 446.843 1270.31 447.012C1270.09 447.156 1269.84 447.322 1269.57 447.506C1269.02 447.798 1268.35 448.241 1267.58 448.614C1266.8 448.987 1265.93 449.298 1264.93 449.645C1263.94 449.967 1262.83 450.145 1261.67 450.514C1260.51 450.869 1259.24 451.103 1257.96 451.489C1257.31 451.674 1256.64 451.805 1255.97 451.971ZM1339.3 306.176C1340.42 305.566 1341.55 305.148 1342.7 304.92C1342.68 304.9 1342.64 304.863 1342.62 304.852C1342.39 304.713 1341.52 304.3 1340.2 303.691C1339.59 303.923 1338.99 304.182 1338.39 304.506C1328.49 309.887 1320.13 327.762 1311.29 362.464C1305.7 384.44 1309.23 405.62 1312.26 417.439C1312.19 417.283 1312.11 417.13 1312.03 416.972C1311.33 415.572 1310.68 413.997 1309.93 412.365C1309.17 410.736 1308.5 408.956 1307.75 407.145C1306.98 405.337 1306.32 403.415 1305.59 401.489C1304.86 399.56 1304.22 397.561 1303.53 395.584C1302.87 393.593 1302.24 391.592 1301.63 389.623C1301.05 387.64 1300.44 385.701 1299.93 383.802C1298.87 380.017 1297.97 376.456 1297.23 373.398C1295.76 367.272 1295.02 363.162 1295.02 363.162C1294.96 362.844 1294.73 362.568 1294.4 362.467C1293.93 362.323 1293.43 362.59 1293.28 363.062L1293.15 363.508C1293.15 363.508 1293.06 363.787 1292.97 364.317C1292.85 364.849 1292.73 365.622 1292.6 366.595C1292.48 367.572 1292.38 368.747 1292.31 370.094C1292.28 371.429 1292.22 372.949 1292.29 374.578C1292.37 376.208 1292.48 377.971 1292.72 379.808C1292.94 381.655 1293.26 383.579 1293.68 385.552C1294.04 387.54 1294.69 389.528 1295.71 391.426C1296.72 393.328 1298 395.169 1299.15 397.041C1299.71 397.979 1300.27 398.917 1300.72 399.886C1301.18 400.851 1301.59 401.827 1302.06 402.774C1302.99 404.672 1303.83 406.557 1304.78 408.332C1305.7 410.109 1306.6 411.826 1307.44 413.455C1308.31 415.071 1309.08 416.619 1309.89 418C1310.69 419.385 1311.44 420.646 1312.05 421.785C1312.68 422.914 1313.31 423.861 1313.78 424.66C1314.28 425.448 1314.64 426.082 1314.89 426.51C1315.08 426.832 1315.2 427.041 1315.25 427.125L1315.9 428.558L1316.09 426.684C1316.09 426.684 1316.82 427.454 1318.09 428.781L1316.98 426.333C1316.85 426.026 1304.88 395.333 1313.13 362.936C1318.99 339.946 1327.25 312.721 1339.3 306.176ZM1233.33 455.548C1233.98 454.929 1234.65 454.267 1235.36 453.611C1236.08 452.969 1236.83 452.306 1237.6 451.624C1239.13 450.248 1240.79 448.849 1242.5 447.405C1244.21 445.951 1246.06 444.552 1247.93 443.129C1249.82 441.723 1251.66 440.182 1253.68 438.897C1254.66 438.219 1255.69 437.593 1256.71 436.981C1257.72 436.349 1258.75 435.76 1259.79 435.188C1261.84 434.02 1263.9 432.948 1265.93 431.982C1267.95 430.994 1269.91 430.069 1271.7 429.081C1273.53 428.156 1275.13 427.069 1276.73 426.294C1277.5 425.854 1278.24 425.433 1278.94 425.032C1279.63 424.597 1280.28 424.185 1280.89 423.799C1281.48 423.38 1282.04 422.989 1282.55 422.627C1283.05 422.24 1283.52 421.885 1283.93 421.564C1284.75 420.894 1285.38 420.334 1285.8 419.932C1286.22 419.514 1286.44 419.291 1286.44 419.291L1286.67 419.053C1286.95 418.77 1287.02 418.325 1286.82 417.959C1286.57 417.515 1286.01 417.354 1285.57 417.601C1285.57 417.601 1281.36 419.934 1275.06 423.432C1273.45 424.265 1271.85 425.379 1270.09 426.456C1268.34 427.555 1266.5 428.713 1264.59 429.912C1262.66 431.078 1260.75 432.411 1258.81 433.756C1256.87 435.097 1254.89 436.459 1252.91 437.821C1250.93 439.171 1249.04 440.652 1247.13 442.04C1245.24 443.452 1243.35 444.806 1241.57 446.183C1239.79 447.568 1238.08 448.906 1236.45 450.174C1234.82 451.431 1233.31 452.657 1231.91 453.8C1230.52 454.935 1229.24 455.976 1228.11 456.899C1227.67 457.274 1227.25 457.623 1226.86 457.957C1228.15 457.996 1229.45 458.033 1230.75 458.067C1231.55 457.27 1232.4 456.444 1233.33 455.548ZM1406.94 391.368C1406.4 390.855 1405.84 390.329 1405.26 389.792C1388.81 393.757 1374.47 402.574 1364.6 410.006C1351.59 419.809 1340.02 432.079 1332.75 443.657C1332.85 443.754 1332.94 443.848 1333.04 443.945L1334.05 445.182C1346.81 424.675 1376.01 398.385 1406.94 391.368ZM1331.71 357.059C1331.71 357.059 1331.86 357.139 1332.14 357.289C1332.41 357.441 1332.83 357.656 1333.37 357.91C1333.92 358.16 1334.57 358.505 1335.34 358.807C1336.11 359.129 1336.97 359.484 1337.93 359.857C1338.87 360.253 1339.93 360.572 1341.04 360.95C1342.15 361.312 1343.31 361.747 1344.56 362.043C1345.79 362.373 1347.06 362.714 1348.37 363.029C1349.66 363.378 1351 363.629 1352.35 363.863C1353.69 364.101 1355.03 364.34 1356.35 364.574C1357.67 364.799 1358.99 364.869 1360.26 365.017C1361.53 365.152 1362.76 365.242 1363.93 365.348C1365.09 365.488 1366.2 365.452 1367.22 365.463C1371.31 365.481 1374.01 365.346 1374.01 365.346C1374.25 365.334 1374.45 365.16 1374.49 364.918C1374.54 364.64 1374.35 364.377 1374.07 364.331L1374.03 364.325C1374.03 364.325 1371.36 363.885 1367.37 363.449C1366.37 363.34 1365.29 363.241 1364.16 363.029C1363.03 362.847 1361.84 362.633 1360.6 362.454C1359.36 362.253 1358.08 362.115 1356.79 361.849C1355.51 361.595 1354.2 361.338 1352.89 361.081C1351.59 360.814 1350.26 360.624 1348.99 360.287C1347.72 359.978 1346.46 359.704 1345.24 359.438C1344.62 359.311 1344.02 359.172 1343.45 359.006C1342.86 358.859 1342.29 358.715 1341.74 358.575C1340.63 358.28 1339.56 358.058 1338.6 357.783C1337.64 357.51 1336.75 357.269 1335.96 357.066C1335.16 356.865 1334.5 356.646 1333.94 356.494C1332.81 356.188 1332.16 355.982 1332.16 355.982C1331.89 355.9 1331.6 356.012 1331.47 356.265C1331.31 356.553 1331.42 356.906 1331.71 357.059ZM1216.27 359.999C1222 333.435 1239.79 301.4 1247.69 288.048L1246.73 288.104L1246.03 287.12C1238.06 300.605 1220.17 332.849 1214.4 359.648L1214.38 359.746C1211.53 386.272 1214.92 430.798 1219.06 457.682C1219.71 457.708 1220.35 457.734 1221 457.758C1216.85 431.065 1213.42 386.507 1216.27 359.999ZM1373.96 369.563L1373.92 369.562C1373.92 369.562 1372.23 369.54 1369.76 369.718C1369.14 369.782 1368.46 369.755 1367.75 369.799C1367.04 369.832 1366.29 369.845 1365.52 369.901C1364.75 369.965 1363.95 369.976 1363.14 369.997C1362.32 370.034 1361.5 370.071 1360.67 370.109C1359.85 370.14 1359.02 370.173 1358.21 370.205C1357.39 370.224 1356.59 370.284 1355.82 370.321C1354.27 370.358 1352.82 370.487 1351.57 370.551C1350.32 370.627 1349.29 370.724 1348.56 370.787C1347.83 370.863 1347.41 370.906 1347.41 370.906C1347.17 370.931 1346.96 371.1 1346.9 371.344C1346.81 371.659 1347 371.983 1347.32 372.065L1347.34 372.071C1347.34 372.071 1347.75 372.177 1348.48 372.305C1349.22 372.442 1350.27 372.608 1351.53 372.73C1352.16 372.809 1352.84 372.867 1353.56 372.901C1354.29 372.952 1355.05 372.989 1355.84 373.011C1356.64 373.034 1357.45 373.033 1358.28 373.014C1359.12 372.987 1359.96 373.02 1360.8 372.94C1362.49 372.806 1364.18 372.727 1365.75 372.475C1366.54 372.37 1367.3 372.227 1368.02 372.114C1368.73 371.996 1369.41 371.885 1370.03 371.719C1372.51 371.111 1374.12 370.563 1374.12 370.565C1374.32 370.496 1374.46 370.307 1374.47 370.083C1374.47 369.799 1374.24 369.566 1373.96 369.563ZM1202.88 455.599C1202.34 455.111 1201.89 454.514 1201.39 453.963C1200.91 453.403 1200.43 452.844 1199.95 452.292C1199.48 451.737 1199.06 451.151 1198.63 450.607C1197.79 449.509 1197 448.494 1196.35 447.599C1195.7 446.711 1195.16 445.964 1194.77 445.456C1194.36 444.954 1194.13 444.667 1194.13 444.667C1193.95 444.443 1193.66 444.306 1193.35 444.334C1192.86 444.378 1192.49 444.814 1192.54 445.308L1192.58 445.757C1192.58 445.757 1192.59 445.865 1192.6 446.07C1192.63 446.267 1192.68 446.555 1192.77 446.896C1192.86 447.243 1192.99 447.647 1193.19 448.084C1193.37 448.531 1193.63 448.991 1193.92 449.496C1194.25 449.967 1194.58 450.504 1195.06 450.966C1195.5 451.457 1195.98 451.96 1196.5 452.455C1197.01 452.968 1197.59 453.446 1198.17 453.928C1198.77 454.398 1199.38 454.867 1200 455.325C1200.61 455.789 1201.23 456.242 1201.84 456.68C1201.89 456.716 1201.94 456.754 1201.99 456.791C1202.74 456.839 1203.49 456.887 1204.25 456.933C1203.8 456.498 1203.35 456.053 1202.88 455.599ZM1213.58 455.887C1212.95 455.014 1212.24 454.03 1211.46 452.956C1210.7 451.86 1209.9 450.656 1209 449.414C1208.06 448.199 1207.21 446.813 1206.26 445.426C1205.3 444.034 1204.31 442.595 1203.3 441.133C1202.38 439.616 1201.42 438.084 1200.49 436.524C1200.03 435.744 1199.57 434.964 1199.11 434.187C1198.65 433.411 1198.18 432.64 1197.79 431.835C1196.96 430.252 1196.18 428.676 1195.44 427.141C1194.69 425.608 1193.97 424.125 1193.28 422.721C1192.65 421.292 1192.11 419.915 1191.57 418.657C1189.48 413.6 1188.08 410.228 1188.08 410.228L1188.04 410.137C1187.85 409.67 1187.32 409.436 1186.84 409.612C1186.35 409.794 1186.1 410.338 1186.28 410.83C1186.28 410.83 1187.55 414.285 1189.45 419.468C1189.93 420.761 1190.42 422.175 1191.01 423.645C1191.64 425.094 1192.31 426.623 1193 428.205C1193.7 429.786 1194.41 431.419 1195.14 433.079C1195.49 433.919 1195.91 434.727 1196.33 435.544C1196.75 436.361 1197.17 437.182 1197.59 438.002C1198.43 439.643 1199.26 441.283 1200.09 442.899C1201 444.466 1201.91 446.009 1202.78 447.501C1203.65 448.994 1204.48 450.447 1205.39 451.751C1206.26 453.074 1207.09 454.325 1207.86 455.48C1208.29 456.096 1208.71 456.67 1209.12 457.215C1210.97 457.315 1212.83 457.407 1214.69 457.493C1214.41 456.988 1214 456.493 1213.58 455.887ZM1306.84 288.852L1269.23 316.665L1270.01 311.386L1302.08 286.758L1306.84 288.852Z" fill="#292B2E"/>
<path d="M1246.57 286.204C1246.57 286.204 1273.03 276.363 1292.98 267.821L1292.93 265.377C1292.93 265.377 1294.47 266.248 1294.87 266.96C1295.27 267.673 1302.63 285.014 1302.71 285.332C1302.79 285.648 1302.08 286.757 1302.08 286.757C1302.08 286.757 1268.19 317.719 1266.44 319.145C1264.7 320.571 1262.96 321.283 1261.85 319.541C1260.74 317.799 1244.51 290.32 1244.51 290.32C1244.51 290.32 1223.68 295.15 1221.31 295.863C1218.93 296.576 1217.27 295.548 1218.3 293.33C1219.32 291.111 1229.62 269.337 1230.02 268.544C1230.41 267.752 1230.67 267.039 1232.4 266.248C1234.13 265.456 1244.75 260.704 1245.3 260.388C1245.85 260.071 1246.41 259.754 1246.41 259.754L1246.57 286.204Z" fill="white" stroke="#292B2E" stroke-width="3" stroke-miterlimit="10" stroke-linecap="round" stroke-linejoin="round"/>
<path d="M1227.64 313.123C1218.35 328.134 1208.93 353.579 1206.54 362.398C1204.15 371.216 1203.22 375.748 1202.34 375.562C1201.46 375.374 1190.67 369.133 1187.78 357.474C1182.48 356.94 1176.75 344.988 1177.06 343.476C1177.37 341.964 1188 322.09 1211.45 313.265L1227.64 313.123Z" fill="#E0E0E0"/>
<path d="M1247.1 312.611C1247.1 312.611 1251.79 348.271 1247.69 375.115C1247.29 377.723 1265.63 375.115 1272.7 366.326C1278.45 365.85 1288.31 359.08 1288.43 358.011C1288.55 356.943 1283.07 331.776 1267.52 316.149L1247.1 312.611Z" fill="#E0E0E0"/>
<path d="M1235.24 304.495C1223.25 317.442 1209.11 340.605 1205.07 348.801C1201.03 356.997 1199.25 361.266 1198.42 360.913C1197.59 360.56 1188.21 352.364 1187.61 340.367C1182.5 338.823 1179.18 325.995 1179.77 324.569C1180.37 323.144 1194.62 305.683 1219.33 301.525L1235.24 304.495Z" fill="#F9A2C6" stroke="#292B2E" stroke-width="3" stroke-miterlimit="10" stroke-linecap="round" stroke-linejoin="round"/>
<path d="M1239.28 305.539C1239.28 305.539 1243.97 341.199 1239.88 368.043C1239.48 370.651 1257.82 368.043 1264.88 359.254C1270.64 358.778 1280.5 352.008 1280.62 350.94C1280.74 349.871 1275.26 324.704 1259.7 309.077L1239.28 305.539Z" fill="#F9A2C6" stroke="#292B2E" stroke-width="3" stroke-miterlimit="10" stroke-linecap="round" stroke-linejoin="round"/>
<path d="M1259.7 309.076L1239.28 305.539C1239.28 305.539 1239.66 308.414 1240.11 313.139C1244.46 318.824 1254.45 331.779 1257.57 335.265C1261.49 339.636 1267.75 343.677 1275.82 334.926C1272.51 326.652 1267.31 316.724 1259.7 309.076Z" fill="#292B2E"/>
<path d="M1219.33 301.525C1211.65 302.817 1204.99 305.393 1199.43 308.373C1202.26 310.584 1207.66 314.248 1212.08 313.998C1216.51 313.747 1225.57 311.327 1230.56 309.913C1232.14 307.975 1233.71 306.15 1235.24 304.495L1219.33 301.525Z" fill="#292B2E"/>
<path d="M1238.04 289.529C1236.85 282.461 1230.08 270.702 1225.03 268.979C1219.98 267.256 1214.52 270.879 1211.9 274.681C1209.29 278.482 1210.3 284.243 1209.94 284.896C1209.59 285.549 1204.24 292.249 1202.99 297.784C1201.75 303.307 1202.76 306.514 1202.99 307.345C1203.23 308.177 1209.11 310.849 1211.19 310.374C1213.27 309.899 1232.75 304.494 1232.75 304.494L1238.04 289.529Z" fill="#F9A2C6" stroke="#292B2E" stroke-width="3" stroke-miterlimit="10" stroke-linecap="round" stroke-linejoin="round"/>
<path d="M1236.91 289.054C1234.53 288.973 1232.63 290.367 1231.23 292.07C1230.23 290.592 1229.11 288.855 1228.83 288.104C1228.3 286.678 1228.47 284.778 1226.39 283.71C1224.32 282.641 1219.62 281.037 1218.32 281.274C1217.01 281.511 1219.15 282.7 1222.24 284.541C1224.69 286.005 1228.79 291.02 1230.3 293.351C1229.2 295.061 1228.58 296.799 1228.47 297.548C1228.46 297.624 1228.46 297.702 1228.46 297.777C1226.33 297.05 1222.99 295.817 1222 295.528C1220.57 295.112 1219.51 293.449 1215.82 293.865C1212.14 294.281 1210.72 296.478 1210 296.922C1209.29 297.366 1214.1 296.716 1218.38 296.922C1221.75 297.085 1225.3 297.468 1228.45 298.696C1228.57 300.089 1229.28 301.69 1230.88 304.378L1240.95 304.793V289.886L1236.91 289.054Z" fill="#292B2E"/>
<path d="M1249.91 295.705C1257.69 291.845 1267.02 289.322 1274.38 289.485C1281.75 289.647 1285.84 292.082 1285.96 296.121C1286.08 300.16 1284 308.059 1283.53 310.731C1283.05 313.404 1278.84 318.333 1278.54 318.868C1278.24 319.402 1277.65 324.094 1277.29 325.876C1276.94 327.658 1270.4 336.031 1268.74 336.507C1267.08 336.983 1263.78 337.457 1260.35 334.428C1256.92 331.4 1243.8 308.178 1243.8 308.178L1249.91 295.705Z" fill="#F9A2C6" stroke="#292B2E" stroke-width="3" stroke-miterlimit="10" stroke-linecap="round" stroke-linejoin="round"/>
<path d="M1271.26 299.642C1270.07 299.135 1265.98 298.378 1264.3 298.401C1262.62 298.424 1260.96 299.912 1259.31 300.198C1258.25 300.382 1254.74 300.864 1252.27 301.097C1252.7 299.594 1252.78 297.846 1252.29 295.824H1246.71L1243.97 308.355C1245.9 307.913 1248.66 306.617 1250.55 304.322C1256.25 306.866 1266.49 312.934 1268.86 314.532C1271.59 316.373 1269.96 314.237 1269.23 313.167C1268.5 312.098 1265.47 309.246 1264.05 308.356C1262.62 307.465 1260.42 307.822 1258.88 307.168C1257.67 306.656 1253.16 304.547 1251.2 303.426C1251.45 303.026 1251.69 302.608 1251.89 302.154C1258.28 301.32 1268.99 300.933 1271.69 300.99C1274.98 301.06 1272.45 300.147 1271.26 299.642Z" fill="#292B2E"/>
<path d="M1245.76 288.163C1242.7 286.72 1238.33 287.213 1237.5 287.687C1236.67 288.163 1233.76 291.488 1231.86 297.902C1229.96 304.317 1231.32 305.921 1231.86 306.336C1232.39 306.752 1238.98 309.246 1240.77 309.84C1242.55 310.435 1243.62 310.019 1244.74 308.891C1245.87 307.762 1252.57 296.264 1252.94 295.409C1253.48 294.161 1250.15 290.241 1245.76 288.163Z" fill="#F9A2C6" stroke="#292B2E" stroke-width="3" stroke-miterlimit="10" stroke-linecap="round" stroke-linejoin="round"/>
<path d="M1211.31 251.965C1211.31 251.965 1214.34 258.17 1214.34 259.002C1214.34 259.833 1213.03 281.49 1211.31 286.757C1209.59 292.024 1200.09 302.543 1198.12 306.396C1196.14 310.249 1163.58 389.307 1159.14 398.651C1154.71 407.995 1143.31 420.031 1136.66 423.674C1130 427.317 1124.62 429.851 1121.93 429.693C1119.23 429.534 1113.53 428.267 1111 421.14C1108.46 414.013 1100.23 395.166 1111 377.27C1121.77 359.373 1159.14 317.087 1163.89 309.486C1168.65 301.883 1171.18 298.4 1170.39 294.44C1169.6 290.481 1166.28 280.495 1166.28 280.495L1190.82 253.657L1211.31 251.965Z" fill="#FBEBE1" stroke="#292B2E" stroke-width="3" stroke-miterlimit="10"/>
<path d="M1207.77 254.856C1207.77 254.856 1203.17 241.485 1201.19 237.833C1199.22 234.18 1194.54 224.955 1192.98 221.19C1191.42 217.424 1189.4 209.941 1184.72 205.579C1180.04 201.218 1176.52 201.371 1174.57 201.627C1172.63 201.883 1172.82 203.02 1174.37 206.864C1175.93 210.708 1181.48 226.25 1182.88 229.358C1183.43 230.593 1184.78 233.783 1186.21 237.177C1183.47 233.135 1179.18 226.564 1177.52 223.567C1175.54 220.003 1172.69 212.797 1167.54 208.997C1162.39 205.195 1158.91 205.75 1157.01 206.225C1155.11 206.701 1155.42 207.809 1157.4 211.452C1159.38 215.095 1166.67 229.903 1168.41 232.833C1170.15 235.763 1178.31 250.412 1178.31 250.412L1178.78 255.334H1196.04L1207.77 254.856Z" fill="#FBEBE1" stroke="#292B2E" stroke-width="3" stroke-miterlimit="10"/>
<path d="M1172.38 263.397C1172.38 263.397 1169.85 260.07 1169.69 258.566C1169.53 257.062 1172.46 252.628 1173.57 250.806C1174.68 248.985 1174.78 248.747 1177.5 247.956C1180.22 247.164 1183.15 247.006 1184.5 246.768C1185.84 246.531 1188.22 247.005 1189.25 248.431C1190.28 249.856 1194.39 255.478 1195.03 256.665C1195.66 257.852 1195.98 259.833 1195.9 261.101C1195.82 262.367 1195.03 266.643 1194.24 267.277C1193.44 267.911 1188.85 269.337 1188.85 269.337H1173.57L1172.38 263.397Z" fill="#FBEBE1" stroke="#292B2E" stroke-width="3" stroke-miterlimit="10"/>
<path d="M1169.12 263.08C1167.46 263.635 1166.43 264.98 1166.11 265.772C1165.8 266.564 1165 275.751 1165.08 277.096C1165.16 278.441 1166.67 281.248 1166.67 281.248C1166.67 281.248 1176.64 276.461 1177.83 276.065C1179.02 275.669 1180.45 275.51 1181.79 276.065C1183.14 276.62 1187.65 278.52 1188.36 278.836C1189.08 279.152 1190.9 279.471 1191.53 278.361C1192.17 277.252 1194.07 274.086 1194.46 273.294C1194.86 272.501 1195.18 271.349 1194.46 270.262C1193.75 269.176 1187.14 262.127 1185.85 261.098C1184.56 260.069 1182.68 258.565 1179.7 259.119C1176.72 259.675 1169.12 263.08 1169.12 263.08Z" fill="#FBEBE1"/>
<path d="M1188.36 278.838C1189.08 279.154 1190.9 279.473 1191.53 278.363C1192.17 277.254 1194.07 274.088 1194.46 273.296C1194.86 272.503 1195.18 271.351 1194.46 270.264C1193.75 269.178 1187.14 262.129 1185.85 261.1C1184.56 260.071 1182.68 258.567 1179.7 259.121C1176.72 259.675 1169.12 263.08 1169.12 263.08C1167.46 263.635 1166.43 264.98 1166.11 265.772C1165.8 266.564 1165 275.751 1165.08 277.096C1165.16 278.441 1166.67 281.248 1166.67 281.248L1167.18 283.265" stroke="#292B2E" stroke-width="3" stroke-miterlimit="10" stroke-linecap="round"/>
<path d="M1177.62 275.236C1177.62 275.236 1177.78 275.182 1178.07 275.088C1178.23 275.043 1178.38 274.977 1178.62 274.923C1178.87 274.88 1179.16 274.831 1179.47 274.778C1179.79 274.706 1180.12 274.755 1180.48 274.749C1180.84 274.731 1181.21 274.809 1181.61 274.91C1181.8 274.958 1182 275.008 1182.2 275.056C1182.37 275.115 1182.53 275.174 1182.7 275.234C1183.02 275.349 1183.35 275.466 1183.68 275.584C1186.32 276.522 1188.96 277.459 1188.96 277.459C1189.74 277.737 1190.15 278.597 1189.87 279.378C1189.59 280.16 1188.73 280.569 1187.95 280.291C1187.89 280.272 1187.84 280.249 1187.79 280.225L1187.78 280.217C1187.78 280.217 1185.27 278.985 1182.76 277.752C1182.44 277.598 1182.13 277.443 1181.82 277.292L1181.37 277.073C1181.25 277.03 1181.13 276.988 1181.01 276.947C1180.78 276.852 1180.54 276.76 1180.29 276.754C1180.06 276.736 1179.82 276.655 1179.62 276.69C1179.41 276.696 1179.22 276.701 1179.05 276.706C1178.87 276.722 1178.67 276.777 1178.52 276.802C1178.22 276.862 1178.05 276.898 1178.05 276.898C1177.59 276.993 1177.13 276.692 1177.04 276.226C1176.95 275.793 1177.21 275.369 1177.62 275.236Z" fill="#292B2E"/>
<path d="M1209.93 249.555C1206.97 247.302 1204 246.946 1202.82 247.778C1201.63 248.609 1196.52 252.35 1194.89 253.301C1193.25 254.25 1191.6 255.736 1192.28 257.696C1192.96 259.656 1195.33 262.566 1199.49 262.566C1203.65 262.566 1208.64 259.477 1210.18 257.221C1211.73 254.963 1212.08 254.073 1211.79 253.063C1211.49 252.053 1209.93 249.555 1209.93 249.555Z" fill="#FBEBE1"/>
<path d="M1206.88 260.119C1204.72 261.475 1201.96 262.565 1199.49 262.565C1195.33 262.565 1192.96 259.655 1192.28 257.695C1191.6 255.735 1193.25 254.25 1194.88 253.3C1196.52 252.349 1201.63 248.608 1202.82 247.777C1204 246.945 1206.97 247.302 1209.93 249.554C1209.93 249.554 1211.49 252.052 1211.78 253.062C1211.78 253.062 1212.45 254.316 1213.03 255.638" stroke="#292B2E" stroke-width="3" stroke-miterlimit="10" stroke-linecap="round"/>
<path d="M1312.37 234.879C1303.8 271.047 1272.16 312.109 1278.24 366.815C1282.99 409.577 1308.3 423.168 1308.3 423.168L1317.63 419.853C1304.1 396.561 1280.97 342.849 1306.05 287.207C1296.93 323.422 1308.02 381.388 1342.86 396.592C1346.34 395.324 1348.56 394.058 1348.56 394.058C1348.56 394.058 1295.39 369.035 1317.86 276.861V234.357L1312.37 234.879Z" fill="#3F3230"/>
<path d="M1319.24 271.467C1319.24 271.495 1319.13 271.918 1318.97 272.842C1318.8 273.756 1318.58 275.118 1318.36 276.867C1318.12 278.613 1317.92 280.754 1317.73 283.212C1317.59 285.673 1317.43 288.456 1317.45 291.497C1317.43 293.018 1317.51 294.6 1317.53 296.239C1317.64 297.875 1317.67 299.572 1317.84 301.305C1318.08 304.784 1318.6 308.425 1319.2 312.179C1319.9 315.911 1320.68 319.77 1321.82 323.596C1322.87 327.448 1324.26 331.26 1325.76 335.029C1327.36 338.753 1329.07 342.437 1331.06 345.898C1331.55 346.764 1332.05 347.628 1332.54 348.487C1333.03 349.344 1333.6 350.151 1334.12 350.977C1334.65 351.799 1335.18 352.617 1335.71 353.428C1336.28 354.208 1336.84 354.984 1337.4 355.752C1337.96 356.521 1338.52 357.282 1339.07 358.038C1339.66 358.76 1340.25 359.476 1340.83 360.184C1341.42 360.891 1341.99 361.591 1342.56 362.283C1343.14 362.971 1343.76 363.597 1344.35 364.244C1344.95 364.885 1345.53 365.516 1346.11 366.139C1346.4 366.449 1346.69 366.758 1346.97 367.063C1347.27 367.352 1347.57 367.639 1347.87 367.923C1349.06 369.062 1350.2 370.161 1351.31 371.217C1352.47 372.208 1353.58 373.158 1354.64 374.063C1355.17 374.514 1355.69 374.953 1356.19 375.38C1356.7 375.797 1357.22 376.168 1357.72 376.546C1358.71 377.294 1359.64 377.993 1360.5 378.641C1360.93 378.963 1361.34 379.274 1361.73 379.571C1362.14 379.844 1362.53 380.105 1362.9 380.352C1365.88 382.332 1367.58 383.463 1367.58 383.463L1366.3 385.547C1366.3 385.547 1364.55 384.422 1361.48 382.453C1361.09 382.206 1360.69 381.947 1360.27 381.675C1359.86 381.379 1359.43 381.069 1358.99 380.745C1358.1 380.098 1357.14 379.398 1356.11 378.651C1355.6 378.272 1355.06 377.901 1354.53 377.482C1354.01 377.054 1353.47 376.612 1352.92 376.16C1351.82 375.251 1350.66 374.295 1349.45 373.299C1348.3 372.234 1347.11 371.124 1345.87 369.977C1345.56 369.689 1345.24 369.4 1344.93 369.108C1344.63 368.799 1344.33 368.488 1344.03 368.174C1343.42 367.543 1342.81 366.903 1342.19 366.254C1341.57 365.598 1340.92 364.964 1340.32 364.266C1339.72 363.564 1339.11 362.853 1338.5 362.134C1337.89 361.414 1337.27 360.687 1336.64 359.952C1336.06 359.184 1335.48 358.407 1334.88 357.625C1334.29 356.841 1333.7 356.051 1333.1 355.254C1332.54 354.426 1331.98 353.592 1331.42 352.752C1330.86 351.906 1330.27 351.081 1329.74 350.206C1329.22 349.327 1328.69 348.443 1328.16 347.557C1326.05 344.013 1324.22 340.234 1322.5 336.409C1320.89 332.539 1319.38 328.615 1318.23 324.651C1316.98 320.71 1316.11 316.737 1315.32 312.886C1314.64 309.018 1314.04 305.259 1313.73 301.668C1313.53 299.877 1313.46 298.125 1313.33 296.434C1313.27 294.741 1313.16 293.104 1313.16 291.531C1313.09 288.385 1313.2 285.499 1313.31 282.942C1313.46 280.387 1313.63 278.159 1313.85 276.325C1314.05 274.491 1314.27 273.051 1314.43 272.06C1314.52 271.554 1314.58 271.167 1314.63 270.907C1314.68 270.653 1314.7 270.52 1314.7 270.52L1319.24 271.467Z" fill="#3F3230"/>
<path d="M1199.49 263.66C1199.49 263.66 1199.42 263.714 1199.3 263.816C1199.22 263.901 1199.17 263.997 1199.05 264.12C1198.93 264.228 1198.76 264.555 1198.58 264.82C1198.37 265.087 1198.21 265.476 1198.02 265.893C1197.85 266.32 1197.58 266.729 1197.46 267.269C1197.3 267.79 1197.14 268.338 1196.97 268.907C1196.76 269.462 1196.72 270.107 1196.59 270.726C1196.47 271.355 1196.36 271.994 1196.25 272.632C1196.16 273.277 1196.14 273.939 1196.08 274.582C1196.03 275.228 1195.98 275.864 1195.93 276.479C1195.91 276.787 1195.89 277.089 1195.86 277.386C1195.87 277.685 1195.87 277.978 1195.87 278.263C1195.88 278.833 1195.88 279.372 1195.89 279.871C1195.91 281.864 1195.92 283.194 1195.92 283.194L1195.92 283.27C1195.92 283.841 1195.47 284.308 1194.9 284.314C1194.34 284.319 1193.88 283.883 1193.85 283.335C1193.85 283.335 1193.78 281.97 1193.67 279.922C1193.65 279.409 1193.62 278.854 1193.59 278.267C1193.57 277.973 1193.56 277.67 1193.54 277.362C1193.55 277.051 1193.56 276.734 1193.57 276.411C1193.59 275.764 1193.61 275.097 1193.64 274.418C1193.67 273.738 1193.66 273.048 1193.73 272.355C1193.82 271.662 1193.91 270.968 1194 270.286C1194.12 269.603 1194.13 268.928 1194.33 268.279C1194.5 267.63 1194.66 267.001 1194.81 266.405C1194.93 265.805 1195.22 265.254 1195.41 264.736C1195.62 264.22 1195.8 263.747 1196.07 263.338C1196.33 262.917 1196.47 262.588 1196.75 262.254C1197.01 261.931 1197.25 261.664 1197.38 261.522C1197.5 261.415 1197.56 261.358 1197.56 261.358C1198.17 260.798 1199.12 260.837 1199.68 261.447C1200.24 262.057 1200.2 263.007 1199.6 263.567C1199.58 263.581 1199.57 263.593 1199.55 263.606L1199.49 263.66Z" fill="#292B2E"/>
<path d="M1187.49 236.39C1187.49 236.39 1187.79 236.949 1188.24 237.786C1188.47 238.205 1188.73 238.693 1189.02 239.217C1189.31 239.732 1189.58 240.333 1189.87 240.906C1191.01 243.215 1192.15 245.525 1192.15 245.525C1192.38 245.994 1192.19 246.563 1191.72 246.795C1191.28 247.011 1190.76 246.859 1190.5 246.458L1190.45 246.375C1190.45 246.375 1189.1 244.263 1187.76 242.15C1187.42 241.625 1187.11 241.097 1186.76 240.608C1186.42 240.119 1186.1 239.662 1185.83 239.27C1185.29 238.487 1184.93 237.964 1184.93 237.964C1184.46 237.283 1184.63 236.346 1185.31 235.873C1185.99 235.399 1186.92 235.567 1187.4 236.249C1187.43 236.292 1187.46 236.344 1187.49 236.39Z" fill="#292B2E"/>
</g>
</g>
<path opacity="0.8" d="M1568.14 158.458C1565.71 147.647 1558.22 136.871 1547.1 133.816C1541.28 132.218 1534.81 132.949 1529.5 135.719C1529.62 123.159 1523.44 110.482 1510.49 106.787C1501.55 104.236 1492.21 108.102 1487.52 115.293C1481.45 112.243 1473.65 112.356 1467.61 115.713C1455.95 122.206 1451.36 136.971 1450.2 149.432C1449.07 161.682 1452.63 175.01 1462.84 182.625C1470.22 188.13 1480.32 190.254 1488.87 186.953C1495.41 195.837 1506.89 200.178 1517.94 198.918C1525.62 198.042 1536.56 194.263 1542.31 187.636C1546.75 189.858 1552.27 190.132 1557.09 188.141C1568.51 183.415 1570.55 169.193 1568.14 158.458Z" fill="white"/>
<path opacity="0.8" d="M536.988 207.212C530.93 198.541 519.117 194.375 509.96 197.986C503.903 182.673 482.212 177.12 465.95 181.396C447.331 186.292 439.032 204.855 443.867 221.336C438.763 220.224 433.21 221.042 428.538 223.744C419.325 229.073 416.263 240.579 418.922 250.458C421.746 260.952 430.636 269.072 441.457 270.395C450.52 271.503 458.731 268.241 465.967 263.311C473.705 275.341 492.583 276.469 506.143 272.481C514.795 269.937 522.603 264.798 527.61 257.211C530.292 253.147 532.576 247.626 532.442 242.506C544.558 237.183 544.299 217.676 536.988 207.212Z" fill="white"/>
<g opacity="0.7">
<path d="M196.103 143.588C193.925 131.138 184.397 120.702 170.437 120.029C162.903 119.667 156.114 122.686 151.302 127.578C131.509 118.178 106.899 133.935 109.143 157.001C111.144 177.568 132.317 188.122 149.533 181.487C152.073 193.665 163.903 203.051 177.02 203.583C185.461 203.925 196.043 201.002 202.005 194.659C202.239 194.409 202.442 194.142 202.653 193.881C206.929 195.111 211.702 194.966 216.196 193.33C226.412 189.61 232.527 178.885 232.851 168.349C233.468 148.341 212.536 137.448 196.103 143.588Z" fill="white"/>
</g>
<g opacity="0.9">
<path d="M786.569 390.057C787.877 387.988 788.756 385.471 789.046 382.416C789.616 376.416 787.093 369.643 781.665 366.516C781.343 366.33 781.017 366.168 780.69 366.018C785.096 349.474 775.597 330.336 757.6 326.692C747.676 324.683 736.948 327.042 729.304 333.841C724.947 337.717 721.573 343.315 721.472 349.271C721.446 350.816 721.687 352.258 722.084 353.639C720.769 353.729 719.457 353.969 718.185 354.396C715.444 355.316 713.257 356.92 711.531 358.936C703.852 346.248 687.748 339.262 672.6 345.046C654.384 352.003 645.182 376.515 653.964 393.119C653.964 393.119 615.336 399.946 621.71 399.946H660.893C661.259 400.027 661.653 400.07 662.075 400.07H757.312C757.727 400.07 758.111 400.024 758.471 399.946H798.593C804.956 399.946 786.569 390.057 786.569 390.057Z" fill="white"/>
<path d="M814.437 368.815C810.948 361.936 801.418 361.055 796.015 366.118C793.793 368.201 792.562 371.244 792.672 374.211C792.429 380.926 798.254 386.724 805.299 385.991C813.708 385.117 818.238 376.306 814.437 368.815Z" fill="white"/>
<path d="M813.753 348.603C806.167 348.603 806.154 360.393 813.753 360.393C821.339 360.393 821.352 348.603 813.753 348.603Z" fill="white"/>
</g>
<g opacity="0.7">
<path d="M1750.79 265.517C1749.69 259.749 1746.57 254.809 1742.41 250.894C1743.21 239.482 1734.29 228.794 1722.93 224.91C1713.32 221.622 1703.34 223.969 1696.82 230.221C1687.88 217.074 1661.53 219.404 1650.85 228.353C1642.73 235.157 1640.29 246.561 1642.56 256.873C1639 259.503 1636.3 263.344 1634.95 267.515C1630.32 281.861 1643.33 295.035 1657.73 292.583C1658.71 292.416 1659.67 292.162 1660.62 291.839C1663.35 293.988 1666.43 295.747 1669.65 297.051C1680.53 301.45 1693.37 301.856 1704.92 300.92C1716.38 299.992 1729.37 298.019 1739.01 291.298C1747.4 285.454 1752.78 275.886 1750.79 265.517Z" fill="white"/>
<path d="M1783.93 274.847C1782.73 272.241 1780.68 269.928 1777.84 268.376C1770.81 264.526 1752.13 267.321 1752.71 278.088C1753.37 290.472 1768.11 297.32 1778.69 291.414C1785.09 287.837 1786.59 280.621 1783.93 274.847Z" fill="white"/>
<path d="M1768.04 252.604C1760.46 252.604 1760.44 264.394 1768.04 264.394C1775.63 264.394 1775.64 252.604 1768.04 252.604Z" fill="white"/>
</g>
</g>
<defs>
<filter id="filter0_d_6_142" x="712.84" y="132.184" width="467.228" height="122.176" filterUnits="userSpaceOnUse" color-interpolation-filters="sRGB">
<feFlood flood-opacity="0" result="BackgroundImageFix"/>
<feColorMatrix in="SourceAlpha" type="matrix" values="0 0 0 0 0 0 0 0 0 0 0 0 0 0 0 0 0 0 127 0" result="hardAlpha"/>
<feOffset dx="2" dy="4"/>
<feGaussianBlur stdDeviation="2"/>
<feComposite in2="hardAlpha" operator="out"/>
<feColorMatrix type="matrix" values="0 0 0 0 0 0 0 0 0 0 0 0 0 0 0 0 0 0 0.5 0"/>
<feBlend mode="normal" in2="BackgroundImageFix" result="effect1_dropShadow_6_142"/>
<feBlend mode="normal" in="SourceGraphic" in2="effect1_dropShadow_6_142" result="shape"/>
</filter>
<filter id="filter1_d_6_142" x="1061.36" y="59.8689" width="407.178" height="450.74" filterUnits="userSpaceOnUse" color-interpolation-filters="sRGB">
<feFlood flood-opacity="0" result="BackgroundImageFix"/>
<feColorMatrix in="SourceAlpha" type="matrix" values="0 0 0 0 0 0 0 0 0 0 0 0 0 0 0 0 0 0 127 0" result="hardAlpha"/>
<feOffset dy="4"/>
<feGaussianBlur stdDeviation="2"/>
<feComposite in2="hardAlpha" operator="out"/>
<feColorMatrix type="matrix" values="0 0 0 0 0 0 0 0 0 0 0 0 0 0 0 0 0 0 0.25 0"/>
<feBlend mode="normal" in2="BackgroundImageFix" result="effect1_dropShadow_6_142"/>
<feBlend mode="normal" in="SourceGraphic" in2="effect1_dropShadow_6_142" result="shape"/>
</filter>
<linearGradient id="paint0_linear_6_142" x1="950" y1="400" x2="950" y2="0" gradientUnits="userSpaceOnUse">
<stop stop-color="#8AC6E9"/>
<stop offset="1" stop-color="#2B8FC8"/>
</linearGradient>
<clipPath id="clip0_6_142">
<rect width="1900" height="400" fill="white"/>
</clipPath>
<clipPath id="clip1_6_142">
<rect width="500" height="500" fill="white" transform="translate(1010)"/>
</clipPath>
</defs>
</svg>
