<svg width="83" height="75" viewBox="0 0 83 75" fill="none" xmlns="http://www.w3.org/2000/svg">
<path d="M31.6555 24.1285C34.5631 24.7851 36.861 26.2389 38.5493 28.4899C40.2845 30.6941 41.1521 33.2265 41.1521 36.0872C41.1521 40.308 39.6983 43.6142 36.7907 46.0059C33.8831 48.3977 29.803 49.5936 24.5506 49.5936H0V0H23.7768C28.8416 0 32.8044 1.12553 35.6652 3.37658C38.5728 5.62764 40.0266 8.79319 40.0266 12.8732C40.0266 15.7808 39.2528 18.2195 37.7052 20.1892C36.2045 22.1119 34.1879 23.425 31.6555 24.1285ZM13.7877 19.6967H20.7519C24.2223 19.6967 25.9575 18.2664 25.9575 15.4057C25.9575 12.4512 24.2223 10.9739 20.7519 10.9739H13.7877V19.6967ZM21.8071 38.479C25.2775 38.479 27.0127 37.0252 27.0127 34.1176C27.0127 32.6169 26.5437 31.4679 25.6058 30.6706C24.7147 29.8734 23.425 29.4748 21.7368 29.4748H13.7877V38.479H21.8071Z" fill="white"/>
<path d="M64.1433 75C58.375 75 53.6384 73.64 49.9336 70.9199C46.2287 68.153 44.2356 64.2137 43.9542 59.1019H58.6564C58.7971 60.8371 59.313 62.1033 60.204 62.9006C61.095 63.6978 62.244 64.0964 63.6509 64.0964C64.9171 64.0964 65.9489 63.7916 66.7461 63.1819C67.5903 62.5254 68.0123 61.6343 68.0123 60.5088C68.0123 59.055 67.3323 57.9295 65.9723 57.1322C64.6123 56.335 62.4082 55.4439 59.3599 54.4591C56.124 53.3805 53.4977 52.3487 51.4812 51.3639C49.5115 50.3322 47.7763 48.8549 46.2756 46.9321C44.8218 44.9625 44.0949 42.4066 44.0949 39.2645C44.0949 36.0755 44.8921 33.3555 46.4866 31.1044C48.0811 28.8064 50.2853 27.0713 53.0991 25.8988C55.9129 24.7264 59.1019 24.1402 62.6661 24.1402C68.4344 24.1402 73.0303 25.5002 76.4538 28.2202C79.9242 30.8934 81.7766 34.6686 82.0111 39.5459H67.0275C66.9806 38.0452 66.5116 36.9196 65.6206 36.1693C64.7765 35.4189 63.6744 35.0437 62.3144 35.0437C61.2826 35.0437 60.4385 35.3486 59.7819 35.9582C59.1254 36.5679 58.7971 37.4355 58.7971 38.561C58.7971 39.499 59.1488 40.3197 59.8523 41.0231C60.6026 41.6797 61.5171 42.2659 62.5957 42.7818C63.6744 43.2507 65.2689 43.8604 67.3792 44.6107C70.5213 45.6894 73.1007 46.768 75.1172 47.8466C77.1807 48.8784 78.9393 50.3556 80.3931 52.2784C81.8938 54.1543 82.6442 56.546 82.6442 59.4536C82.6442 62.4081 81.8938 65.0578 80.3931 67.4027C78.9393 69.7475 76.8055 71.5999 73.9917 72.96C71.2248 74.32 67.942 75 64.1433 75Z" fill="white"/>
</svg>
