<svg width="800" height="800" viewBox="0 0 800 800" fill="none" xmlns="http://www.w3.org/2000/svg">
<g clip-path="url(#clip0_7_2)">
<path fill-rule="evenodd" clip-rule="evenodd" d="M101.225 83.172C108.733 70.332 123.84 64.0207 138.251 67.703C199.186 83.2724 251.706 108.39 301.043 145.51C332.325 135.314 365.57 129.823 400 129.823C434.427 129.823 467.673 135.314 498.957 145.51C548.293 108.39 600.813 83.2724 661.747 67.703C676.16 64.0207 691.267 70.332 698.773 83.172C720.453 120.245 722.733 161.502 718.077 198.539C714.14 229.841 704.93 260.546 695.87 286.881C719.837 335.247 733.333 390.16 733.333 448.243C733.333 469.32 731.55 489.263 728.11 508.067L759.123 500.863C777.057 496.697 794.97 507.857 799.133 525.79C803.3 543.723 792.14 561.637 774.207 565.8L703.257 582.283C692.917 602.4 680.09 620.553 665.057 636.713L687.603 656.707C701.38 668.923 702.643 689.99 690.43 703.763C678.217 717.537 657.147 718.803 643.373 706.587L612.953 679.613C553.603 716.997 478.6 733.333 400 733.333C321.397 733.333 246.396 716.997 187.045 679.613L156.624 706.59C142.85 718.803 121.783 717.537 109.568 703.763C97.3544 689.99 98.6187 668.923 112.393 656.707L134.941 636.713C119.907 620.553 107.081 602.4 96.7431 582.283L25.7903 565.8C7.85831 561.637 -3.30164 543.723 0.863894 525.79C5.02945 507.857 22.943 496.697 40.8751 500.863L71.8897 508.067C68.4497 489.263 66.6661 469.32 66.6661 448.243C66.6661 390.16 80.1628 335.247 104.128 286.881C95.0704 260.546 85.8594 229.841 81.9237 198.539C77.2667 161.502 79.5451 120.245 101.225 83.172ZM533.333 450C560.947 450 583.333 427.613 583.333 400C583.333 372.383 560.947 350 533.333 350C505.72 350 483.333 372.383 483.333 400C483.333 427.613 505.72 450 533.333 450ZM270.711 454.043C298.325 454.043 320.711 431.657 320.711 404.043C320.711 376.427 298.325 354.043 270.711 354.043C243.096 354.043 220.711 376.427 220.711 404.043C220.711 431.657 243.096 454.043 270.711 454.043ZM366.667 500C353.183 500 341.03 508.12 335.87 520.577C330.711 533.033 333.563 547.37 343.097 556.903L376.43 590.237C389.447 603.253 410.553 603.253 423.57 590.237L456.903 556.903C466.437 547.37 469.287 533.033 464.13 520.577C458.97 508.12 446.813 500 433.333 500H366.667Z" fill="black"/>
</g>
<defs>
<clipPath id="clip0_7_2">
<rect width="800" height="800" fill="white"/>
</clipPath>
</defs>
</svg>
