<svg width="163" height="163" viewBox="0 0 163 163" fill="none" xmlns="http://www.w3.org/2000/svg">
<path d="M102.481 141.319C135.423 129.646 152.666 93.4781 140.993 60.5356C129.32 27.5931 93.1524 10.3506 60.2099 22.0234C27.2673 33.6962 10.0248 69.8641 21.6977 102.807C33.3705 135.749 69.5384 152.992 102.481 141.319Z" fill="#FAC2C2"/>
<path d="M81.338 19.2889C115.794 19.2889 143.726 47.2209 143.726 81.6769C143.726 116.133 115.794 144.065 81.338 144.065C46.882 144.065 18.95 116.133 18.95 81.6769C18.95 47.2209 46.883 19.2889 81.338 19.2889ZM81.338 17.5029C45.953 17.5029 17.165 46.2909 17.165 81.6759C17.165 117.061 45.953 145.849 81.338 145.849C116.723 145.849 145.511 117.061 145.511 81.6759C145.511 46.2909 116.724 17.5029 81.338 17.5029Z" fill="#8A1C13"/>
<path d="M81.3379 18.845C55.5589 18.845 33.4339 34.483 23.9249 56.789C22.7949 61.487 22.1799 66.386 22.1799 71.431C22.1799 105.887 50.1119 133.819 84.5679 133.819C110.348 133.819 132.472 118.181 141.981 95.875C143.111 91.177 143.726 86.278 143.726 81.234C143.726 46.777 115.794 18.845 81.3379 18.845Z" fill="#FAFFEA"/>
<path d="M121.929 108.386C115.236 108.386 109.789 103.832 109.789 98.235C109.789 92.638 115.235 88.084 121.929 88.084C128.622 88.084 134.069 92.638 134.069 98.235C134.068 103.832 128.622 108.386 121.929 108.386Z" fill="#FF8E63"/>
<path d="M121.929 88.8219C128.226 88.8219 133.33 93.0359 133.33 98.2349C133.33 103.434 128.225 107.648 121.929 107.648C115.632 107.648 110.527 103.434 110.527 98.2349C110.527 93.0359 115.632 88.8219 121.929 88.8219ZM121.929 87.3459C114.828 87.3459 109.051 92.2309 109.051 98.2349C109.051 104.239 114.828 109.124 121.929 109.124C129.03 109.124 134.807 104.239 134.807 98.2349C134.806 92.2309 129.03 87.3459 121.929 87.3459Z" fill="#FF7943"/>
<path d="M126.026 93.8798C126.026 95.1898 124.191 96.2528 121.928 96.2528C119.665 96.2528 117.83 95.1908 117.83 93.8798C117.83 92.5688 119.665 91.5068 121.928 91.5068C124.191 91.5068 126.026 92.5698 126.026 93.8798Z" fill="#FFDEC5"/>
<path d="M40.071 108.386C33.377 108.386 27.931 103.832 27.931 98.235C27.931 92.638 33.377 88.084 40.071 88.084C46.765 88.084 52.211 92.638 52.211 98.235C52.211 103.832 46.765 108.386 40.071 108.386Z" fill="#FF8E63"/>
<path d="M40.071 88.8219C46.368 88.8219 51.472 93.0359 51.472 98.2349C51.472 103.434 46.367 107.648 40.071 107.648C33.774 107.648 28.67 103.434 28.67 98.2349C28.67 93.0359 33.774 88.8219 40.071 88.8219ZM40.071 87.3459C32.97 87.3459 27.193 92.2309 27.193 98.2349C27.193 104.239 32.97 109.124 40.071 109.124C47.172 109.124 52.949 104.239 52.949 98.2349C52.949 92.2309 47.172 87.3459 40.071 87.3459Z" fill="#FF7943"/>
<path d="M44.169 93.8798C44.169 95.1898 42.334 96.2528 40.071 96.2528C37.808 96.2528 35.973 95.1908 35.973 93.8798C35.973 92.5688 37.808 91.5068 40.071 91.5068C42.334 91.5068 44.169 92.5698 44.169 93.8798Z" fill="#FFDEC5"/>
<path d="M67.502 86.917H37.457C35.165 86.917 33.29 85.042 33.29 82.75C33.29 80.458 35.165 78.583 37.457 78.583H67.502C69.794 78.583 71.6691 80.458 71.6691 82.75C71.6691 85.042 69.794 86.917 67.502 86.917Z" fill="#8A1C13"/>
<path d="M125.221 86.917H95.176C92.884 86.917 91.009 85.042 91.009 82.75C91.009 80.458 92.884 78.583 95.176 78.583H125.221C127.513 78.583 129.388 80.458 129.388 82.75C129.388 85.042 127.513 86.917 125.221 86.917Z" fill="#8A1C13"/>
<path d="M88.078 102.154C88.078 106.063 84.909 109.232 81 109.232C77.091 109.232 73.922 106.063 73.922 102.154C73.922 98.2449 77.091 95.0759 81 95.0759C84.909 95.0759 88.078 98.2449 88.078 102.154Z" fill="#8A1C13"/>
<path d="M64.883 60.045C60.811 64.612 55.039 67.49 48.911 67.829C47.9 67.885 47.036 68.651 47.036 69.704C47.036 70.676 47.895 71.635 48.911 71.579C55.997 71.187 62.8 68.008 67.535 62.697C69.137 60.9 66.494 58.239 64.883 60.045Z" fill="#8A1C13"/>
<path d="M91.9031 62.6959C96.6381 68.0069 103.441 71.1859 110.527 71.5779C111.539 71.6339 112.402 70.6759 112.402 69.7029C112.402 68.6409 111.542 67.8839 110.527 67.8279C104.399 67.4889 98.627 64.6109 94.555 60.0439C92.945 58.2399 90.3011 60.8989 91.9031 62.6959Z" fill="#8A1C13"/>
</svg>
