<svg width="72" height="50" viewBox="0 0 72 50" fill="none" xmlns="http://www.w3.org/2000/svg">
<path fill-rule="evenodd" clip-rule="evenodd" d="M63.6476 1.52942C66.7064 2.35296 69.1182 4.76474 69.9417 7.82359C71.4712 13.4119 71.4123 25.059 71.4123 25.059C71.4123 25.059 71.4123 36.6474 69.9417 42.2356C69.1182 45.2945 66.7064 47.7063 63.6476 48.5298C58.0593 50.0004 35.7062 50.0004 35.7062 50.0004C35.7062 50.0004 13.4119 50.0004 7.76477 48.471C4.70592 47.6474 2.29414 45.2357 1.4706 42.1768C0 36.6474 0 25.0002 0 25.0002C0 25.0002 0 13.4119 1.4706 7.82359C2.29414 4.76474 4.76474 2.29414 7.76477 1.4706C13.353 0 35.7062 0 35.7062 0C35.7062 0 58.0593 0 63.6476 1.52942ZM28.5885 14.2942L47.1769 25.0002L28.5885 35.7062V14.2942Z" fill="#FAFAFA"/>
</svg>
